<svg width="160" height="160" viewBox="0 0 160 160" fill="none" xmlns="http://www.w3.org/2000/svg">
<g clip-path="url(#clip0_836_81)">
<path d="M133.153 94.773C141.865 87.7546 147.902 80.1227 150.871 73.6933C151.043 75.3865 151.387 78.5521 151.534 79.9755C147.117 85.4724 141.472 89.7423 133.153 94.773ZM148.491 64L144.81 69.2761C144.172 75.6564 141.939 84.0491 135.239 91.4601C139.755 87.2638 143.411 82.9202 146.086 78.7485C146.209 78.5521 146.356 78.3313 146.479 78.135L146.503 78.1104C147.902 75.8528 148.81 73.9141 149.448 72.4417C149.89 71.411 150.209 70.4294 150.479 69.4479L148.491 64Z" fill="#383838"/>
<path d="M142.699 89.8653C146.233 87.534 149.153 85.1291 151.755 82.2579L152.589 89.8653H142.699ZM143.558 69.4727H141.693C141.693 69.4727 138.822 83.9021 138.552 85.1536C141.718 79.6322 143.117 74.1107 143.558 69.4727ZM5.34967 86.577C6.01225 87.1659 7.5828 87.6812 9.20243 87.7058C12.8098 87.7058 14.9938 85.5217 14.9938 82.7242C14.9938 80.761 13.9141 79.5095 11.9509 78.4297C10.2576 77.4972 9.44783 76.761 9.44783 75.4604C9.44783 74.1598 10.6503 72.8346 12.638 72.8346C13.8895 72.8101 14.8957 73.2763 15.3865 73.5954L16.0981 71.9757C15.5583 71.5831 14.3803 71.1414 12.8098 71.1414C9.86501 71.1414 7.38648 72.9819 7.38648 75.853C7.38648 77.5708 8.53985 78.8469 10.5767 79.9757C12.2699 80.8837 12.9325 81.7671 12.9325 82.9696C12.9325 84.9082 11.2638 85.9635 9.44783 85.9635C8.12268 85.9635 6.89568 85.5463 6.03679 84.9328L5.34967 86.577ZM25.8405 87.4358C25.7914 86.1598 25.9386 84.0984 26.3067 82.1107L27.4846 76.0984C26.6994 75.853 25.4969 75.6812 24.3926 75.6812C19.3865 75.6567 16.4417 79.853 16.4417 83.8776C16.4417 86.0616 17.6932 87.6812 19.7546 87.6812C21.3742 87.6812 22.9693 86.8469 24.2208 84.442H24.2699C24.1227 85.6444 24 86.7242 24 87.4113H25.8405V87.4358ZM24.6135 80.8592C24.0736 83.9266 22.1104 86.0616 20.4417 86.0616C18.9448 86.0616 18.4785 84.8101 18.4785 83.5095C18.4785 80.2947 20.9325 77.2027 23.9018 77.2027C24.5644 77.2027 24.9816 77.2763 25.2515 77.3745L24.6135 80.8592ZM27.6073 86.896C28.1227 87.2886 29.227 87.6567 30.454 87.6812C32.908 87.6812 34.8711 86.3316 34.8711 83.9021C34.8711 82.6015 34.0122 81.5954 32.7362 80.8592C31.681 80.2947 31.1411 79.7549 31.1411 78.9205C31.1411 77.9389 32 77.1782 33.2024 77.1782C34.0613 77.1782 34.773 77.4727 35.1656 77.6935L35.7055 76.1966C35.2883 75.9021 34.3558 75.6322 33.3251 75.6322C30.8711 75.6322 29.1288 77.1782 29.1288 79.1904C29.1288 80.3929 29.865 81.3745 31.1902 82.1107C32.3926 82.7733 32.8098 83.3377 32.8098 84.2457C32.8098 85.2763 31.9509 86.1352 30.6257 86.1352C29.6687 86.1352 28.6626 85.7426 28.1472 85.4236L27.6073 86.896ZM38.1595 87.4358L38.9938 83.0432L40.4417 81.7671L43.2147 87.4358H45.3742L41.9632 80.6383L46.9938 75.9021H44.5399L40.4908 79.9757C40.1718 80.2947 39.7546 80.7119 39.411 81.1291H39.3619L41.3742 70.5279H39.3865L36.1718 87.4358H38.1595ZM55.3865 87.4358C55.3374 86.1598 55.4846 84.0984 55.8527 82.1107L57.0307 76.0984C56.2454 75.853 55.0429 75.6812 53.9386 75.6812C48.9325 75.6812 45.9877 79.9021 45.9877 83.9266C45.9877 86.1107 47.2392 87.7303 49.3006 87.7303C50.9202 87.7303 52.5153 86.896 53.7669 84.4911H53.8159C53.6687 85.6935 53.546 86.7733 53.546 87.4604H55.3865V87.4358ZM54.1595 80.8592C53.6196 83.9266 51.6564 86.0616 49.9877 86.0616C48.4908 86.0616 48.0245 84.8101 48.0245 83.5095C48.0245 80.2947 50.4785 77.2027 53.4478 77.2027C54.1104 77.2027 54.5276 77.2763 54.7975 77.3745L54.1595 80.8592ZM60.8589 73.7917L60.4417 75.9021H58.7975L58.503 77.4481H60.1472L59.0184 83.2886C58.8466 84.123 58.7484 84.7855 58.7484 85.4481C58.7484 86.626 59.4356 87.6812 61.1779 87.6812C61.7423 87.6812 62.3558 87.6076 62.6994 87.4604L62.7975 85.9144C62.5276 85.988 62.2331 86.0125 61.865 86.0125C61.1043 86.0125 60.7607 85.5954 60.7607 84.8837C60.7607 84.2947 60.8589 83.6812 61.0061 83.0432L62.0613 77.4236H64.8343L65.1534 75.8776H62.3803L62.8957 73.1291L60.8589 73.7917ZM71.9754 85.4236C71.3865 85.7181 70.5031 86.0616 69.3006 86.0616C67.411 86.0616 66.454 84.8592 66.454 82.9696C66.454 80.2211 68.3435 77.2763 71.3374 77.2763C72.1963 77.2763 72.8343 77.4972 73.3006 77.7181L73.865 76.172C73.4969 75.9512 72.5399 75.6567 71.4601 75.6567C67.3129 75.6567 64.4172 79.2886 64.4172 83.2641C64.4172 85.7181 65.865 87.7058 68.8343 87.7058C70.3804 87.7058 71.5828 87.2886 72.1718 86.9941L71.9754 85.4236ZM75.8282 87.4358L76.908 81.6444C77.3742 79.0677 79.3129 77.2763 80.8343 77.2763C82.1104 77.2763 82.6258 78.1107 82.6258 79.1659C82.6258 79.8039 82.5521 80.3684 82.4785 80.761L81.2024 87.4358H83.1656L84.4417 80.6628C84.5644 80.0984 84.638 79.3377 84.638 78.7242C84.638 76.4174 83.092 75.6322 81.7914 75.6322C80.0491 75.6322 78.6503 76.5156 77.6687 77.9144H77.6196L79.0429 70.5033H77.0797L73.865 87.4358H75.8282ZM93.6932 85.3009C92.9816 85.6935 91.9509 86.0862 90.6012 86.0862C89.3988 86.0862 88.4908 85.5954 88.0245 84.5401C87.7546 83.9266 87.681 82.8469 87.7791 82.3561C92.0491 82.4297 95.4356 81.6444 95.4356 78.626C95.4356 76.9573 94.2331 75.6567 92.0491 75.6567C88.3435 75.6567 85.7669 79.5831 85.7669 83.0677C85.7669 85.6199 87.092 87.7058 90.135 87.7058C91.681 87.7058 93.0797 87.2886 93.9386 86.7978L93.6932 85.3009ZM93.546 78.6751C93.546 80.4665 91.1166 80.8837 88.0245 80.8346C88.4908 79.0187 89.9141 77.2027 91.7791 77.2027C92.8343 77.2027 93.546 77.7181 93.546 78.6751ZM96.8343 75.9021L97.9141 87.4358H99.7546L103.067 81.1046C103.583 80.0739 103.926 79.215 104.393 78.1107H104.442C104.442 79.1414 104.491 80.123 104.613 81.1782L105.374 87.4358H107.215L112.908 75.9021H110.92L107.804 82.5524C107.337 83.6812 107.018 84.5647 106.699 85.4727H106.65C106.65 84.7119 106.577 83.7303 106.454 82.4788L105.742 75.9021H104L100.564 82.6015C100 83.7549 99.5583 84.7365 99.3129 85.4727H99.2392C99.2638 84.5401 99.2883 83.8039 99.1902 82.3806L98.773 75.9021H96.8343ZM121.202 87.4358C121.153 86.1598 121.301 84.0984 121.669 82.1107L122.847 76.0984C122.061 75.853 120.859 75.6812 119.755 75.6812C114.748 75.6812 111.804 79.9021 111.804 83.9266C111.804 86.1107 113.055 87.7303 115.117 87.7303C116.736 87.7303 118.331 86.896 119.583 84.4911H119.632C119.485 85.6935 119.362 86.7733 119.362 87.4604H121.202V87.4358ZM119.951 80.8592C119.411 83.9266 117.448 86.0616 115.779 86.0616C114.282 86.0616 113.816 84.8101 113.816 83.5095C113.816 80.2947 116.27 77.2027 119.239 77.2027C119.902 77.2027 120.319 77.2763 120.589 77.3745L119.951 80.8592ZM125.62 87.4358L126.675 81.8408C127.19 78.9941 129.202 77.3009 130.601 77.3009C131.951 77.3009 132.417 78.1598 132.417 79.3131C132.417 79.8039 132.344 80.3684 132.27 80.7855L131.018 87.4604H132.982L134.258 80.7119C134.38 80.123 134.479 79.3868 134.479 78.8469C134.479 76.442 132.933 75.6567 131.583 75.6567C129.89 75.6567 128.344 76.5647 127.288 78.1843H127.239L127.558 75.9266H125.767C125.644 76.8837 125.472 77.988 125.227 79.2886L123.706 87.4604H125.62V87.4358Z" fill="#696969"/>
</g>
<defs>
<clipPath id="clip0_836_81">
<rect width="160" height="160" fill="white"/>
</clipPath>
</defs>
</svg>
