<svg width="160" height="160" viewBox="0 0 160 160" fill="none" xmlns="http://www.w3.org/2000/svg">
<g clip-path="url(#clip0_836_79)">
<path d="M78.901 94.9868H144.366V95.7685H78.901V94.9868Z" fill="#A1A1A1"/>
<path d="M63.64 79.3075C60.677 66.8319 49.3103 57.5405 35.7395 57.5405C21.9401 57.5405 10.4195 67.1476 7.69684 79.9404L13.7483 76.5449L17.0845 78.845C17.0845 78.845 19.0364 77.9751 19.4471 77.7196L21.8594 80.2234C21.8594 80.2234 27.0968 84.311 27.2501 84.311C27.4047 84.311 31.8719 81.7572 31.8719 81.7572L35.8772 79.0477L39.3676 81.5519L41.9861 82.0633L44.6557 83.8514C44.6557 83.8514 51.1253 79.6097 52.1525 79.0997C52.1525 79.0997 54.9759 80.1209 55.2322 80.0711C55.4887 80.0189 59.9043 76.6469 59.9043 76.6469L63.64 79.3075Z" fill="url(#paint0_radial_836_79)"/>
<path d="M36.0166 71.3152C36.2914 71.3152 36.5819 71.3219 36.8529 71.3365L37.8724 57.6182C37.1683 57.567 36.4572 57.5405 35.7395 57.5405C35.2755 57.5405 34.8141 57.5524 34.3553 57.5737L35.0352 71.3486C35.3619 71.3268 35.6892 71.3157 36.0166 71.3152Z" fill="url(#paint1_radial_836_79)"/>
<path d="M31.2636 72.0995L26.9606 58.8916C25.8464 59.2447 24.7553 59.665 23.6936 60.1501L29.6109 72.7687C30.1475 72.5128 30.6994 72.2893 31.2636 72.0995Z" fill="url(#paint2_radial_836_79)"/>
<path d="M26.5132 74.7836L17.4335 64.0513C16.5295 64.7919 15.6723 65.5862 14.8666 66.4297L25.2215 76.0192C25.6267 75.5823 26.058 75.1697 26.5132 74.7836Z" fill="url(#paint3_radial_836_79)"/>
<path d="M23.1431 78.8988L10.5706 72.2637C10.0929 73.1064 9.40282 74.5487 9.08014 75.3988L22.418 80.4931C22.6286 79.9499 22.8697 79.409 23.1431 78.8988Z" fill="url(#paint4_radial_836_79)"/>
<path d="M42.3081 72.7201L48.4293 60.4543C47.3753 59.9406 46.2899 59.4918 45.1796 59.1104L40.603 72.0408C41.1849 72.2328 41.7543 72.4596 42.3081 72.7201Z" fill="url(#paint5_radial_836_79)"/>
<path d="M46.711 75.922L57.0118 66.8554C56.2318 66.0045 55.4002 65.2008 54.5217 64.4487L45.4103 74.6851C45.8691 75.0708 46.3035 75.4839 46.711 75.922Z" fill="url(#paint6_radial_836_79)"/>
<path d="M49.6499 80.5759L62.6245 75.9832C62.2225 74.9104 61.754 73.863 61.2218 72.8467L48.915 78.963C49.1915 79.4873 49.4391 80.0159 49.6499 80.5759Z" fill="url(#paint7_radial_836_79)"/>
<path d="M31.8719 81.7575L35.8772 79.048L39.3676 81.5522L41.9861 82.0637L44.6557 83.8518C44.6557 83.8518 47.5676 81.9432 49.7939 80.5325C49.4124 79.5423 48.9215 78.5964 48.3301 77.7119L57.9955 70.3431L47.7205 76.8667C46.7962 75.6788 45.692 74.6377 44.4467 73.78L50.505 63.5502L43.5774 73.2253C42.2684 72.4521 40.8446 71.8852 39.3576 71.5452L41.0921 59.7681L38.3359 71.3499C37.5687 71.2307 36.7933 71.1708 36.0166 71.1706C35.1759 71.1706 34.352 71.2407 33.5504 71.3739L30.7882 59.7683L32.5279 71.5804C31.0533 71.9333 29.6433 72.5095 28.3482 73.2884L21.3751 63.5504L27.4778 73.8546C26.2536 74.7135 25.1694 75.7509 24.2624 76.9313L13.8854 70.3431L23.6507 77.7889C23.0843 78.648 22.6119 79.5637 22.2414 80.5208C23.4481 81.4602 27.1224 84.3113 27.2501 84.3113C27.4047 84.3113 31.8719 81.7575 31.8719 81.7575Z" fill="url(#paint8_radial_836_79)"/>
<path d="M63.5911 79.1181L59.9043 76.4904C59.9043 76.4904 55.4887 79.8629 55.2322 79.9139C54.9759 79.9652 52.1525 78.9429 52.1525 78.9429C51.1251 79.4542 44.6557 83.6955 44.6557 83.6955L41.9861 81.9063L39.3676 81.3961L35.8772 78.8923L31.8719 81.6002C31.8719 81.6002 27.4047 84.1553 27.2501 84.1553C27.0968 84.1553 21.8594 80.067 21.8594 80.067L19.4471 77.5632C19.0362 77.8189 17.0845 78.6883 17.0845 78.6883L13.7483 76.3883L7.73805 79.7609C7.30496 81.7317 7.0868 83.7424 7.08728 85.7588C7.08728 87.562 7.26121 89.3262 7.58951 91.0356C10.1073 90.5838 14.6989 89.9419 18.497 90.414C24.0418 91.1045 27.5073 92.0238 33.3605 93.3269C39.213 94.6297 43.5267 95.8568 49.8411 95.1663C55.7523 94.5215 60.0443 93.3372 63.9789 90.5476C64.2534 88.9657 64.3914 87.3638 64.3912 85.759C64.3925 83.522 64.1239 81.2927 63.5911 79.1181ZM80.5798 67.0521C80.5798 65.7434 80.4861 65.3966 79.589 65.3257L78.9651 65.2832C78.8634 65.2037 78.8921 64.8493 78.9851 64.8411C80.0609 64.7466 81.4169 64.6997 83.2706 64.6997C84.5264 64.6997 85.7225 64.7882 86.6198 65.1949C87.4767 65.5664 88.1346 66.2737 88.1346 67.4055C88.1346 68.6792 87.2972 69.3336 86.1013 69.8286C86.1013 70.0052 86.2611 70.0587 86.48 70.0938C87.5564 70.271 89.1509 71.1551 89.1509 73.0475C89.1509 75.0991 87.437 76.4787 83.8488 76.4787C83.2708 76.4787 82.2941 76.4254 81.4569 76.4254C80.5798 76.4254 79.9022 76.4613 79.1644 76.4787C79.0448 76.4254 79.0049 76.1427 79.1247 76.0363L79.4836 75.9832C80.5398 75.824 80.5798 75.6296 80.5798 73.7726V67.0521ZM82.2142 69.4041C82.2142 69.8995 82.2342 69.9348 83.2507 69.8995C85.2835 69.8286 86.3803 69.2977 86.3803 67.6356C86.3803 65.9024 84.9248 65.248 83.4104 65.248C82.9717 65.248 82.6725 65.2835 82.4934 65.3541C82.2941 65.4072 82.2142 65.4959 82.2142 65.8137V69.4041ZM82.2142 73.5073C82.2142 74.1441 82.2539 75.0459 82.6328 75.4352C83.0116 75.8419 83.6098 75.9302 84.2077 75.9302C85.9815 75.9302 87.3369 75.2229 87.3369 73.4544C87.3369 72.0573 86.5397 70.43 83.3705 70.43C82.2941 70.43 82.2142 70.5361 82.2142 70.8898V73.5073ZM103.006 68.7929C103.006 67.1916 102.971 66.9349 101.967 66.8595L101.541 66.8292C101.439 66.7687 101.473 66.4966 101.575 66.4513C102.427 66.4815 103.006 66.4968 103.72 66.4968C104.402 66.4968 104.981 66.4815 105.832 66.4513C105.934 66.4968 105.968 66.7687 105.866 66.8292L105.44 66.8595C104.435 66.9349 104.402 67.1916 104.402 68.7929V74.1712C104.402 75.7724 104.435 75.9841 105.44 76.0898L105.866 76.1349C105.968 76.1953 105.934 76.467 105.832 76.5125C104.98 76.4822 104.402 76.4668 103.72 76.4668C103.006 76.4668 102.427 76.4822 101.575 76.5125C101.473 76.4668 101.439 76.2254 101.541 76.1349L101.967 76.0898C102.971 75.9839 103.006 75.7724 103.006 74.1712V68.7929ZM112.451 74.2013C112.451 75.7874 112.483 76.014 113.409 76.0896L113.919 76.1347C114.015 76.1951 113.983 76.4668 113.887 76.5123C112.978 76.482 112.435 76.4666 111.797 76.4666C111.159 76.4666 110.601 76.482 109.58 76.5123C109.484 76.4666 109.452 76.2103 109.58 76.1347L110.154 76.0896C111.064 76.0138 111.143 75.7872 111.143 74.2013V67.4482C111.143 66.98 111.143 66.9652 110.665 66.9652H109.787C109.102 66.9652 108.224 66.9953 107.825 67.3426C107.442 67.6752 107.283 68.0075 107.108 68.3849C106.98 68.4757 106.756 68.4001 106.693 68.2792C106.948 67.5996 107.187 66.6327 107.299 66.0284C107.347 65.9983 107.554 65.9832 107.602 66.0284C107.698 66.5116 108.224 66.4966 108.958 66.4966H115.419C116.28 66.4966 116.424 66.4665 116.663 66.0739C116.743 66.0436 116.918 66.0588 116.95 66.119C116.774 66.7386 116.663 67.9622 116.711 68.4155C116.647 68.5364 116.376 68.5364 116.296 68.4458C116.249 68.0678 116.137 67.509 115.897 67.3428C115.53 67.0859 114.925 66.9654 114.047 66.9654H112.914C112.436 66.9654 112.451 66.9804 112.451 67.4787V74.2013H112.451ZM119.289 68.7929C119.289 67.1916 119.255 66.9349 118.25 66.8595L117.824 66.8292C117.722 66.7687 117.756 66.4966 117.858 66.4513C118.71 66.4815 119.289 66.4968 120.004 66.4968C120.685 66.4968 121.264 66.4815 122.115 66.4513C122.217 66.4968 122.251 66.7687 122.149 66.8292L121.723 66.8595C120.718 66.9349 120.685 67.1916 120.685 68.7929V74.1712C120.685 75.7724 120.718 75.9841 121.723 76.0898L122.149 76.1349C122.251 76.1953 122.217 76.467 122.115 76.5125C121.263 76.4822 120.685 76.4668 120.004 76.4668C119.289 76.4668 118.71 76.4822 117.858 76.5125C117.756 76.4668 117.722 76.2254 117.824 76.1349L118.25 76.0898C119.255 75.9839 119.289 75.7724 119.289 74.1712V68.7929ZM126.919 76.6672C125.398 76.6672 124.439 76.2744 124.095 76.1084C123.878 75.7759 123.642 74.7035 123.606 73.9933C123.697 73.8874 123.968 73.8573 124.04 73.9478C124.312 74.7184 125.054 76.1986 127.154 76.1986C128.675 76.1986 129.416 75.3677 129.416 74.4613C129.416 73.7968 129.254 73.0567 127.932 72.3464L126.213 71.4096C125.308 70.9111 124.258 70.0501 124.258 68.8113C124.258 67.3762 125.597 66.2129 127.95 66.2129C128.511 66.2129 129.163 66.3036 129.633 66.4093C129.869 66.4698 130.122 66.4999 130.267 66.4999C130.43 66.8628 130.593 67.7086 130.593 68.3431C130.52 68.4339 130.231 68.479 130.14 68.3884C129.905 67.6635 129.416 66.6814 127.679 66.6814C125.905 66.6814 125.525 67.6635 125.525 68.3581C125.525 69.2344 126.394 69.8692 127.063 70.2163L128.511 70.9715C129.652 71.5606 130.774 72.4367 130.774 73.8722C130.774 75.5341 129.272 76.6672 126.919 76.6672ZM136.029 71.5876C135.237 71.5876 135.204 71.6178 135.204 72.071V74.2013C135.204 75.7874 135.286 75.9988 136.211 76.0896L136.689 76.1347C136.788 76.1951 136.755 76.4668 136.656 76.5123C135.765 76.482 135.204 76.4666 134.56 76.4666C133.85 76.4666 133.289 76.4969 132.645 76.5123C132.546 76.4666 132.513 76.2252 132.612 76.1347L132.893 76.0896C133.818 75.9384 133.85 75.7872 133.85 74.2013V68.7628C133.85 67.1765 133.735 66.9199 132.877 66.8595L132.448 66.8292C132.348 66.7687 132.382 66.4966 132.481 66.4513C133.289 66.4667 133.85 66.4968 134.56 66.4968C135.204 66.4968 135.765 66.4815 136.475 66.4513C136.574 66.4968 136.607 66.7687 136.508 66.8292L136.194 66.8595C135.237 66.9501 135.204 67.1765 135.204 68.7628V70.5001C135.204 70.9682 135.237 70.9834 136.029 70.9834H140.75C141.542 70.9834 141.575 70.968 141.575 70.5001V68.7628C141.575 67.1765 141.542 66.9501 140.569 66.8595L140.255 66.8292C140.156 66.7687 140.189 66.4966 140.288 66.4513C141.047 66.4815 141.608 66.4968 142.285 66.4968C142.929 66.4968 143.49 66.4815 144.232 66.4513C144.332 66.4968 144.365 66.7687 144.265 66.8292L143.919 66.8595C142.962 66.9501 142.928 67.1765 142.928 68.7628V74.2013C142.928 75.7874 142.962 75.9839 143.919 76.0896L144.315 76.1347C144.414 76.1951 144.381 76.4668 144.282 76.5123C143.49 76.482 142.928 76.4666 142.285 76.4666C141.608 76.4666 141.014 76.482 140.287 76.5123C140.188 76.4666 140.155 76.2252 140.255 76.1347L140.568 76.0896C141.575 75.9384 141.575 75.7872 141.575 74.2013V72.071C141.575 71.6178 141.542 71.5876 140.75 71.5876H136.029ZM71.133 79.8318C72.4897 78.7923 74.2181 78.2817 76.1511 78.2817C77.1545 78.2817 78.5669 78.4823 79.4407 78.7196C79.6637 78.7743 79.7938 78.8108 79.961 78.7923C79.9795 79.212 80.0725 80.3606 80.2211 81.4734C80.1283 81.601 79.8495 81.6195 79.7195 81.5103C79.4407 80.2698 78.6044 78.8471 75.9095 78.8471C73.066 78.8471 70.6499 80.6165 70.6499 84.3919C70.6499 88.222 73.1217 90.3381 76.1696 90.3381C78.5669 90.3381 79.6265 88.8057 80.0538 87.7296C80.1841 87.6389 80.4631 87.6749 80.5369 87.8028C80.4071 88.7512 79.9236 89.9548 79.6448 90.3015C79.4218 90.3381 79.1988 90.4109 78.9944 90.4836C78.5854 90.6301 77.2475 90.9035 76.0579 90.9035C74.3852 90.9035 72.787 90.5752 71.4303 89.6813C69.9434 88.6781 68.791 87.0189 68.791 84.6659C68.791 82.6407 69.7206 80.9081 71.133 79.8318ZM81.2973 85.7315C81.2973 82.7101 83.7132 80.3989 87.0313 80.3989C90.7516 80.3989 92.6198 82.9216 92.6198 85.5805C92.6198 88.6324 90.1395 90.8528 87.0313 90.8528C83.4558 90.8528 81.2973 88.4505 81.2973 85.7315ZM91.0089 86.0489C91.0089 83.5561 89.8335 80.8671 86.7571 80.8671C85.0819 80.8671 82.9078 81.9397 82.9078 85.2484C82.9078 87.484 84.0672 90.3847 87.24 90.3847C89.1731 90.3847 91.0089 89.025 91.0089 86.0489ZM110.79 84.4325C110.79 83.4959 110.758 81.7582 110.481 81.3054C110.367 81.1238 110.075 81.0181 109.669 80.9878L109.262 80.9577C109.165 80.8519 109.197 80.6557 109.294 80.5948C109.912 80.6249 110.514 80.6405 111.148 80.6405C111.831 80.6405 112.27 80.6251 112.855 80.5954C112.986 80.6708 112.969 80.8669 112.888 80.9577L112.497 80.9878C112.091 81.0179 111.782 81.1542 111.685 81.3507C111.457 81.849 111.457 83.5865 111.457 84.4325V86.1395C111.457 87.4541 111.229 88.8436 110.319 89.7499C109.62 90.4601 108.416 90.8528 107.213 90.8528C106.091 90.8528 104.969 90.6564 104.173 90.022C103.311 89.3575 102.904 88.2546 102.904 86.457V82.8915C102.904 81.3205 102.872 81.0636 101.929 80.988L101.522 80.9579C101.425 80.8974 101.457 80.6409 101.554 80.595C102.368 80.6251 102.92 80.6407 103.571 80.6407C104.237 80.6407 104.774 80.6253 105.571 80.5956C105.668 80.6409 105.701 80.8974 105.603 80.9579L105.213 80.988C104.27 81.0636 104.237 81.3205 104.237 82.8915V86.1548C104.237 88.5869 105.05 90.1886 107.538 90.1886C109.896 90.1886 110.79 88.466 110.79 86.1704V84.4325H110.79ZM129.689 82.5454C129.689 81.416 129.617 81.1261 128.809 81.0652L128.233 81.0101C128.168 80.9519 128.133 80.6462 128.251 80.6376C129.222 80.5661 130.444 80.5159 132.115 80.5159C133.247 80.5159 134.325 80.5921 135.134 80.9427C135.907 81.2634 136.5 81.8738 136.5 82.8505C136.5 83.9487 135.745 84.5136 134.667 84.9408C134.667 85.0935 134.81 85.1392 135.008 85.1697C135.979 85.3221 137.417 86.0854 137.417 87.7178C137.417 89.4876 135.871 90.6777 132.636 90.6777C132.115 90.6777 131.234 90.632 130.48 90.632C129.689 90.632 129.078 90.6621 128.413 90.6777C128.305 90.632 128.269 90.3879 128.377 90.2968L128.7 90.2507C129.653 90.1134 129.689 89.9454 129.689 88.3435V82.5454H129.689ZM131.163 84.5743C131.163 85.0019 131.181 85.0322 132.097 85.0019C133.93 84.9408 134.918 84.4833 134.918 83.0488C134.918 81.5533 133.607 80.9886 132.241 80.9886C131.845 80.9886 131.576 81.0191 131.414 81.0804C131.234 81.1261 131.163 81.2023 131.163 81.4771L131.163 84.5743ZM131.163 88.1146C131.163 88.664 131.199 89.4419 131.54 89.7778C131.882 90.1287 132.421 90.205 132.959 90.205C134.559 90.205 135.781 89.5946 135.781 88.0687C135.781 86.8631 135.062 85.46 132.205 85.46C131.234 85.46 131.163 85.551 131.163 85.8567L131.163 88.1146ZM100.403 76.1351L99.977 76.0988C99.8983 76.0905 99.8198 76.0801 99.7417 76.0675C99.1188 75.9587 98.8694 75.4126 98.5758 74.9055L97.1037 72.3804C96.8492 71.9593 96.5767 71.393 95.9948 71.3123C97.5035 71.134 98.8673 70.2763 98.8673 68.8033C98.8673 67.1033 97.1582 66.3428 95.4312 66.3428C94.3951 66.3428 93.4506 66.3704 92.3962 66.3704C91.8147 66.3704 91.1227 66.3428 90.5412 66.3428C90.2182 66.3428 90.2142 66.4075 90.2142 66.5856C90.2142 66.8484 90.3267 66.7749 90.669 66.7939C91.8973 66.862 91.8503 67.0875 91.8503 68.1235V74.7442C91.8503 75.6919 91.9335 75.9746 90.9234 76.0638C90.9234 76.0638 90.7686 76.0793 90.6808 76.0886L90.2529 76.1318C90.1505 76.2222 90.1851 76.4639 90.287 76.5092C90.5146 76.501 90.918 76.4854 90.918 76.4854C91.4772 76.469 92.0363 76.427 92.5953 76.427C93.1576 76.427 93.6956 76.4697 94.2486 76.4856V76.4861C94.4448 76.492 94.652 76.4988 94.8792 76.507C94.9816 76.4617 95.0157 76.2199 94.9133 76.1295L94.4827 76.0894C94.4031 76.0814 94.3235 76.0739 94.2439 76.0668C93.224 75.9988 93.2864 75.7154 93.2864 74.744V72.2509C93.2864 72.1052 93.2677 71.7169 93.3771 71.6034C93.4683 71.5059 93.6316 71.5223 93.777 71.5223C95.159 71.5223 95.1403 71.652 95.7948 72.785L97.5761 75.9414C97.7216 76.1847 97.8306 76.4918 98.1947 76.4918H99.7421C99.9373 76.4979 100.142 76.5045 100.369 76.5127C100.471 76.4672 100.505 76.2254 100.403 76.1351ZM94.1973 71.1709C93.8881 71.1709 93.27 71.2842 93.27 70.8799V67.9821C93.27 66.849 93.3066 66.6872 94.688 66.6872C96.3056 66.6872 97.3057 67.4963 97.3057 68.9855C97.3057 69.633 97.0691 70.2319 96.4693 70.6367C95.7786 71.1063 95.033 71.1709 94.1973 71.1709ZM94.5307 82.9429C94.5307 81.3568 94.497 81.1146 93.4343 81.0392L93.0122 81.0093C92.9111 80.9487 92.9448 80.6772 93.0459 80.6313C93.9911 80.6616 94.5645 80.6768 95.2394 80.6768C95.8976 80.6768 96.471 80.6618 97.315 80.6319C97.4161 80.6772 97.4498 80.9487 97.3487 81.0093L96.9437 81.0392C95.9486 81.1146 95.9145 81.3568 95.9145 82.9429V88.2003C95.9145 89.152 95.9652 89.5448 96.2688 89.8317C96.4546 89.9976 96.7752 90.1792 98.1079 90.1792C99.5424 90.1792 99.8967 90.1185 100.167 89.9829C100.504 89.8011 100.943 89.2577 101.28 88.4869C101.382 88.4119 101.702 88.4718 101.702 88.5775C101.702 88.7439 101.229 90.2849 100.993 90.6924C100.133 90.6623 98.5296 90.6469 96.7918 90.6469H95.2396C94.531 90.6469 93.9913 90.6621 93.0461 90.6924C92.945 90.6469 92.9113 90.4054 93.0124 90.3148L93.5188 90.2695C94.4973 90.1789 94.531 89.9671 94.531 88.3812V82.9429H94.5307ZM139.732 82.9728C139.732 81.3718 139.699 81.1146 138.722 81.039L138.307 81.0091C138.208 80.9485 138.241 80.677 138.341 80.6311C139.169 80.6614 139.732 80.6766 140.428 80.6766C141.091 80.6766 141.654 80.6616 142.482 80.6317C142.582 80.677 142.615 80.9485 142.515 81.0091L142.101 81.039C141.124 81.1144 141.091 81.3716 141.091 82.9728V88.3513C141.091 89.9525 141.124 90.164 142.101 90.2697L142.515 90.315C142.615 90.3754 142.581 90.6471 142.482 90.6926C141.654 90.6625 141.091 90.6471 140.428 90.6471C139.732 90.6471 139.169 90.6623 138.341 90.6926C138.241 90.6471 138.208 90.4056 138.307 90.315L138.722 90.2697C139.699 90.1638 139.732 89.9525 139.732 88.3513V82.9728ZM126.494 90.2662C126.413 90.2583 126.332 90.2512 126.25 90.2449C126.076 90.2275 125.919 90.2029 125.795 90.0697C125.58 89.8448 125.598 89.2039 125.598 88.9473V82.3276C125.598 82.0389 125.526 81.414 125.741 81.1892C125.849 81.071 126.072 81.0511 126.272 81.0398V81.039C126.393 81.03 126.396 81.0296 126.501 81.0247L126.927 80.9948C127.029 80.9341 126.995 80.6624 126.893 80.6169C126.666 80.6247 126.459 80.6216 126.262 80.6278V80.6286H124.452C124.255 80.6286 124.076 80.6286 123.969 80.8372L120.281 88.4025L117.023 81.0937C116.916 80.8372 116.898 80.6286 116.558 80.6286H114.674C114.478 80.6227 114.261 80.6247 114.033 80.6169C113.932 80.6624 113.897 80.9341 113.999 80.9948L114.425 81.0247C114.513 81.0314 114.672 81.0423 114.672 81.0423C115.378 81.087 115.422 81.2425 115.358 81.975L114.803 89.0752C114.755 89.788 114.715 90.1648 113.957 90.2343C113.957 90.2343 113.797 90.2541 113.709 90.2634L113.283 90.3088C113.181 90.399 113.215 90.6408 113.317 90.6861C113.542 90.6779 113.941 90.6664 113.941 90.6664C114.325 90.6477 114.716 90.6141 115.108 90.6141C115.53 90.6141 115.953 90.6533 116.376 90.6699V90.6707C116.572 90.6766 116.779 90.6834 117.007 90.6914C117.109 90.6461 117.143 90.4045 117.041 90.314L116.616 90.2685C116.503 90.2599 116.378 90.2476 116.378 90.2476C115.283 90.1738 115.308 89.4131 115.376 88.4824L115.895 81.8789H116.021L119.548 90.0048C119.583 90.1171 119.637 90.3093 119.816 90.3093C119.977 90.3093 120.031 90.1335 120.084 90.0206L124.059 81.6857H124.184V88.9467C124.184 89.235 124.22 89.8284 123.916 90.0523C123.757 90.1689 123.24 90.239 123.24 90.239C123.163 90.251 123.086 90.261 123.009 90.2689L122.583 90.3142C122.481 90.4045 122.515 90.6463 122.617 90.6918C122.842 90.6838 123.24 90.6715 123.24 90.6715C123.816 90.6557 124.403 90.6135 124.99 90.6135C125.411 90.6135 126.237 90.6529 126.237 90.6529C126.434 90.6588 126.658 90.6801 126.886 90.6881C126.988 90.6426 127.022 90.4013 126.92 90.3107L126.494 90.2662ZM154.159 90.3072L154.102 90.2619C154.024 90.254 153.947 90.2438 153.87 90.2314C153.207 90.0855 152.948 89.2987 152.703 88.7381L149.29 80.7813C149.256 80.6858 149.188 80.4799 149.053 80.4799C148.866 80.4799 148.816 80.7018 148.765 80.8282L145.504 88.7699C145.385 89.0711 145.082 89.8007 144.862 90.022C144.693 90.1919 144.474 90.2242 144.24 90.2482C144.24 90.2482 144.056 90.2654 143.968 90.2748L143.567 90.315C143.465 90.4054 143.5 90.6471 143.601 90.6926L144.232 90.6703C144.679 90.6643 145.125 90.6086 145.571 90.6086C145.947 90.6086 146.323 90.6479 146.698 90.6643C146.698 90.6643 147.101 90.6785 147.329 90.6869C147.431 90.6412 147.465 90.3996 147.363 90.3091L146.937 90.2636C146.853 90.255 146.706 90.2414 146.706 90.2414C146.314 90.1986 145.825 90.1296 145.825 89.7046C145.825 89.4194 145.96 89.0864 146.062 88.8328L146.568 87.6444C146.822 87.074 146.721 87.01 147.396 87.01H149.695C150.506 87.01 150.388 87.01 150.743 87.819L151.284 89.0229C151.368 89.2295 151.52 89.578 151.52 89.8005C151.52 90.1984 151.078 90.2246 150.666 90.2591C150.666 90.2591 150.529 90.2705 150.41 90.2796L150.001 90.3088C149.899 90.3992 149.933 90.641 150.035 90.6865C150.262 90.6785 150.666 90.6623 150.666 90.6623C151.147 90.6451 151.631 90.6084 152.095 90.6084C152.687 90.6084 153.279 90.648 153.87 90.6645V90.6639C154.065 90.6697 153.9 90.6766 154.125 90.6846C154.227 90.6393 154.261 90.3976 154.159 90.3072ZM149.687 86.5679H147.695C147.626 86.5679 147.071 86.632 147.071 86.472C147.071 86.4238 147.106 86.3278 147.123 86.2798L148.319 83.3646C148.353 83.2842 148.475 82.8837 148.613 82.8837C148.717 82.8837 148.856 83.3002 148.89 83.3646L150.068 86.0872C150.068 86.1194 150.189 86.3755 150.189 86.4398C150.189 86.6162 149.791 86.5679 149.687 86.5679Z" fill="#696969"/>
</g>
<defs>
<radialGradient id="paint0_radial_836_79" cx="0" cy="0" r="1" gradientUnits="userSpaceOnUse" gradientTransform="translate(35.6683 84.2309) scale(27.9712 27.5474)">
<stop stop-color="#E6E6E6"/>
<stop offset="0.126" stop-color="#E6E6E6"/>
<stop offset="0.237" stop-color="#E6E6E6"/>
<stop offset="0.342" stop-color="#E6E6E6"/>
<stop offset="0.443" stop-color="#E6E6E6"/>
<stop offset="0.541" stop-color="#E6E6E6"/>
<stop offset="0.6" stop-color="#E6E6E6"/>
<stop offset="0.616" stop-color="#E6E6E6"/>
<stop offset="0.663" stop-color="#E6E6E6"/>
<stop offset="0.713" stop-color="#E6E6E6"/>
<stop offset="0.767" stop-color="#E6E6E6"/>
<stop offset="0.827" stop-color="#E6E6E6"/>
<stop offset="0.897" stop-color="#E6E6E6"/>
<stop offset="1" stop-color="#E6E6E6"/>
</radialGradient>
<radialGradient id="paint1_radial_836_79" cx="0" cy="0" r="1" gradientUnits="userSpaceOnUse" gradientTransform="translate(35.7508 85.7516) scale(26.2116 28.2279)">
<stop offset="0.53" stop-color="#A1A1A1"/>
<stop offset="0.598" stop-color="#A1A1A1"/>
<stop offset="0.74" stop-color="#A1A1A1"/>
<stop offset="0.77" stop-color="#A1A1A1"/>
<stop offset="0.804" stop-color="#A1A1A1"/>
<stop offset="0.871" stop-color="#A1A1A1"/>
<stop offset="0.88" stop-color="#A1A1A1"/>
<stop offset="0.91" stop-color="#A1A1A1"/>
<stop offset="0.966" stop-color="#A1A1A1"/>
<stop offset="1" stop-color="#A1A1A1"/>
</radialGradient>
<radialGradient id="paint2_radial_836_79" cx="0" cy="0" r="1" gradientUnits="userSpaceOnUse" gradientTransform="translate(35.7507 85.7514) rotate(-21.6993) scale(26.1921 28.3268)">
<stop offset="0.53" stop-color="#A1A1A1"/>
<stop offset="0.598" stop-color="#A1A1A1"/>
<stop offset="0.74" stop-color="#A1A1A1"/>
<stop offset="0.77" stop-color="#A1A1A1"/>
<stop offset="0.804" stop-color="#A1A1A1"/>
<stop offset="0.871" stop-color="#A1A1A1"/>
<stop offset="0.88" stop-color="#A1A1A1"/>
<stop offset="0.91" stop-color="#A1A1A1"/>
<stop offset="0.966" stop-color="#A1A1A1"/>
<stop offset="1" stop-color="#A1A1A1"/>
</radialGradient>
<radialGradient id="paint3_radial_836_79" cx="0" cy="0" r="1" gradientUnits="userSpaceOnUse" gradientTransform="translate(35.7502 85.752) rotate(-43.5617) scale(26.0596 28.4798)">
<stop offset="0.53" stop-color="#A1A1A1"/>
<stop offset="0.598" stop-color="#A1A1A1"/>
<stop offset="0.74" stop-color="#A1A1A1"/>
<stop offset="0.77" stop-color="#A1A1A1"/>
<stop offset="0.804" stop-color="#A1A1A1"/>
<stop offset="0.871" stop-color="#A1A1A1"/>
<stop offset="0.88" stop-color="#A1A1A1"/>
<stop offset="0.91" stop-color="#A1A1A1"/>
<stop offset="0.966" stop-color="#A1A1A1"/>
<stop offset="1" stop-color="#A1A1A1"/>
</radialGradient>
<radialGradient id="paint4_radial_836_79" cx="0" cy="0" r="1" gradientUnits="userSpaceOnUse" gradientTransform="translate(35.7505 85.7527) scale(28.6846 28.25)">
<stop offset="0.53" stop-color="#A1A1A1"/>
<stop offset="0.598" stop-color="#A1A1A1"/>
<stop offset="0.74" stop-color="#A1A1A1"/>
<stop offset="0.77" stop-color="#A1A1A1"/>
<stop offset="0.804" stop-color="#A1A1A1"/>
<stop offset="0.871" stop-color="#A1A1A1"/>
<stop offset="0.88" stop-color="#A1A1A1"/>
<stop offset="0.91" stop-color="#A1A1A1"/>
<stop offset="0.966" stop-color="#A1A1A1"/>
<stop offset="1" stop-color="#A1A1A1"/>
</radialGradient>
<radialGradient id="paint5_radial_836_79" cx="0" cy="0" r="1" gradientUnits="userSpaceOnUse" gradientTransform="translate(35.7514 85.752) rotate(21.6993) scale(26.1708 28.3038)">
<stop offset="0.53" stop-color="#A1A1A1"/>
<stop offset="0.598" stop-color="#A1A1A1"/>
<stop offset="0.74" stop-color="#A1A1A1"/>
<stop offset="0.77" stop-color="#A1A1A1"/>
<stop offset="0.804" stop-color="#A1A1A1"/>
<stop offset="0.871" stop-color="#A1A1A1"/>
<stop offset="0.88" stop-color="#A1A1A1"/>
<stop offset="0.91" stop-color="#A1A1A1"/>
<stop offset="0.966" stop-color="#A1A1A1"/>
<stop offset="1" stop-color="#A1A1A1"/>
</radialGradient>
<radialGradient id="paint6_radial_836_79" cx="0" cy="0" r="1" gradientUnits="userSpaceOnUse" gradientTransform="translate(35.7506 85.7521) rotate(43.5617) scale(25.9752 28.3875)">
<stop offset="0.53" stop-color="#A1A1A1"/>
<stop offset="0.598" stop-color="#A1A1A1"/>
<stop offset="0.74" stop-color="#A1A1A1"/>
<stop offset="0.77" stop-color="#A1A1A1"/>
<stop offset="0.804" stop-color="#A1A1A1"/>
<stop offset="0.871" stop-color="#A1A1A1"/>
<stop offset="0.88" stop-color="#A1A1A1"/>
<stop offset="0.91" stop-color="#A1A1A1"/>
<stop offset="0.966" stop-color="#A1A1A1"/>
<stop offset="1" stop-color="#A1A1A1"/>
</radialGradient>
<radialGradient id="paint7_radial_836_79" cx="0" cy="0" r="1" gradientUnits="userSpaceOnUse" gradientTransform="translate(35.7512 85.7523) rotate(65.6758) scale(25.8018 28.5023)">
<stop offset="0.53" stop-color="#A1A1A1"/>
<stop offset="0.598" stop-color="#A1A1A1"/>
<stop offset="0.74" stop-color="#A1A1A1"/>
<stop offset="0.77" stop-color="#A1A1A1"/>
<stop offset="0.804" stop-color="#A1A1A1"/>
<stop offset="0.871" stop-color="#A1A1A1"/>
<stop offset="0.88" stop-color="#A1A1A1"/>
<stop offset="0.91" stop-color="#A1A1A1"/>
<stop offset="0.966" stop-color="#A1A1A1"/>
<stop offset="1" stop-color="#A1A1A1"/>
</radialGradient>
<radialGradient id="paint8_radial_836_79" cx="0" cy="0" r="1" gradientUnits="userSpaceOnUse" gradientTransform="translate(35.6935 85.7618) scale(28.6676 28.2332)">
<stop offset="0.72" stop-color="#C8C8C8"/>
<stop offset="0.809" stop-color="#C8C8C8"/>
<stop offset="0.986" stop-color="#C8C8C8"/>
<stop offset="1" stop-color="#C8C8C8"/>
</radialGradient>
<clipPath id="clip0_836_79">
<rect width="160" height="160" fill="white"/>
</clipPath>
</defs>
</svg>
