<svg width="160" height="160" viewBox="0 0 160 160" fill="none" xmlns="http://www.w3.org/2000/svg">
<g clip-path="url(#clip0_836_78)">
<path fill-rule="evenodd" clip-rule="evenodd" d="M115.583 67.8771C114.847 68.3188 114.307 68.9323 113.742 69.5458C112.785 70.1102 111.755 71.6562 110.429 71.8771C109.153 72.0979 108.221 71.509 107.166 71.19C107.141 71.509 107.337 71.6317 107.411 71.8771C107.509 72.1225 107.705 72.2697 107.902 72.4415C108.123 72.7114 108.368 72.9568 108.761 73.055C109.301 73.2022 108.932 73.8648 108.81 74.3556C108.638 75.0427 108.564 75.5826 108.761 76.1961C109.423 78.5274 110.945 80.8832 111.583 83.1409C111.705 83.6071 111.951 83.9752 112.393 84.1225C113.202 84.7851 114.994 84.466 116.074 84.8587C116.393 85.3249 115.975 85.9384 115.951 86.2084C116.417 86.2574 116.638 86.0366 116.932 85.8894C117.227 85.8157 117.251 85.5213 117.546 85.4476C117.865 85.8157 118.208 86.1593 118.601 86.5029C118.945 86.9691 119.313 87.4354 119.411 88.1716V88.9814C119.386 89.3986 119.239 89.693 119.043 89.963C118.209 91.0427 117.251 91.9998 116.27 92.9078C117.178 92.8587 119.19 93.374 119.46 92.466C119.779 92.0243 120.147 91.5826 120.515 91.1654C120.81 90.8955 121.129 90.6746 121.251 90.2329C121.35 90.1102 121.423 89.9384 121.57 89.8648C121.865 89.5949 122.184 89.374 122.307 88.9323C122.528 88.7114 122.626 88.3924 122.92 88.2452C124.319 88.417 125.963 89.5949 125.08 91.0673C124.81 91.3372 124.54 91.5826 124.27 91.8771C123.877 92.2206 123.46 92.4906 122.969 92.736C122.969 92.6624 123.067 92.6378 122.969 92.6133C122.945 92.736 122.724 92.6624 122.797 92.8587C123.656 92.8587 125.399 93.2022 125.865 92.6133C129.227 90.1838 133.227 87.4844 136.81 84.9814C137.301 84.6378 138.012 83.9262 138.405 83.8771C139.313 83.7544 140.221 84.4415 140.982 84.6869C141.006 84.8096 141.423 85.0059 141.718 85.055C142.724 85.6194 143.509 86.4047 143.804 87.7053C143.656 87.9998 143.779 88.5397 143.73 88.9323C143.558 90.1348 143.166 91.1163 142.675 91.9998C142.552 92.0489 142.307 92.5397 142.233 92.8587C142.871 92.9323 144.074 93.0305 144.638 92.8096C144.638 92.736 144.638 92.6378 144.564 92.6133C145.08 90.2084 145.521 87.7053 146.159 85.4231C147.779 85.7912 149.153 86.3802 149.472 87.9998V88.9323C149.399 89.6685 149.178 90.2575 148.859 90.7728C148.712 90.8709 148.442 91.3863 148.368 91.7544C148.27 92.0243 148.098 92.2697 147.926 92.4906H147.853C147.804 92.6378 147.607 92.6624 147.681 92.9323C148.466 92.8832 149.399 93.0059 150.086 92.8832V92.7114C150.552 91.1163 150.994 89.5213 151.386 87.8525C151.705 87.5581 151.313 87.0673 151.067 86.92C151.018 86.8955 150.994 86.871 150.994 86.7973C150.945 86.5029 150.724 86.0857 150.626 86.0611C150.258 85.3495 149.963 84.5642 149.889 83.5335C149.84 83.0673 149.963 82.4292 149.84 82.0611C149.865 81.5949 149.84 81.0795 150.086 80.8341C150.159 80.8587 150.233 80.9078 150.258 80.9568C150.65 81.3986 151.043 81.7912 151.485 82.1838C151.755 82.3311 152.024 83.1409 152.221 82.9937C151.926 80.8587 151.215 79.1409 150.135 77.7667C150.135 77.693 150.061 77.693 150.086 77.5703C149.84 77.2759 149.57 77.0059 149.276 76.7605C149.202 76.7605 149.153 76.736 149.08 76.7114C148.638 76.3433 148.147 76.0489 147.656 75.7298C147.386 75.4599 147.018 75.2636 146.552 75.1654C142.282 73.5213 136.883 73.0059 133.08 70.8709C133.178 70.8219 132.343 70.3801 132.515 70.6255C131.509 70.1347 130.577 69.5703 129.693 68.9568C129.472 68.7114 129.227 68.4906 128.834 68.3924C128.442 68.1716 128.074 67.9262 127.73 67.6562C127.509 67.4108 127.264 67.19 126.871 67.0918C126.282 66.7482 125.669 66.4047 125.08 66.0366C124.81 65.7667 124.442 65.5703 123.975 65.4967C123.436 65.3004 122.871 65.1286 122.258 65.0059C122.159 64.7851 120.736 64.8832 121.153 64.9323V65.0059C118.626 65.2513 117.178 66.6256 115.583 67.8771ZM113.374 80.3433H112.761C112.687 80.3433 112.662 80.3188 112.638 80.2943C112.368 80.0489 112.196 79.7053 112.27 79.1163V78.9936C113.227 77.7176 114.871 79.828 113.374 80.3433Z" fill="#383838"/>
<path fill-rule="evenodd" clip-rule="evenodd" d="M23.8036 90.061C23.8527 90.3555 23.9017 90.1347 23.9754 90.5027Z" fill="#696969"/>
<path fill-rule="evenodd" clip-rule="evenodd" d="M23.4846 89.374C23.411 89.374 23.3129 89.374 23.3129 89.4231C23.3619 89.4231 23.3865 89.5213 23.3129 89.5458C23.3129 89.7176 23.4356 89.7912 23.4356 89.9875C23.4846 89.9875 23.5092 90.0366 23.5583 90.0611C23.5583 89.9875 23.5092 89.9875 23.5092 89.9384C23.5583 89.7421 23.5092 89.693 23.5583 89.6194" fill="#696969"/>
<path fill-rule="evenodd" clip-rule="evenodd" d="M21.6441 87.3618C21.546 87.3373 21.6441 87.2882 21.6932 87.3127C21.6932 87.2391 21.6687 87.2146 21.6441 87.19C21.7178 87.0673 21.8895 87.0673 21.9632 86.9446C21.9386 86.871 21.865 86.9446 21.8405 87.0183H21.7914C21.5705 87.0183 21.5214 87.19 21.3006 87.19C21.4724 87.0183 21.7423 86.9692 21.9141 86.8219H21.9632C22.1349 86.5029 22.6503 86.5029 22.5276 85.8894C22.3067 86.8465 21.3497 87.0428 20.4908 87.3618V73.4722H18.1349C17.6687 73.4232 17.2515 73.3986 16.8834 73.4722C16.7852 73.4968 16.6871 73.4968 16.6135 73.5213C16.6871 73.4968 16.7852 73.4722 16.8834 73.4722H16.4417C15.6073 75.3127 14.5766 77.2268 13.6687 78.9937C13.3497 79.6318 13.1533 80.417 12.6871 80.7115C12.6625 80.6624 12.6135 80.6134 12.6135 80.5397C12.1963 79.779 11.8773 78.8956 11.3865 78.2084C11.3619 78.1594 11.3128 78.1103 11.3374 78.0121C10.9202 77.2514 10.6012 76.368 10.1104 75.6808C10.0859 75.6318 10.0368 75.5827 10.0368 75.4845C9.69321 74.8219 9.37419 74.0857 8.98156 73.4477H5.05518V92.8833H9.34965C9.49689 89.8158 9.37419 86.4784 9.39873 83.2882C10.0613 84.3434 10.5521 85.5704 11.2392 86.6011V86.6747C11.5828 87.3127 11.8773 87.9999 12.2944 88.5888V88.6379C12.4662 88.8588 12.4908 89.2023 12.7116 89.3495V89.3741C12.7607 89.3986 12.7852 89.4232 12.8343 89.4477C13.0306 88.8833 13.3251 88.417 13.5705 87.9017C13.546 87.8035 13.6196 87.8035 13.6441 87.7054C14.5521 86.2575 15.2883 84.2943 16.1717 83.0428V92.8833H20.4662C20.2944 90.2575 21.2515 88.7851 22.6257 87.7299C22.6257 87.8035 22.6257 87.9017 22.6748 87.9262C22.7239 87.7054 22.6257 87.6072 22.503 87.7299C22.5276 87.6563 22.5766 87.6072 22.6748 87.6072C22.773 88.0489 22.8711 88.4661 22.9938 88.9078C23.0674 89.006 23.0429 89.2268 23.1656 89.2759" fill="#696969"/>
<path fill-rule="evenodd" clip-rule="evenodd" d="M22.9938 87.5338C22.9202 87.4847 22.9202 87.3865 22.822 87.4111C22.8957 87.4847 22.8466 87.5092 22.822 87.5828C22.7484 87.7546 22.7484 87.4847 22.822 87.4601C22.773 87.5092 22.5276 87.6074 22.5766 87.3865C22.5521 87.3129 22.503 87.2638 22.4049 87.2638C22.503 87.1657 22.6012 87.1411 22.3558 87.1411C22.3312 87.2884 22.2822 87.411 22.1595 87.4601C22.2085 87.5583 22.2576 87.4356 22.4049 87.5092C22.4294 87.6319 22.3558 87.681 22.3558 87.7546C22.2576 87.7055 22.3558 87.6319 22.3558 87.5583C22.2331 87.5337 22.184 87.6074 22.1104 87.6319C22.0858 87.9264 22.0122 87.5828 22.0613 87.4601" fill="#696969"/>
<path fill-rule="evenodd" clip-rule="evenodd" d="M36.7606 87.1162C36.7361 87.1408 36.687 87.1653 36.6625 87.1898C36.7116 87.1653 36.7606 87.1653 36.7606 87.1162Z" fill="#696969"/>
<path fill-rule="evenodd" clip-rule="evenodd" d="M22.0122 87.4845C21.9877 87.6072 22.0613 87.9753 22.0613 87.6563C22.1349 87.6318 22.184 87.5582 22.3067 87.6072C22.3067 87.6809 22.2085 87.7545 22.3067 87.779C22.3312 87.7054 22.4048 87.6563 22.3558 87.5336C22.2085 87.46 22.1594 87.5582 22.1104 87.4845C22.2331 87.4355 22.2822 87.3128 22.2822 87.1655C22.5521 87.1655 22.4294 87.1901 22.3312 87.2882C22.4294 87.2882 22.4785 87.3373 22.5275 87.4109C22.4785 87.6318 22.7239 87.5091 22.7729 87.46C22.6993 87.4845 22.6993 87.7545 22.7729 87.5827C22.7975 87.4845 22.8466 87.4845 22.7729 87.4109C22.8956 87.3864 22.8956 87.4845 22.9447 87.5336" fill="#696969"/>
<path d="M102.994 78.8709C101.521 78.7728 99.6073 78.7728 98.1349 78.8709C98.0613 78.8709 98.0367 78.8955 98.0122 78.92C97.3987 78.8955 96.957 79.0182 96.5398 79.1654C94.2576 79.6562 92.4662 81.4476 91.9263 83.7053C91.9263 83.9752 91.7545 84.0734 91.8036 84.3924C91.7545 84.3924 91.7545 84.466 91.73 84.5151C91.6809 84.8096 90.9447 86.1102 90.7975 85.9384C90.6502 85.7176 90.9692 85.374 90.7484 84.8832C90.7484 84.8341 90.7238 84.8341 90.6993 84.8341C90.7484 84.3679 90.6011 84.1225 90.503 83.7789C90.0613 81.5703 88.3926 79.7789 86.3557 79.1409C86.3557 79.1409 86.3803 79.1409 86.3803 79.1654C86.184 79.1163 85.9876 79.0427 85.8159 78.9936C85.4723 78.7482 84.9815 78.6746 84.3926 78.6746H84.2699C84.1717 78.5765 83.6809 78.5765 83.5827 78.6746H83.46C83.411 78.6746 83.3864 78.601 83.3373 78.601V73.4967C82.1103 73.3495 80.6134 73.4722 79.2883 73.4476V83.2145C79.2392 83.6562 79.1656 84.0488 78.9692 84.3188C79.0674 83.7544 78.7729 84.7114 78.6502 84.8587V84.9323C78.233 85.4476 77.7913 86.282 77.2269 86.4783V86.2329V86.1838C77.3251 86.0366 77.3251 85.4722 77.2269 85.3249C77.2269 85.2268 77.2269 85.1531 77.1533 85.1531C77.1533 84.4415 77.0306 83.8771 76.8343 83.3617C76.8588 83.1163 76.687 83.0427 76.7116 82.7973C76.2208 81.4476 75.2637 80.0488 74.1349 79.3617C74.0367 79.2881 73.6932 79.0672 73.6932 79.239C73.4232 79.1409 73.2514 78.9445 72.957 78.8709H72.9079C72.7361 78.6991 72.2944 78.5028 72.049 78.6255H71.8036H71.6809C71.6809 78.5764 71.6073 78.5765 71.5582 78.5765C71.5582 78.5274 71.4846 78.5274 71.4355 78.5274C71.3619 78.4292 70.8465 78.4292 70.7484 78.5274C70.6993 78.5028 70.6993 78.5519 70.6993 78.5765C70.5521 78.601 70.2576 78.5028 70.2085 78.6255H70.1349C69.7422 78.6255 69.5459 78.8219 69.276 78.9446H69.1533C69.1533 78.8709 69.2514 78.8955 69.276 78.8219C68.8343 78.8219 68.4907 79.2145 68.0981 79.4844C68.0735 79.509 68.049 79.509 68.0245 79.5335C67.9999 79.558 67.9754 79.558 67.9508 79.5826C67.9263 79.6071 67.9018 79.6071 67.8772 79.6317C67.6073 79.7544 67.2146 79.828 66.7975 79.8525C66.7729 79.8525 66.7729 79.8525 66.7484 79.8525C66.6748 79.8525 66.6257 79.8525 66.5521 79.8525C66.5766 79.8525 66.6257 79.8525 66.6502 79.8525C66.5521 79.8525 66.4294 79.8525 66.3312 79.8525C66.2085 79.8525 66.0613 79.8525 65.9386 79.8525C66.0367 79.8525 66.1349 79.8525 66.233 79.8525C65.2024 79.828 64.1226 79.6317 63.141 79.7053V73.5458C61.9386 73.3985 60.4662 73.5212 59.141 73.4967C58.9692 75.4353 59.1901 77.8157 59.0183 79.7789H57.6686C57.5214 80.2697 57.6441 81.0304 57.6195 81.6194H59.1656C59.2392 82.92 59.0919 83.9998 58.6748 84.8096V84.8832C58.1349 85.8648 57.2269 86.7482 56.2944 87.239C56.3189 87.239 56.3435 87.2145 56.3926 87.239C56.368 87.3126 56.2699 87.2881 56.2699 87.3617C56.1717 87.3372 56.1717 87.4108 56.0981 87.4353C55.9508 87.509 55.73 87.4844 55.6073 87.558V79.0182C54.5521 78.7728 52.8343 78.8955 51.6809 78.9691V83.4599C51.6564 83.558 51.7545 83.7789 51.6318 83.7789C51.6318 83.4353 51.3373 84.4415 51.2637 84.6378C50.6748 86.012 49.6686 87.0672 48.1226 87.4599C48.0735 85.8157 48.1962 84.0243 48.0735 82.4783C48.0735 82.4047 48.049 82.3801 47.9999 82.3556C47.9999 82.282 47.9754 82.2574 47.9508 82.2329V81.9139C47.9263 80.4906 46.8711 79.239 45.4968 79.1409C45.1778 79.1163 45.0306 78.9445 44.638 79.0182C44.638 78.9691 44.5643 78.9691 44.5153 78.9691C44.3435 78.8709 43.7545 78.8709 43.5827 78.9691C43.5091 78.9691 43.4846 78.9936 43.46 79.0182H43.2637C42.4294 78.9445 41.9631 79.239 41.4232 79.4599C41.4232 79.2636 41.4723 79.0182 41.3742 78.92C40.0981 78.9691 38.6748 78.8464 37.4968 78.9691C37.5214 79.3126 37.5459 79.6562 37.5459 79.9752V81.693C37.4478 83.6071 37.0306 85.2268 36.0981 86.2574C36.0245 86.3311 35.9263 86.4292 35.8527 86.5028C35.3619 86.9445 34.7484 87.2636 33.9876 87.4108C33.9386 84.6133 34.0613 81.6685 33.9386 78.9936C32.4907 78.8955 30.6011 78.8955 29.1533 78.9936C29.0797 78.9936 29.0551 79.0182 29.0306 79.0427C28.9324 79.0427 28.8588 79.0427 28.8343 79.1163H28.3926C25.4723 79.4599 23.5827 81.3495 22.7975 84.0243C22.6502 84.3433 22.6011 84.736 22.6257 85.2022C22.4784 85.3004 22.6011 85.6685 22.5766 85.8893V86.012C22.6993 86.6255 22.184 86.601 22.0122 86.9445H21.9631C21.7913 87.0918 21.5214 87.1409 21.3496 87.3126C21.5705 87.3126 21.6195 87.1409 21.8404 87.1409C21.8649 87.0673 21.9386 86.9936 21.9631 87.0918C21.8895 87.2145 21.7177 87.2145 21.6441 87.3372C21.6932 87.3617 21.7177 87.3863 21.6932 87.4599C21.6195 87.4599 21.5459 87.4844 21.6441 87.5335L22.9692 89.1777C22.9447 89.0795 22.8956 88.9814 22.8711 88.8832C22.7729 88.6378 22.6748 88.4169 22.6993 88.0734C22.7484 87.8525 22.6502 87.7544 22.5275 87.9016C22.5521 87.828 22.6011 87.7789 22.6993 87.7789C22.7975 88.2206 22.8956 88.6378 23.0183 89.0795C23.0674 89.1531 23.0919 89.2513 23.1165 89.3495L23.2146 89.4722C23.1656 89.4476 23.141 89.3985 23.1165 89.3495L22.9938 89.2022C23.5337 90.8709 24.4907 92.1225 26.0367 92.785H26.1594C26.6502 92.8096 26.822 93.1531 27.3864 93.1041C27.3864 93.1531 27.411 93.1531 27.46 93.1531C27.8772 93.2513 28.7116 93.2513 29.1287 93.1531H29.1778C29.9386 93.1777 30.4539 92.6378 30.8465 92.466V93.0795H33.914C34.0122 92.6378 34.0122 91.8034 33.914 91.3617C33.8404 91.0427 34.0858 91.0427 34.0367 90.7482C34.1594 90.6746 34.1349 90.4292 34.233 90.3065C34.7484 89.055 35.8281 88.0734 36.7116 87.3863C36.687 87.3863 36.638 87.4108 36.638 87.4353C36.638 87.3863 36.7116 87.3863 36.687 87.3126C36.8588 87.3372 36.8834 87.1654 37.0551 87.1899C37.276 87.239 37.3005 87.0918 37.4968 87.1409V93.1041C38.7975 93.055 40.2944 93.1777 41.4969 93.055C41.4478 92.1225 41.5705 90.9936 41.4232 90.1593V90.1102C41.5214 88.466 41.5214 86.4047 41.4232 84.7605C41.3987 84.5396 41.4478 84.4169 41.4969 84.2697C41.595 84.0734 41.6195 83.828 41.6195 83.5335V83.4844H41.6932C41.6932 83.509 41.6932 83.5335 41.6932 83.5335C42.0122 83.1654 42.0858 82.2084 42.8711 82.0611C44.5398 81.7421 44.2208 83.509 44.2208 85.0795C44.2208 87.5826 44.1717 91.3126 44.2699 93.1286C45.5459 93.0795 46.9692 93.2022 48.1472 93.0795C48.0981 92.5151 48.2208 91.7789 48.0981 91.2881C48.049 91.0672 48.1962 91.0182 48.1472 90.7973H48.2208C48.2453 90.8464 48.2208 90.92 48.2699 90.92C48.8097 89.0795 49.9631 87.828 51.7054 87.1654V93.1286C53.0061 93.0795 54.4539 93.2022 55.6318 93.0795V91.3617C55.6809 91.2881 55.7054 91.1899 55.7054 91.0427C55.7054 90.9445 55.6809 90.7973 55.7545 90.7973C55.7791 90.8464 55.7545 90.92 55.8281 90.92C56.2208 89.2022 57.3496 88.2206 58.6011 87.3617C58.6502 87.3372 58.6993 87.2881 58.7975 87.3126C59.6809 86.6746 58.9692 89.2022 59.2883 89.6439C59.2883 89.693 59.3128 89.693 59.3373 89.7176C59.3373 89.7912 59.3619 89.8157 59.3864 89.8403C59.3373 90.0611 59.4846 90.0857 59.46 90.282C59.3619 90.282 59.4355 90.1102 59.3373 90.0857C59.8036 92.0488 61.595 92.9814 63.6318 93.1531H63.9999C63.9999 93.2022 64.0245 93.2022 64.0735 93.2022V93.2758C64.5643 93.4231 64.7607 92.9077 64.9079 92.466C64.9324 92.3924 64.957 92.3188 64.9815 92.2452C63.8281 92.1961 63.3619 91.3126 63.2637 90.2084C63.2392 89.8403 63.2146 89.3985 63.2146 88.9568V88.9323C63.2146 88.4415 63.2146 87.9261 63.2146 87.4353C63.2146 87.3863 63.2146 87.3372 63.2146 87.2636C63.2146 87.3126 63.2146 87.3617 63.2146 87.4353C63.2392 85.4231 63.3619 83.2145 63.3373 81.8648H66.233C65.8404 82.7237 65.3251 83.4599 65.3005 84.6869C65.3005 84.9323 65.3005 85.1286 65.2514 85.3004C65.2024 85.3004 65.2024 85.374 65.1778 85.4231C65.0797 85.6685 65.0797 86.3311 65.1778 86.601C65.1778 86.6746 65.2024 86.6991 65.2514 86.7237C65.2514 87.0672 65.2514 87.4108 65.3741 87.6562V87.7053C65.3987 87.9752 65.4478 88.2206 65.5459 88.3924C65.6195 88.5642 65.6932 88.736 65.7177 88.9323C65.6441 88.9323 65.6686 88.8341 65.595 88.8096C66.2821 90.7482 67.4846 92.1715 69.3496 92.9323C69.595 92.9077 69.6686 93.0795 69.914 93.055C70.1103 93.1286 70.3067 93.2022 70.6011 93.1777C70.6011 93.2268 70.6257 93.2268 70.6748 93.2268C71.1165 93.3249 72.0245 93.3495 72.3435 93.1041C72.4416 93.1041 72.5889 93.1286 72.5889 93.0304C72.7606 92.9568 72.9324 92.8832 73.1533 92.8587C73.1533 92.9323 73.0551 92.9077 73.0306 92.9814C75.0429 92.2697 76.2699 90.7728 76.957 88.7605C76.957 88.7605 76.957 88.7605 76.9815 88.736C77.276 88.3679 77.6686 88.0979 78.0367 87.828C77.6686 88.0979 77.2515 88.3679 76.9815 88.736C77.7423 88.147 78.4048 87.4353 79.411 87.0918V88.6378C79.411 89.1286 79.4355 90.012 79.4846 89.1286H79.5337V89.374C79.5582 89.5949 79.4846 89.9139 79.6073 90.0611V90.3065C80.0245 91.8034 80.9815 92.736 82.503 93.1286H82.7484C82.822 93.1777 82.9202 93.2022 83.0674 93.1777H83.5582V93.2268C82.9447 93.2022 83.3619 93.3249 83.73 93.3004C84.6134 93.3249 85.4232 93.2758 86.0122 92.9814C86.1594 92.8832 86.4539 92.8832 86.5766 92.736H86.6502H86.7729C88.5889 91.9507 89.8404 90.6501 90.5275 88.736C90.5275 88.5396 90.6011 88.4415 90.6502 88.2942C90.9202 87.9261 91.3619 87.4599 91.8281 87.4844C91.8281 87.9016 91.9018 88.2206 92.0245 88.5396C92.0735 88.6133 92.0735 88.7605 92.1472 88.8587V88.9814C92.049 88.9814 92.1226 88.8096 92.0245 88.8096C92.2453 89.7421 92.8343 91.0427 93.6195 91.828C93.9876 92.1961 95.0429 93.1041 95.5337 92.9323C95.5091 92.9568 95.411 92.9077 95.411 92.8832H95.4846H95.5337C95.5827 93.0059 95.8527 92.9323 95.9018 93.055C95.8527 93.0795 95.7791 93.055 95.7791 93.1286C96.0735 93.1286 96.2208 93.3004 96.5889 93.2513H96.638C97.0551 93.3495 97.8895 93.3495 98.3067 93.2513H98.3803C99.141 93.2758 99.6564 92.736 100.049 92.5642V93.1777H103.116C103.067 88.3433 102.945 83.5335 102.994 78.8709ZM28.4662 90.0611C28.4662 90.0611 26.503 89.9875 26.503 86.2574C26.503 81.4476 29.276 81.7176 29.276 81.7176H30.0858C30.0858 81.7176 30.1594 86.5764 30.1594 88.1715C30.1349 89.7421 28.4662 90.0611 28.4662 90.0611ZM71.2392 90.1347C69.9876 90.1347 68.9815 88.147 68.9815 85.6685C68.9815 83.2145 69.9876 81.2022 71.2392 81.2022C72.4907 81.2022 73.4968 83.1899 73.4968 85.6685C73.5214 88.147 72.4907 90.1347 71.2392 90.1347ZM84.4171 90.0611C83.3373 90.0611 83.3619 88.8587 83.3619 88.8587V81.5703C83.3619 81.5703 82.822 81.4476 84.049 81.4476C85.276 81.4476 86.7975 83.3127 86.7975 85.9384C86.7975 88.5642 85.4968 90.0611 84.4171 90.0611ZM97.5705 90.0611C97.5705 90.0611 95.6073 89.9875 95.6073 86.2574C95.6073 81.4476 98.3803 81.7176 98.3803 81.7176H99.1901C99.1901 81.7176 99.2392 86.5764 99.2392 88.1715C99.2392 89.7421 97.5705 90.0611 97.5705 90.0611Z" fill="#696969"/>
<path fill-rule="evenodd" clip-rule="evenodd" d="M23.5583 89.6194C23.4846 89.6685 23.5337 89.7421 23.5092 89.9384C23.5092 89.9875 23.5583 89.9875 23.5583 90.0611C23.5092 90.0611 23.5092 89.9875 23.4356 89.9875C23.4356 89.8157 23.3129 89.7421 23.3129 89.5703C23.3865 89.5458 23.3865 89.4476 23.3129 89.4476C23.3129 89.374 23.4356 89.3986 23.5092 89.374" fill="#696969"/>
<path fill-rule="evenodd" clip-rule="evenodd" d="M23.9754 90.5027C23.9017 90.1347 23.8527 90.3801 23.8036 90.061Z" fill="#696969"/>
<path fill-rule="evenodd" clip-rule="evenodd" d="M91.8528 83.9018C91.8773 83.8281 91.9019 83.7791 91.9019 83.73H91.8528V83.9018Z" fill="#696969"/>
<path fill-rule="evenodd" clip-rule="evenodd" d="M22.8711 87.6562C22.9447 87.6562 22.9447 87.7544 22.8711 87.7789C22.7484 87.6808 22.8711 88.5888 23.0429 88.3924C23.1165 88.4415 23.0674 88.6133 23.2146 88.5642" fill="#696969"/>
<path fill-rule="evenodd" clip-rule="evenodd" d="M21.8404 87.9019C21.6441 87.9755 21.8159 88.0246 21.7177 88.2209H21.6686C21.595 88.2209 21.6441 88.2945 21.6686 88.2945C21.6195 88.4908 21.5459 88.2209 21.4968 88.2209C21.4232 88.2454 21.4478 88.3681 21.4232 88.4663C21.6686 88.4663 21.4478 88.5154 21.4968 88.6381C21.6441 88.4417 21.8404 88.2945 21.9876 88.0736C21.914 88.0246 21.8159 88.0246 21.8404 87.9019Z" fill="#696969"/>
<path fill-rule="evenodd" clip-rule="evenodd" d="M51.5828 75.8525C51.5828 75.9261 51.5828 76.0242 51.6319 76.0242C51.6073 76.2205 51.73 76.2696 51.7546 76.3923C51.4601 76.0733 51.7055 76.5886 51.8773 76.7604C52.0981 77.0058 52.5644 77.2512 52.8098 77.3248H53.0061H53.0797C53.0797 77.4475 53.3006 77.3494 53.3987 77.3739C55.8527 77.9629 56.8343 74.3801 54.6257 73.6193C54.3558 73.6193 54.2576 73.4475 53.9386 73.4966C53.7668 73.423 53.5705 73.423 53.3987 73.4966C52.319 73.5457 51.73 74.0856 51.5582 75.0426V75.0917C51.4601 75.1899 51.4601 75.6807 51.5582 75.7788C51.5337 75.8279 51.5337 75.877 51.5828 75.8525Z" fill="#696969"/>
</g>
<defs>
<clipPath id="clip0_836_78">
<rect width="160" height="160" fill="white"/>
</clipPath>
</defs>
</svg>
