<svg width="160" height="160" viewBox="0 0 160 160" fill="none" xmlns="http://www.w3.org/2000/svg">
<g clip-path="url(#clip0_836_77)">
<path fill-rule="evenodd" clip-rule="evenodd" d="M114.51 84.2565C114.51 83.7203 114.092 83.5111 113.675 83.4796C112.869 83.4198 112.809 83.2123 112.809 82.8537C112.809 82.3756 113.377 82.1972 113.942 82.1374C114.808 82.0486 116.539 81.421 117.345 81.0334C117.584 80.913 117.942 80.7645 118.24 80.7645C118.478 80.7645 118.538 81.1828 118.538 82.5541V91.2698C118.538 92.5522 119.135 92.8809 119.702 93.0901C120.27 93.2976 120.866 93.3283 120.866 93.8048C120.866 94.2829 120.478 94.2829 120.12 94.2829C119.016 94.2829 117.912 94.0447 116.808 94.0447C115.704 94.0447 114.599 94.2829 113.495 94.2829C112.988 94.2829 112.838 94.0447 112.838 93.8048C112.838 93.3283 113.197 93.208 113.675 93.0901C114.092 92.9697 114.51 92.6717 114.51 91.9861V84.2565ZM118.779 77.2466C118.779 78.0526 117.286 79.7833 116.451 79.7833C115.614 79.7833 114.122 78.0526 114.122 77.2466C114.122 76.4116 115.614 74.5614 116.451 74.5614C117.286 74.5614 118.779 76.4116 118.779 77.2466ZM10.0438 78.3183C10.0438 75.0926 9.44029 74.5199 8.53635 74.5199C7.99432 74.5199 7.05884 74.3398 7.05884 73.8865C7.05884 73.4649 7.23979 73.3744 8.20433 73.3744C9.68184 73.3744 11.1594 73.6159 12.636 73.6159C14.1127 73.6159 15.5902 73.3744 17.0669 73.3744C22.342 73.3744 25.5975 74.5199 25.5975 78.4087C25.5975 81.1214 23.4269 82.1166 21.0753 82.7193V82.779C24.3615 83.0206 27.2551 83.8639 27.2551 88.5065C27.2551 91.8218 24.452 94.3543 17.2163 94.3543C14.3526 94.3543 12.695 94.1127 11.3387 94.1127C10.2836 94.1127 9.83209 94.3543 9.07756 94.3543C8.38445 94.3543 7.7204 94.3543 7.7204 93.9617C7.7204 93.3582 8.26243 93.3897 8.77541 93.1482C9.9815 92.5763 10.0413 91.5204 10.0413 90.2255V78.3183H10.0438ZM14.6257 90.3459C14.6257 91.7628 14.7162 92.7581 17.4596 92.7581C20.4436 92.7581 22.3735 91.4009 22.3735 88.3562C22.3735 84.347 19.2683 83.7436 15.8011 83.7436C15.1387 83.7436 14.6257 84.0142 14.6257 84.8592V90.3459ZM14.6257 80.669C14.6257 82.0569 15.5902 82.4785 17.218 82.4785C19.509 82.4785 20.9259 81.6045 20.9259 79.1931C20.9259 76.8416 19.5397 74.7324 16.7656 74.7324C14.9569 74.7324 14.6257 75.5151 14.6257 76.9628V80.669ZM30.348 84.2275C30.348 83.6846 29.9263 83.4738 29.5046 83.4431C29.0514 83.414 28.6297 83.3526 28.6297 82.8106C28.6297 82.3275 29.2025 82.1457 29.7752 82.0859C30.6493 81.9971 32.3974 81.3629 33.2109 80.9703C33.4524 80.85 33.8143 80.6997 34.1156 80.6997C34.2675 80.6997 34.3572 80.9703 34.3572 81.3629V83.3833C35.0503 82.7491 36.3767 80.7005 37.4019 80.7005C38.5772 80.7005 40.1153 82.1465 40.1153 82.9625C40.1153 83.6547 39.1508 85.5855 38.3058 85.5855C37.4625 85.5855 36.6482 84.0781 35.9542 84.0781C34.9598 84.0781 34.417 84.8608 34.417 86.1275V91.0722C34.417 92.6095 35.0196 92.9399 35.5923 93.1507C36.1651 93.3615 36.7685 93.3922 36.7685 93.8753C36.7685 94.1766 36.678 94.3568 36.0148 94.3568C34.8992 94.3568 33.7836 94.1152 32.6688 94.1152C31.5524 94.1152 30.4376 94.3568 29.3228 94.3568C28.8705 94.3568 28.6596 94.1766 28.6596 93.8753C28.6596 93.3922 29.0215 93.2719 29.5038 93.1507C29.9255 93.0303 30.3471 92.729 30.3471 91.7935L30.348 84.2275ZM52.3414 83.5643C52.3414 82.9608 52.2517 82.6595 52.0102 82.4777C51.498 82.0851 50.0512 82.4487 50.0512 81.7547C50.0512 81.1513 50.3824 81.001 51.0755 81.001C54.0903 81.001 54.7228 80.6997 55.5064 80.6997C56.0792 80.6997 56.4112 80.9703 56.4112 81.7846V91.7628C56.4112 92.3663 56.5623 92.6676 56.803 92.8494C57.3151 93.2403 58.7628 92.8784 58.7628 93.5724C58.7628 94.0538 58.5519 94.3244 57.7376 94.3244C54.7228 94.3244 54.0903 94.6274 53.3059 94.6274C52.734 94.6274 52.4319 94.3551 52.3414 93.5408L52.2517 92.3962H52.1911C51.5578 93.8139 49.056 94.6274 47.1261 94.6274C44.3229 94.6274 42.7259 92.998 42.7259 89.6229V83.5643C42.7259 82.9608 42.6354 82.6595 42.3947 82.4777C41.8809 82.0851 41.0367 82.4487 41.0367 81.7547C41.0367 81.1206 41.3082 81.001 41.7605 81.001C44.6243 81.001 45.0468 80.6997 45.8909 80.6997C46.4637 80.6997 46.7957 80.9703 46.7957 81.7846V89.6835C46.7957 91.371 47.7594 92.3978 49.4478 92.3978C51.4681 92.3978 52.3414 91.4026 52.3414 89.442V83.5643ZM61.4904 83.8639C61.4904 83.3518 61.0687 83.2007 60.6462 83.1409C60.1938 83.0812 59.7721 83.0206 59.7721 82.569C59.7721 82.2071 60.344 82.0262 60.9168 81.9058C62.1835 81.6352 63.1472 81.4227 64.3541 80.9703C64.5956 80.8815 64.9567 80.6997 65.258 80.6997C65.4083 80.6997 65.4996 81.0301 65.4996 81.4227V83.3227H65.5593C66.8559 81.5738 68.1525 80.6997 70.1122 80.6997C73.0963 80.6997 75.2362 82.7201 75.2362 86.4272V92.0948C75.2362 92.7581 75.7185 93.0594 76.1402 93.149C76.6233 93.2395 76.9835 93.4213 76.9835 93.8737C76.9835 94.175 76.8341 94.3551 76.2912 94.3551C75.2661 94.3551 74.2402 94.1136 73.2167 94.1136C72.1916 94.1136 71.1664 94.3551 70.1413 94.3551C69.7188 94.3551 69.4781 94.2646 69.4781 93.8737C69.4781 93.4213 69.8408 93.2395 70.3231 93.149C70.895 93.0602 71.1664 92.7581 71.1664 92.0948V86.1258C71.1664 84.4981 70.5032 82.8703 68.3633 82.8703C66.2234 82.8703 65.5602 84.4981 65.5602 86.1258V91.3702C65.5602 92.636 66.1628 92.9689 66.7364 93.149C67.339 93.3308 67.9117 93.4213 67.9117 93.8737C67.9117 94.204 67.7009 94.3551 67.1589 94.3551C66.0424 94.3551 64.9277 94.1136 63.812 94.1136C62.6964 94.1136 61.5808 94.3551 60.4661 94.3551C59.9232 94.3551 59.8028 94.175 59.8028 93.8737C59.8028 93.4213 60.1639 93.2395 60.647 93.149C61.0695 93.0602 61.4912 92.7581 61.4912 92.0948L61.4904 83.8639ZM84.054 80.6997C84.7172 80.6997 87.1277 81.001 87.1277 81.9348C87.1277 82.3872 87.2788 83.7444 87.2788 84.1661C87.2788 84.4981 87.219 84.8293 86.7974 84.8293C86.5251 84.8293 86.2852 84.0772 85.7424 83.292C85.1995 82.5093 84.3562 81.9058 82.9085 81.9058C82.0345 81.9058 81.1297 82.2071 81.1297 83.2015C81.1297 85.5232 88.1836 84.5894 88.1836 89.8935C88.1836 93.0594 85.7424 94.6274 82.8172 94.6274C81.9432 94.6274 81.0699 94.5062 80.5262 94.3858C80.1344 94.2646 79.8937 94.2348 79.6829 94.2348H79.14C78.7482 94.2348 78.6578 93.7824 78.6578 93.33C78.6578 91.9131 78.5665 90.8888 78.5665 90.0147C78.5665 89.8022 78.8387 89.6221 79.0495 89.6221C79.9842 89.6221 80.0738 90.5866 80.4366 91.5819C80.7985 92.5755 81.4617 93.4205 83.4813 93.4205C84.4749 93.4205 85.5597 92.7863 85.5597 91.6715C85.5597 88.8991 78.5059 90.1948 78.5059 85.07C78.5067 81.695 81.1596 80.6997 84.054 80.6997ZM99.475 85.4626C99.5654 85.3423 99.626 85.2211 99.626 85.1306C99.626 84.3171 98.9919 83.0214 98.2996 82.3872C97.8165 81.9656 97.3043 81.9348 97.3043 81.4841C97.3043 81.0915 97.5766 80.9703 98.4216 80.9703C99.3845 80.9703 100.32 81.2119 101.254 81.2119C102.189 81.2119 103.154 80.9703 104.088 80.9703C104.901 80.9703 104.992 81.1521 104.992 81.4841C104.992 81.9348 104.691 82.0859 104.179 82.1764C103.817 82.2669 103.485 82.6595 103.485 82.9301C103.485 83.2314 103.546 83.5933 103.667 83.8639L105.866 89.1099C105.926 89.261 106.018 89.3208 106.137 89.3208C106.228 89.3208 106.319 89.2303 106.379 89.0792L108.61 84.6774C108.7 84.5263 108.821 83.8639 108.821 83.502C108.821 82.9608 108.73 82.5084 108.368 82.3266C107.796 82.056 106.953 81.934 106.953 81.4833C106.953 81.1513 107.133 80.9695 107.736 80.9695C108.43 80.9695 109.122 81.211 109.816 81.211C110.479 81.211 111.173 80.9695 111.865 80.9695C112.318 80.9695 112.469 81.0907 112.469 81.4833C112.469 81.934 111.566 82.1756 110.872 83.4124L104.811 94.385C104.766 94.4567 104.704 94.5162 104.631 94.5583C104.557 94.6004 104.474 94.6238 104.39 94.6265C104.208 94.6265 104.058 94.5054 103.968 94.3236L100.562 87.1809C100.471 86.9991 100.38 86.9393 100.259 86.9393C100.17 86.9393 100.048 87.0298 99.9282 87.2099L95.4973 94.3858C95.4068 94.5659 95.2865 94.6274 95.1653 94.6274C95.0449 94.6274 94.9254 94.5062 94.8034 94.3244L89.8894 83.5028C89.6495 82.9907 89.5275 82.5997 89.2261 82.3872C88.8958 82.1764 88.2616 81.8751 88.2616 81.4841C88.2616 81.1521 88.4741 81.001 89.046 80.9703C90.1002 80.9413 91.1859 81.2119 92.2418 81.2119C93.2976 81.2119 94.3817 80.9703 95.4359 80.9703C95.6774 80.9703 95.919 81.2119 95.919 81.4227C95.919 81.8751 95.5869 82.0859 95.1362 82.1764C94.6531 82.2669 94.502 82.6595 94.502 83.1409C94.502 83.3518 94.5328 83.5933 94.6232 83.8639L96.7631 89.2901C96.8229 89.4112 96.8835 89.5025 96.974 89.5025C97.0337 89.5025 97.1541 89.4411 97.2155 89.3515L99.475 85.4626ZM130.162 92.3962C132.665 92.3962 133.568 90.5268 134.171 90.5268C134.383 90.5268 134.625 90.7377 134.625 90.9178C134.625 92.3962 131.128 94.6274 127.782 94.6274C123.892 94.6274 121.3 91.7031 121.3 87.9038C121.3 83.7743 125.158 80.6989 129.106 80.6989C131.188 80.6989 133.749 81.7838 133.749 83.0803C133.749 83.8631 133.208 84.2267 132.603 84.6483C132.272 84.8899 131.339 85.5514 130.915 85.5514C130.133 85.5514 130.374 84.8592 129.982 83.8349C129.62 82.8396 128.685 82.056 127.54 82.056C125.46 82.056 125.159 84.1652 125.159 85.7947C125.158 88.6285 126.906 92.3962 130.162 92.3962ZM136.633 75.1831C136.633 74.6709 136.121 74.5199 135.699 74.4294C135.216 74.3082 134.794 74.2783 134.794 73.7961C134.794 73.3138 135.366 73.1337 135.97 73.103C136.903 72.9826 138.713 72.3493 139.555 71.9575C139.797 71.867 140.19 71.686 140.4 71.686C140.582 71.686 140.702 71.8064 140.702 73.1627V86.6978L145.133 83.624C145.556 83.3518 146.068 82.901 146.068 82.5375C146.068 82.2976 145.676 82.1756 145.314 82.1756C144.802 82.1756 144.469 81.8137 144.469 81.4219C144.469 81.1513 144.621 80.9695 145.192 80.9695C146.128 80.9695 147.062 81.0907 148.026 81.0907C148.962 81.0907 149.896 80.9695 150.831 80.9695C151.435 80.9695 151.614 81.0907 151.614 81.2708C151.614 81.7829 151.372 82.0843 150.678 82.1756C149.955 82.2968 149.022 82.5989 147.545 83.502L145.495 84.7679L149.654 91.5512C150.077 92.2451 150.559 92.6958 151.161 93.2096C151.884 93.7815 152.94 93.2984 152.94 93.8728C152.94 94.2348 152.789 94.3543 152.036 94.3543C151.282 94.3543 150.528 94.2339 149.775 94.2339C149.022 94.2339 148.268 94.3543 147.513 94.3543C146.759 94.3543 146.61 94.2339 146.309 93.8131L142.66 88.2965C142.48 88.0242 142.33 87.7536 142.209 87.7536C142.148 87.7536 141.998 87.8748 141.908 87.9047L140.702 88.5679V91.3113C140.702 92.6078 141.425 92.939 142.028 93.1499C142.632 93.3607 143.263 93.3914 143.263 93.8745C143.263 94.2049 143.053 94.3559 142.481 94.3559C141.305 94.3559 140.159 94.1144 138.984 94.1144C137.839 94.1144 136.662 94.3559 135.517 94.3559C135.034 94.3559 134.823 94.2356 134.823 93.8745C134.823 93.3914 135.185 93.271 135.699 93.1499C136.121 93.061 136.633 92.7282 136.633 92.0342V75.1831Z" fill="#696969"/>
<path fill-rule="evenodd" clip-rule="evenodd" d="M77.7016 74.7388C78.6827 75.6776 77.7879 77.0073 76.4772 76.4404C73.4533 74.8018 68.7875 76.5823 68.7875 76.5823H68.7983C66.1354 74.6931 61.6041 76.5823 61.6041 76.5823H61.5925C59.0425 75.0351 55.4226 76.1955 55.4226 76.1955C54.7262 76.5018 54.4232 75.7232 54.9785 75.3987C55.5214 75.0816 56.4361 74.5794 56.4361 74.5794L56.5731 74.5113C56.5731 74.5113 60.608 72.4137 63.3572 74.8301C63.3572 74.8301 67.8877 72.3025 70.6427 74.8068C70.6427 74.806 74.969 72.1249 77.7016 74.7388Z" fill="#383838"/>
<path fill-rule="evenodd" clip-rule="evenodd" d="M77.0018 69.8657H77.0068C77.46 69.8657 77.8377 69.4988 77.8377 69.0456C77.8377 68.5923 77.47 68.2263 77.0176 68.2263H72.0546V68.7276C72.0544 68.8862 72.0081 69.0412 71.9215 69.1739C71.8348 69.3067 71.7115 69.4115 71.5666 69.4755C67.1207 63.1338 72.8058 56.3182 72.8058 56.3182C70.6991 56.3597 68.9577 56.5307 67.5466 56.749V54.2696C67.5466 54.2696 62.9015 53.6777 63.3796 55.3171C63.3796 55.3171 60.7442 55.6832 59.1222 56.5016C58.8807 56.6236 58.9321 56.8918 59.2135 56.8195C59.2135 56.8195 62.7787 55.8508 66.8833 56.8594C64.0926 57.3541 62.811 58.0032 62.811 58.0032C62.811 58.0032 59.1064 63.1338 64.1956 69.5461H62.4458C62.3382 69.5463 62.2316 69.5253 62.1321 69.4843C62.0326 69.4432 61.9422 69.383 61.866 69.307C61.7898 69.2309 61.7294 69.1406 61.6882 69.0412C61.6469 68.9418 61.6257 68.8353 61.6257 68.7276V68.2263H56.1614C56.1614 68.2263 56.3232 68.9501 56.7408 71.3448C56.7408 71.3448 56.8727 72.6547 57.6406 73.3146C57.6406 73.3146 60.999 72.106 63.5149 74.0318C63.5149 74.0318 67.5449 71.7209 70.7664 74.0094C70.7664 74.0094 74.5565 71.886 76.9255 73.474C76.9255 73.474 77.7389 73.0299 77.0732 71.0884C77.0732 71.0884 76.8549 70.4625 76.8059 70.1836C76.7536 69.8781 77.0018 69.8657 77.0018 69.8657ZM63.4709 58.7088C66.3114 57.4902 70.9614 57.2977 70.9614 57.2977C67.5465 63.1264 69.3453 67.1572 69.3453 67.1572C64.091 64.8687 63.9258 67.3622 63.9258 67.3622C61.1725 62.762 63.4709 58.7088 63.4709 58.7088ZM64.5882 69.5469C64.4363 68.4927 64.2935 64.6952 71.2196 69.5469H64.5882Z" fill="#383838"/>
<path fill-rule="evenodd" clip-rule="evenodd" d="M60.8072 65.8589H59.3994V63.2882C59.3994 63.2882 57.6471 63.0549 55.8924 64.505C55.7098 64.6561 55.8011 64.9093 56.0401 64.8595C56.0401 64.8595 57.946 64.6179 59.123 65.8589H56.5265C56.3093 65.8589 56.1009 65.9452 55.9472 66.0988C55.7936 66.2525 55.7073 66.4609 55.7073 66.6781C55.7073 66.8954 55.7936 67.1038 55.9472 67.2575C56.1009 67.4111 56.3093 67.4974 56.5265 67.4974H61.6265V66.6773C61.6265 66.5698 61.6053 66.4633 61.5641 66.3639C61.5229 66.2646 61.4625 66.1743 61.3865 66.0983C61.3104 66.0223 61.2201 65.962 61.1207 65.9209C61.0213 65.8799 60.9147 65.8588 60.8072 65.8589ZM77.0184 65.8589H75.584V63.2774C75.584 63.2774 73.8326 63.0449 72.077 64.4951C71.8952 64.6453 71.9865 64.8977 72.2256 64.847C72.2256 64.847 74.1447 64.6046 75.32 65.8589H72.8755C72.768 65.8588 72.6614 65.8799 72.562 65.9209C72.4627 65.962 72.3723 66.0223 72.2962 66.0983C72.2202 66.1743 72.1598 66.2646 72.1186 66.3639C72.0774 66.4633 72.0562 66.5698 72.0562 66.6773V67.4974H77.0192C77.1299 67.5023 77.2404 67.4848 77.3442 67.4458C77.4479 67.4068 77.5426 67.3472 77.6227 67.2706C77.7027 67.194 77.7664 67.102 77.8099 67.0001C77.8534 66.8982 77.8758 66.7885 77.8758 66.6777C77.8757 66.5669 77.8532 66.4573 77.8096 66.3554C77.766 66.2535 77.7022 66.1616 77.6221 66.085C77.5419 66.0085 77.4471 65.949 77.3434 65.9101C77.2396 65.8713 77.1291 65.8538 77.0184 65.8589Z" fill="#383838"/>
<path fill-rule="evenodd" clip-rule="evenodd" d="M83.7378 66.7116C83.4638 66.4377 83.1899 66.1887 83.1252 66.1887C83.0604 66.1887 83.0198 66.2277 83.0198 66.5415V71.2081C83.0198 71.8489 83.2422 72.332 83.8689 72.5279C84.1968 72.6325 84.6276 72.6059 84.6276 72.8549C84.6276 73.1164 84.3147 73.1164 84.0781 73.1164C83.6207 73.1164 83.1634 73.0126 82.7068 73.0126C82.2503 73.0126 81.7904 73.1164 81.3339 73.1164C81.2044 73.1164 81.06 73.1164 81.06 72.9072C81.06 72.6989 81.2169 72.6325 81.4136 72.5279C82.0926 72.1627 82.3018 71.7833 82.3018 71.0637V66.1364C82.3018 65.6392 82.1059 64.9212 81.6228 64.6854C81.1911 64.4763 81.0085 64.4372 81.0085 64.2272C81.0085 64.0181 81.0865 64.0181 81.177 64.0181C81.5696 64.0181 81.9614 64.0695 82.354 64.0695C82.7467 64.0695 83.1385 64.0181 83.5311 64.0181C83.8183 64.0181 83.9088 64.0571 84.0275 64.1882L89.0859 69.4301C89.2693 69.6135 89.4519 69.7829 89.53 69.7829C89.6354 69.7829 89.6487 69.5994 89.6487 69.4168V66.4493C89.6487 65.5869 89.5972 64.7892 88.7862 64.6066C88.4459 64.5286 88.0923 64.4372 88.0923 64.2272C88.0923 64.0181 88.3421 64.0181 88.577 64.0181C89.0344 64.0181 89.4918 64.1227 89.9483 64.1227C90.4048 64.1227 90.8647 64.0181 91.3212 64.0181C91.4507 64.0181 91.5952 64.0181 91.5952 64.2272C91.5952 64.4372 91.4383 64.502 91.2415 64.6066C90.5626 64.9735 90.3658 65.352 90.3658 66.0708V72.371C90.3658 72.9454 90.3144 73.1023 90.1567 73.1023C90.0122 73.1023 89.6736 72.7753 89.3457 72.449L83.7378 66.7116ZM98.2182 70.0186C98.2182 71.7177 96.886 73.2334 95.0291 73.2334C93.252 73.2334 91.6308 72.0705 91.6308 70.2145C91.6308 68.424 93.0428 67.1947 94.9378 67.1947C96.4676 67.1947 98.2182 68.2016 98.2182 70.0186ZM93.3956 69.9788C93.3956 71.5077 94.1933 72.7105 95.069 72.7105C96.1796 72.7105 96.4552 71.6779 96.4552 70.5806C96.4552 68.9204 95.7613 67.7177 94.7801 67.7177C93.6711 67.7177 93.3956 68.7503 93.3956 69.9788ZM103.537 68.4365C103.537 68.175 103.498 68.0447 103.393 67.9659C103.17 67.7957 102.544 67.9526 102.544 67.6521C102.544 67.3906 102.688 67.3259 102.988 67.3259C104.294 67.3259 104.57 67.1947 104.909 67.1947C105.158 67.1947 105.301 67.3126 105.301 67.6654V71.9917C105.301 72.2531 105.368 72.3843 105.471 72.4623C105.694 72.6325 106.321 72.4756 106.321 72.7753C106.321 72.9853 106.23 73.1023 105.876 73.1023C104.57 73.1023 104.294 73.2326 103.956 73.2326C103.707 73.2326 103.576 73.1147 103.537 72.762L103.498 72.2656H103.473C103.199 72.8798 102.112 73.2326 101.276 73.2326C100.062 73.2326 99.3679 72.5271 99.3679 71.0628V68.4357C99.3679 68.1742 99.3289 68.0439 99.2235 67.965C99.001 67.7949 98.6349 67.9517 98.6349 67.6513C98.6349 67.3773 98.7536 67.325 98.9495 67.325C100.191 67.325 100.375 67.1939 100.739 67.1939C100.989 67.1939 101.133 67.3118 101.133 67.6645V71.0894C101.133 71.8207 101.55 72.2656 102.283 72.2656C103.159 72.2656 103.538 71.834 103.538 70.984L103.537 68.4365ZM110.215 72.7885C110.11 72.972 109.901 73.2334 109.784 73.2334C109.691 73.2334 109.535 73.0384 109.43 72.8417L107.064 68.3327C106.659 67.6654 106.253 67.7442 106.253 67.5351C106.253 67.3657 106.331 67.3134 106.816 67.3134C107.416 67.3134 107.847 67.418 108.279 67.418C108.711 67.418 109.154 67.3134 109.587 67.3134C109.861 67.3134 110.031 67.3524 110.031 67.5351C110.031 67.6787 109.822 67.7965 109.587 67.8364C109.286 67.8878 109.168 68.0846 109.168 68.2805C109.168 68.4763 109.22 68.7121 109.337 68.947L110.331 70.764C110.397 70.8819 110.487 71.0122 110.565 71.0122C110.697 71.0122 110.775 70.8296 110.828 70.7383L111.794 69.1172C111.925 68.908 111.964 68.7245 111.964 68.3983C111.964 68.1236 111.69 67.8887 111.44 67.8364C111.18 67.7841 110.932 67.7442 110.932 67.5351C110.932 67.379 111.011 67.3134 111.363 67.3134C111.678 67.3134 111.991 67.418 112.304 67.418C112.605 67.418 112.918 67.3134 113.232 67.3134C113.481 67.3134 113.532 67.3657 113.532 67.5351C113.532 67.7185 113.403 67.7442 113.297 67.8364C113.141 67.9667 113.049 68.1236 112.866 68.4108L110.215 72.7885ZM115.22 69.9522V70.4494C115.22 71.4687 116.279 72.3179 117.286 72.3179C118.332 72.3179 119.05 71.5858 119.14 71.5858C119.206 71.5858 119.271 71.6646 119.271 71.7294C119.271 72.1743 118.07 73.2326 116.449 73.2326C114.605 73.2326 113.443 72.2266 113.443 70.344C113.443 68.6324 114.632 67.1939 116.398 67.1939C117.665 67.1939 119.246 68.0829 119.246 69.5206C119.246 69.821 119.129 69.9522 118.528 69.9522H115.22ZM117.404 69.4301C117.468 69.4301 117.482 69.2076 117.482 69.103C117.482 68.3452 117.063 67.7177 116.33 67.7177C115.533 67.7177 115.168 68.5668 115.168 69.1819C115.168 69.3902 115.313 69.4301 115.468 69.4301H117.404ZM125.011 71.7302C125.011 72.0705 125.024 72.2523 125.259 72.2523C125.416 72.2523 125.613 72.1876 125.731 72.1876C125.874 72.1876 125.964 72.2266 125.964 72.3444C125.964 72.5802 125.324 73.128 124.384 73.128C123.978 73.128 123.455 72.8275 123.338 72.4225C122.802 72.9064 122.005 73.2326 121.272 73.2326C120.475 73.2326 119.861 72.6582 119.861 71.8481C119.861 69.9265 121.887 69.9522 123.259 69.5737V68.8416C123.259 68.2406 122.776 67.7177 122.189 67.7177C121.849 67.7177 121.784 67.8214 121.784 68.3319C121.784 68.5145 121.784 68.7113 121.678 68.8673C121.521 69.0898 120.751 69.2334 120.515 69.2334C120.266 69.2334 120.045 69.1545 120.045 68.815C120.045 67.3898 121.981 67.1939 122.96 67.1939C124.476 67.1939 125.013 67.9916 125.013 69.416V71.7302H125.011ZM123.246 70.1489C122.514 70.1356 121.626 70.6851 121.626 71.4945C121.626 71.9784 121.835 72.3179 122.357 72.3179C122.646 72.3179 123.246 72.1618 123.246 71.7692V70.1489ZM130.815 68.4365C130.815 68.175 130.774 68.0447 130.67 67.9659C130.448 67.7957 129.821 67.9526 129.821 67.6521C129.821 67.3906 129.964 67.3259 130.265 67.3259C131.572 67.3259 131.848 67.1947 132.186 67.1947C132.434 67.1947 132.579 67.3126 132.579 67.6654V71.9917C132.579 72.2531 132.644 72.3843 132.749 72.4623C132.971 72.6325 133.598 72.4756 133.598 72.7753C133.598 72.9853 133.508 73.1023 133.154 73.1023C131.847 73.1023 131.572 73.2326 131.233 73.2326C130.983 73.2326 130.854 73.1147 130.815 72.762L130.774 72.2656H130.748C130.475 72.8798 129.39 73.2326 128.553 73.2326C127.337 73.2326 126.645 72.5271 126.645 71.0628V68.4357C126.645 68.1742 126.606 68.0439 126.5 67.965C126.278 67.7949 125.913 67.9517 125.913 67.6513C125.913 67.3773 126.03 67.325 126.226 67.325C127.468 67.325 127.652 67.1939 128.018 67.1939C128.266 67.1939 128.409 67.3118 128.409 67.6645V71.0894C128.409 71.8207 128.827 72.2656 129.56 72.2656C130.436 72.2656 130.815 71.834 130.815 70.984V68.4365ZM28.8232 66.8619C28.5484 66.5871 28.2745 66.3389 28.2081 66.3389C28.1433 66.3389 28.1043 66.3779 28.1043 66.6917V71.3583C28.1043 71.9983 28.3259 72.4822 28.9535 72.6781C29.2805 72.7827 29.7113 72.757 29.7113 73.0043C29.7113 73.2658 29.3984 73.2658 29.1626 73.2658C28.7053 73.2658 28.2479 73.1612 27.7905 73.1612C27.3324 73.1612 26.875 73.2658 26.4176 73.2658C26.2865 73.2658 26.1429 73.2658 26.1429 73.0566C26.1429 72.8475 26.2998 72.7819 26.4956 72.6773C27.1746 72.3112 27.3838 71.9327 27.3838 71.2139V66.2858C27.3838 65.7886 27.1879 65.0698 26.704 64.8349C26.2724 64.6257 26.0906 64.5858 26.0906 64.3775C26.0906 64.1675 26.1694 64.1675 26.2607 64.1675C26.6534 64.1675 27.0452 64.2198 27.4378 64.2198C27.8287 64.2198 28.2214 64.1675 28.614 64.1675C28.902 64.1675 28.9933 64.2065 29.1112 64.3376L34.1688 69.5787C34.3522 69.7613 34.5348 69.9315 34.6129 69.9315C34.7183 69.9315 34.7316 69.748 34.7316 69.5654V66.5979C34.7316 65.7355 34.6793 64.9386 33.8691 64.7552C33.5296 64.6771 33.176 64.5858 33.176 64.3767C33.176 64.1666 33.425 64.1666 33.6599 64.1666C34.1173 64.1666 34.5747 64.2712 35.0329 64.2712C35.4902 64.2712 35.9476 64.1666 36.4058 64.1666C36.5361 64.1666 36.6797 64.1666 36.6797 64.3767C36.6797 64.585 36.5237 64.6506 36.3278 64.7552C35.6479 65.1221 35.4512 65.5006 35.4512 66.2194V72.5196C35.4512 73.094 35.3989 73.2517 35.242 73.2517C35.0984 73.2517 34.7581 72.9247 34.4311 72.5984L28.8232 66.8619ZM38.5067 70.1041V70.6005C38.5067 71.6198 39.565 72.4698 40.5719 72.4698C41.6169 72.4698 42.3358 71.7377 42.4279 71.7377C42.4927 71.7377 42.5582 71.8165 42.5582 71.8821C42.5582 72.3262 41.3555 73.3853 39.7352 73.3853C37.8916 73.3853 36.7287 72.3785 36.7287 70.4967C36.7287 68.7843 37.9182 67.3466 39.6821 67.3466C40.9504 67.3466 42.5325 68.2356 42.5325 69.6733C42.5325 69.9738 42.4146 70.1049 41.8137 70.1049L38.5067 70.1041ZM40.6889 69.5812C40.7545 69.5812 40.767 69.3587 40.767 69.2549C40.767 68.4963 40.3494 67.8696 39.6173 67.8696C38.8196 67.8696 38.4544 68.7187 38.4544 69.333C38.4544 69.5421 38.598 69.582 38.7549 69.582H40.6889V69.5812ZM47.4722 69.411C47.5121 69.3587 47.5386 69.3064 47.5386 69.2674C47.5386 68.9146 47.2639 68.3518 46.9634 68.0779C46.7542 67.8953 46.5318 67.882 46.5318 67.6861C46.5318 67.516 46.6496 67.4637 47.0157 67.4637C47.4332 67.4637 47.8383 67.5683 48.2434 67.5683C48.6493 67.5683 49.0668 67.4637 49.4718 67.4637C49.8246 67.4637 49.8636 67.5417 49.8636 67.6861C49.8636 67.882 49.7333 67.9476 49.5109 67.9858C49.3548 68.0256 49.2112 68.1958 49.2112 68.3128C49.2112 68.4448 49.2369 68.6017 49.2892 68.7187L50.243 70.9931C50.2695 71.0587 50.3086 71.0844 50.3608 71.0844C50.4007 71.0844 50.4397 71.0454 50.4654 70.9798L51.4333 69.0715C51.4723 69.0059 51.5246 68.7187 51.5246 68.5618C51.5246 68.3269 51.4856 68.1302 51.3287 68.053C51.0805 67.9351 50.7145 67.8828 50.7145 67.687C50.7145 67.5425 50.7925 67.4645 51.0548 67.4645C51.3544 67.4645 51.6557 67.5691 51.9562 67.5691C52.2443 67.5691 52.5439 67.4645 52.8452 67.4645C53.0411 67.4645 53.1059 67.5168 53.1059 67.687C53.1059 67.8828 52.7141 67.9866 52.4136 68.5228L49.7864 73.2816C49.7667 73.3124 49.7397 73.3379 49.7079 73.356C49.6761 73.3741 49.6404 73.3841 49.6038 73.3853C49.5258 73.3853 49.4602 73.3331 49.4212 73.2542L47.9437 70.1564C47.9047 70.0784 47.8657 70.0526 47.8134 70.0526C47.7744 70.0526 47.7221 70.0917 47.6689 70.1705L45.7482 73.2816C45.7092 73.3588 45.6569 73.3853 45.6046 73.3853C45.5523 73.3853 45.5 73.3331 45.4485 73.2542L43.3186 68.5618C43.214 68.3394 43.1609 68.1701 43.0305 68.0779C42.8869 67.9858 42.6122 67.8555 42.6122 67.6861C42.6122 67.5417 42.7035 67.4769 42.9517 67.4637C43.4091 67.4512 43.8797 67.5683 44.3371 67.5683C44.7944 67.5683 45.2651 67.4637 45.7216 67.4637C45.8262 67.4637 45.93 67.5683 45.93 67.6604C45.93 67.8563 45.7872 67.9476 45.5905 67.9866C45.3813 68.0264 45.3165 68.1966 45.3165 68.4058C45.3165 68.4971 45.329 68.6017 45.368 68.7187L46.296 71.0711C46.3226 71.1234 46.3483 71.1624 46.3873 71.1624C46.4131 71.1624 46.4654 71.1367 46.4911 71.0969L47.4722 69.411ZM33.3022 100.576C33.3213 100.761 33.3694 100.963 33.3694 101.078C33.3694 101.185 33.3213 101.31 33.225 101.31C33.1088 101.31 33.0025 101.078 32.9635 101.01C32.3559 99.94 31.5366 99.3805 30.6974 99.3805C29.4723 99.3805 28.575 100.074 28.575 102.179C28.575 103.664 29.5204 105.063 30.8228 105.063C31.6329 105.063 32.3858 104.648 32.8963 104.138C33.0125 104.021 33.1569 103.828 33.3113 103.828C33.3885 103.828 33.4176 103.877 33.4176 103.962C33.4176 104.253 32.3758 105.835 30.3505 105.835C28.7294 105.835 27.0128 104.668 27.0128 102.612C27.0128 99.9209 28.8165 98.9464 30.4758 98.9464C31.5375 98.9464 32.3476 99.4569 32.6082 99.4569C32.8506 99.4569 32.7626 99.1589 33.0332 99.1589C33.1196 99.1589 33.1486 99.217 33.1586 99.2643L33.3022 100.576ZM49.7698 99.285C49.8952 99.0319 49.9433 98.9464 50.0297 98.9464C50.0687 98.9464 50.1268 99.0327 50.184 99.1489L52.597 104.397C52.7697 104.763 52.905 105.227 53.2719 105.332C53.5317 105.41 53.677 105.439 53.677 105.593C53.677 105.746 53.5807 105.747 53.4263 105.747C52.9623 105.747 52.4999 105.671 52.0749 105.671C51.6508 105.671 51.1876 105.747 50.7252 105.747C50.5899 105.747 50.5318 105.681 50.5318 105.623C50.5318 105.507 50.6381 105.42 50.7834 105.41C51.0332 105.361 51.1884 105.139 51.1884 104.89C51.1884 104.648 50.8987 103.818 50.7551 103.674C50.629 103.547 50.4463 103.51 49.9732 103.51H48.4974C48.0051 103.51 47.7354 104.485 47.7354 104.9C47.7354 105.044 47.9769 105.227 48.1786 105.286C48.45 105.362 48.8061 105.44 48.8061 105.594C48.8061 105.747 48.6999 105.748 48.5455 105.748C48.2168 105.748 47.8897 105.672 47.561 105.672C47.2332 105.672 46.9053 105.748 46.5766 105.748C46.4421 105.748 46.3259 105.748 46.3259 105.594C46.3259 105.439 46.5675 105.381 46.7019 105.286C46.8663 105.169 46.9435 105.063 47.0215 104.91L49.7698 99.285ZM48.6609 102.593C48.5928 102.729 48.5546 102.834 48.5546 102.863C48.5546 102.951 48.719 102.979 48.9589 102.979H50.0014C50.3102 102.979 50.4264 102.96 50.4264 102.922C50.4264 102.864 50.3584 102.691 50.282 102.536L49.6262 101.213C49.5582 101.089 49.52 101.021 49.4528 101.021C49.3947 101.021 49.3175 101.225 49.2975 101.272L48.6609 102.593ZM68.4181 101.02C68.2164 100.819 68.013 100.634 67.9649 100.634C67.9167 100.634 67.8877 100.663 67.8877 100.895V104.339C67.8877 104.811 68.0504 105.168 68.5144 105.314C68.7559 105.39 69.0738 105.37 69.0738 105.554C69.0738 105.746 68.8431 105.746 68.6688 105.746C68.3309 105.746 67.9931 105.67 67.6552 105.67C67.3182 105.67 66.9812 105.746 66.6434 105.746C66.5471 105.746 66.44 105.746 66.44 105.592C66.44 105.437 66.5571 105.389 66.7007 105.313C67.202 105.042 67.3564 104.762 67.3564 104.231V100.593C67.3564 100.229 67.212 99.6968 66.8551 99.5233C66.5363 99.3689 66.401 99.3398 66.401 99.1863C66.401 99.0302 66.4591 99.0302 66.5272 99.0302C66.8161 99.0302 67.1057 99.0692 67.3954 99.0692C67.6843 99.0692 67.9732 99.0302 68.2629 99.0302C68.4745 99.0302 68.5426 99.0593 68.6297 99.1564L72.3634 103.024C72.4987 103.161 72.6332 103.285 72.6913 103.285C72.7693 103.285 72.7784 103.151 72.7784 103.015V100.824C72.7784 100.188 72.7394 99.598 72.1418 99.4635C71.8902 99.4071 71.6296 99.339 71.6296 99.1846C71.6296 99.0285 71.813 99.0285 71.9865 99.0285C72.3235 99.0285 72.6614 99.1066 72.9992 99.1066C73.337 99.1066 73.6749 99.0285 74.0119 99.0285C74.109 99.0285 74.2161 99.0285 74.2161 99.1846C74.2161 99.339 74.099 99.3871 73.9554 99.4635C73.4533 99.7341 73.3088 100.013 73.3088 100.545V105.195C73.3088 105.62 73.2698 105.735 73.1544 105.735C73.049 105.735 72.7967 105.495 72.5568 105.253L68.4181 101.02ZM90.3957 99.285C90.5202 99.0319 90.5692 98.9464 90.6547 98.9464C90.6937 98.9464 90.7518 99.0327 90.8091 99.1489L93.2213 104.397C93.3947 104.763 93.5309 105.227 93.8969 105.332C94.1576 105.41 94.302 105.439 94.302 105.593C94.302 105.746 94.2049 105.747 94.0505 105.747C93.5865 105.747 93.125 105.671 92.7 105.671C92.275 105.671 91.8135 105.747 91.3495 105.747C91.215 105.747 91.1569 105.681 91.1569 105.623C91.1569 105.507 91.2623 105.42 91.4084 105.41C91.6582 105.361 91.8135 105.139 91.8135 104.89C91.8135 104.648 91.5229 103.818 91.3777 103.674C91.2532 103.547 91.0697 103.51 90.5983 103.51H89.1216C88.6302 103.51 88.3596 104.485 88.3596 104.9C88.3596 105.044 88.6011 105.227 88.8036 105.286C89.0726 105.362 89.4312 105.44 89.4312 105.594C89.4312 105.747 89.3241 105.748 89.1705 105.748C88.8418 105.748 88.514 105.672 88.1844 105.672C87.8565 105.672 87.5295 105.748 87.2016 105.748C87.0672 105.748 86.9501 105.748 86.9501 105.594C86.9501 105.439 87.1917 105.381 87.3261 105.286C87.4913 105.169 87.5677 105.063 87.6457 104.91L90.3957 99.285ZM89.2851 102.593C89.2187 102.729 89.1797 102.834 89.1797 102.863C89.1797 102.951 89.3432 102.979 89.5831 102.979H90.6256C90.9353 102.979 91.0523 102.96 91.0523 102.922C91.0523 102.864 90.9842 102.691 90.9062 102.536L90.2496 101.213C90.1832 101.089 90.1442 101.021 90.0761 101.021C90.0197 101.021 89.9417 101.225 89.9217 101.272L89.2851 102.593ZM107.925 100.654C107.925 99.6992 107.781 99.5938 107.454 99.5058C107.097 99.3988 106.98 99.3905 106.98 99.256C106.98 99.0709 107.105 99.0319 107.346 99.0319C107.818 99.0319 108.292 99.1099 108.765 99.1099C109.237 99.1099 109.71 99.0319 110.182 99.0319C112.604 99.0319 114.196 99.93 114.196 102.206C114.196 104.56 112.286 105.747 110.367 105.747C109.373 105.747 108.688 105.671 108.37 105.671C108.089 105.671 107.771 105.747 107.491 105.747C107.327 105.747 107.193 105.747 107.193 105.642C107.193 105.497 107.376 105.449 107.54 105.39C107.906 105.266 107.926 104.724 107.926 104.348L107.925 100.654ZM109.392 104.272C109.392 105.102 109.72 105.237 110.52 105.237C111.928 105.237 112.632 103.779 112.632 102.544C112.632 101.088 111.899 99.4668 110.144 99.4668C109.536 99.4668 109.392 99.7474 109.392 100.25V104.272ZM130.49 99.285C130.615 99.0319 130.664 98.9464 130.751 98.9464C130.79 98.9464 130.846 99.0327 130.905 99.1489L133.318 104.397C133.491 104.763 133.625 105.227 133.992 105.332C134.252 105.41 134.397 105.439 134.397 105.593C134.397 105.746 134.301 105.747 134.147 105.747C133.683 105.747 133.221 105.671 132.795 105.671C132.371 105.671 131.908 105.747 131.444 105.747C131.31 105.747 131.253 105.681 131.253 105.623C131.253 105.507 131.359 105.42 131.503 105.41C131.755 105.361 131.908 105.139 131.908 104.89C131.908 104.648 131.618 103.818 131.474 103.674C131.349 103.547 131.166 103.51 130.693 103.51H129.218C128.725 103.51 128.454 104.485 128.454 104.9C128.454 105.044 128.696 105.227 128.898 105.286C129.169 105.362 129.526 105.44 129.526 105.594C129.526 105.747 129.42 105.748 129.265 105.748C128.937 105.748 128.61 105.672 128.281 105.672C127.953 105.672 127.626 105.748 127.296 105.748C127.162 105.748 127.046 105.748 127.046 105.594C127.046 105.439 127.288 105.381 127.422 105.286C127.586 105.169 127.664 105.063 127.74 104.91L130.49 99.285ZM129.381 102.593C129.313 102.729 129.274 102.834 129.274 102.863C129.274 102.951 129.439 102.979 129.679 102.979H130.722C131.032 102.979 131.147 102.96 131.147 102.922C131.147 102.864 131.079 102.691 131.001 102.536L130.346 101.213C130.278 101.089 130.239 101.021 130.171 101.021C130.114 101.021 130.036 101.225 130.016 101.272L129.381 102.593Z" fill="#696969"/>
</g>
<defs>
<clipPath id="clip0_836_77">
<rect width="160" height="160" fill="white"/>
</clipPath>
</defs>
</svg>
