<svg width="160" height="160" viewBox="0 0 160 160" fill="none" xmlns="http://www.w3.org/2000/svg">
<g clip-path="url(#clip0_836_75)">
<path fill-rule="evenodd" clip-rule="evenodd" d="M59.739 55.7422C59.739 55.7422 65.2091 56.08 67.3034 56.417C69.3296 56.7549 70.8826 57.4978 71.3558 57.7003C71.7608 57.9709 71.9634 57.9029 72.3012 57.9029C72.7063 57.9709 73.2467 57.9709 74.1921 58.3752C75.8805 59.1189 77.636 58.8483 78.379 58.9828C78.784 59.1181 79.1219 59.3206 79.4597 59.3206C79.8648 59.4559 80.6068 59.3206 81.6204 59.3206C82.5675 59.3206 83.3095 59.3206 84.1869 59.5231C84.7945 59.6584 85.2004 60.3333 87.0241 60.4686C88.4427 60.6711 88.3746 60.4013 89.4562 60.1988C91.9547 59.6584 93.1707 60.1307 95.8717 60.1988C98.5744 60.1988 101.275 60.266 101.815 60.1307C101.815 60.1307 102.018 61.1443 101.478 62.9671C101.344 63.4394 101.478 64.1823 101.344 64.9252C101.209 65.6681 101.344 66.0059 101.344 66.411C101.344 66.9514 102.086 68.1674 102.492 69.1129C102.965 70.0583 103.708 73.435 103.842 74.7855C103.976 76.2033 104.247 76.8117 104.721 77.5546C105.464 78.5673 105.598 79.7161 105.735 80.391C105.735 80.391 105.127 79.9187 104.653 79.7834C104.113 79.6481 103.639 79.5808 103.437 79.4463C103.032 79.1757 102.56 79.0413 102.289 79.0413C101.478 78.9732 100.6 78.7034 99.6543 78.2984C99.3173 78.1631 98.7089 77.8933 98.1013 77.6908C97.4273 77.5555 97.2903 77.6235 96.2112 77.4882C95.1977 77.2857 91.4159 76.1377 90.942 75.9352C90.4705 75.7999 89.6595 75.4629 89.1864 75.5301C88.8494 75.5301 88.309 75.7999 87.7678 75.7326C86.4854 75.5973 86.6198 75.3276 84.3911 75.3276C82.433 75.3276 81.0825 75.5982 78.3806 75.9352C75.6796 76.205 73.8559 76.0024 71.965 76.1377C70.0741 76.273 65.6167 76.5428 65.6167 76.5428C65.6167 76.5428 65.8192 74.0443 64.7385 69.7213C63.9948 66.6824 63.2527 64.1831 61.9694 60.7392C61.1568 58.4432 59.739 55.7422 59.739 55.7422Z" fill="white"/>
<path fill-rule="evenodd" clip-rule="evenodd" d="M11.2458 92.3481C11.2458 93.7666 11.5836 94.1717 12.5963 94.3742C13.2039 94.4406 13.677 94.5087 13.677 95.1171C13.677 95.7912 13.0014 95.7912 12.7308 95.7912C12.461 95.7912 10.9752 95.7248 9.6919 95.7248C8.81369 95.7248 8.07078 95.7912 7.80101 95.7912C7.66571 95.7912 7.05811 95.7912 7.05811 95.1171C7.05811 94.4415 7.66571 94.4415 8.34139 94.3742C9.21959 94.3062 9.48937 94.1036 9.48937 92.3481V83.4332C9.48937 82.4877 9.48936 82.149 8.61116 82.0826C7.86908 82.0146 7.32954 82.0146 7.32954 81.4061C7.32954 80.7305 7.93714 80.7305 8.81535 80.7305C9.6255 80.7305 10.3012 80.7985 12.1921 80.7985C13.5426 80.7985 14.2174 80.7305 14.488 80.7305C15.0284 80.7305 15.1629 80.7985 15.4335 81.1355L21.3767 89.5109V83.8382C21.3767 82.2852 21.2414 82.149 20.1607 82.0146C19.6884 81.9465 19.2825 81.812 19.2825 81.3389C19.2825 80.7994 19.7548 80.7313 20.1607 80.7313C20.5666 80.7313 21.2414 80.7994 22.4575 80.7994C23.2004 80.7994 23.9433 80.7313 24.2131 80.7313C24.6181 80.7313 25.361 80.7994 25.361 81.475C25.361 82.0146 24.8207 82.0826 23.9433 82.2179C23.2684 82.286 23.2004 83.0289 23.2004 83.8391V94.9819C23.2004 95.5231 23.2004 95.8609 22.66 95.8609H20.6338C20.0943 95.8609 19.959 95.8609 19.6884 95.4558L11.3138 83.8382H11.2458V92.3481Z" fill="#696969"/>
<path fill-rule="evenodd" clip-rule="evenodd" d="M32.7228 80.3935C39.4771 80.3935 41.773 84.9181 41.773 88.0259C41.773 92.4144 37.856 96.1307 32.9926 96.1307C28.1973 96.1307 24.0096 92.7539 24.0096 88.1604C24.0105 83.2987 28.536 80.3935 32.7228 80.3935ZM29.7512 87.3494C29.7512 88.3629 30.2243 94.6432 33.3304 94.6432C35.8298 94.6432 35.9642 90.1185 35.9642 89.5781C35.9642 88.0915 35.4919 81.8793 32.3169 81.8793C30.1571 81.8801 29.7512 84.9862 29.7512 87.3494ZM139.839 91.3345C139.299 91.3345 139.165 91.3345 138.961 92.0102L138.759 92.8876C138.691 93.0901 138.691 93.2927 138.691 93.3607C138.691 93.9683 139.096 94.1717 139.772 94.3742C140.38 94.5768 140.65 94.6432 140.65 95.1171C140.65 95.7912 140.11 95.7912 139.907 95.7912C139.636 95.7912 138.623 95.7247 137.814 95.7247C136.53 95.7247 135.653 95.7912 135.314 95.7912C135.043 95.7912 134.437 95.7912 134.437 95.1835C134.437 94.644 134.908 94.5095 135.448 94.3742C135.853 94.2381 135.99 94.1717 136.664 92.5506L140.65 82.4196C140.852 82.0826 141.055 81.3381 141.191 80.9347C141.257 80.259 142.541 80.1909 143.283 80.1909C143.755 80.1909 145.107 80.259 145.31 80.596C145.444 80.8666 146.997 84.7837 147.268 85.4593C149.496 90.795 150.711 93.6986 151.117 94.0356C151.319 94.3062 151.455 94.3062 152.266 94.5087C152.401 94.5087 152.94 94.6432 152.94 95.1827C152.94 95.6559 152.333 95.7903 151.995 95.7903C151.387 95.7903 149.901 95.7239 148.28 95.7239C147.739 95.7239 144.904 95.7903 144.227 95.7903C144.025 95.7903 143.147 95.7903 143.147 95.1163C143.147 94.5087 143.687 94.4406 144.295 94.4406C144.632 94.3742 145.106 94.3742 145.106 93.9692C145.106 93.9011 145.106 93.7666 145.038 93.496L144.431 91.8749C144.229 91.3354 144.161 91.3354 143.283 91.3354L139.839 91.3345ZM142.81 89.6454C143.149 89.6454 143.351 89.579 143.351 89.3764C143.351 89.3084 143.351 89.1058 143.149 88.7688L141.594 84.7837L140.041 88.9033C139.907 89.1739 139.907 89.3764 139.907 89.4428C139.907 89.5789 139.907 89.6454 140.244 89.6454H142.81Z" fill="#696969"/>
<path fill-rule="evenodd" clip-rule="evenodd" d="M134.166 91.943C134.166 94.0356 134.166 94.3751 135.111 94.4415C135.585 94.4415 136.125 94.5095 136.125 95.1171C136.125 95.7912 135.585 95.7912 135.314 95.7912C135.179 95.7912 134.909 95.7247 132.14 95.7247C129.168 95.7247 128.899 95.7912 128.425 95.7912C128.155 95.7912 127.682 95.7912 127.682 95.1171C127.682 94.5095 128.222 94.4415 128.696 94.4415C129.573 94.3751 129.641 94.1045 129.641 91.943V84.5131C129.641 82.4885 129.573 82.149 128.696 82.0826C128.155 82.0146 127.817 81.812 127.817 81.407C127.817 81.0019 128.154 80.7313 128.424 80.7313C128.829 80.7313 129.909 80.7994 131.936 80.7994C134.097 80.7994 135.042 80.7313 135.312 80.7313C135.583 80.7313 136.123 80.7313 136.123 81.407C136.123 82.0146 135.584 82.0146 135.11 82.0826C134.164 82.149 134.164 82.4196 134.164 84.5131V91.943H134.166ZM105.597 80.3935C112.351 80.3935 114.648 84.9181 114.648 88.0259C114.648 92.4144 110.729 96.1307 105.867 96.1307C101.072 96.1307 96.8844 92.7539 96.8844 88.1604C96.8844 83.2987 101.409 80.3935 105.597 80.3935ZM102.693 87.3494C102.693 88.3629 103.098 94.6432 106.204 94.6432C108.705 94.6432 108.839 90.1185 108.839 89.5781C108.839 88.0915 108.366 81.8793 105.26 81.8793C103.03 81.8801 102.693 84.9862 102.693 87.3494ZM49.4727 89.984L51.8368 83.8382C52.0393 83.4996 52.1746 82.9592 52.1746 82.6902C52.1746 82.149 51.904 82.149 51.0258 81.9465C50.8233 81.9465 50.4862 81.8801 50.4862 81.407C50.4862 80.7994 50.9586 80.7313 51.4989 80.7313C51.7695 80.7313 52.7822 80.7994 53.5924 80.7994C54.1327 80.7994 55.2807 80.7313 55.4832 80.7313C55.753 80.7313 56.2934 80.7994 56.2934 81.407C56.2934 81.8801 55.8883 81.9465 55.1454 82.1499C54.605 82.2179 54.2 82.6911 53.6596 84.108L49.4047 94.9154C49.4047 94.9818 49.1349 95.7264 49.0668 95.7264C48.9996 95.8609 48.9315 95.8609 48.4592 95.8609H46.9053C46.1624 95.8609 46.1624 95.7264 45.8246 94.8474L41.705 83.9735C41.2999 82.8936 41.0301 82.3524 40.1511 82.1499C39.4763 82.0154 39.1384 81.9473 39.1384 81.407C39.1384 80.7313 39.9486 80.7313 40.2192 80.7313C40.8948 80.7313 42.853 80.7994 44.1362 80.7994C45.1498 80.7994 47.3777 80.7313 47.918 80.7313C48.1886 80.7313 48.7962 80.7313 48.7962 81.407C48.7962 81.8801 48.4584 81.9465 47.85 82.0826C47.2424 82.2171 47.1071 82.4877 47.1071 82.7566C47.1071 83.1617 47.2424 83.6357 47.3768 83.9727L49.4727 89.984ZM56.0244 91.3345C55.4841 91.3345 55.3488 91.3345 55.1462 92.0102L54.9437 92.8876C54.8756 93.0901 54.8756 93.2927 54.8756 93.3607C54.8756 93.9683 55.2807 94.1717 55.9564 94.3742C56.564 94.5768 56.8346 94.6432 56.8346 95.1171C56.8346 95.7912 56.2942 95.7912 56.0917 95.7912C55.8219 95.7912 54.8084 95.7247 53.9983 95.7247C52.715 95.7247 51.8368 95.7912 51.4989 95.7912C51.2283 95.7912 50.6207 95.7912 50.6207 95.1835C50.6207 94.644 51.093 94.5095 51.6334 94.3742C52.0385 94.2381 52.1738 94.1717 52.8494 92.5506L56.8338 82.4196C56.9691 82.0826 57.2397 81.3381 57.3069 80.9347C57.4422 80.259 58.7246 80.1909 59.4684 80.1909C59.8734 80.1909 61.292 80.259 61.4946 80.596C61.6299 80.8666 63.1157 84.7837 63.4535 85.4593C65.615 90.795 66.8975 93.6986 67.3034 94.0356C67.5059 94.3062 67.6412 94.3062 68.3841 94.5087C68.5866 94.5087 69.127 94.6432 69.127 95.1827C69.127 95.6559 68.5194 95.7903 68.1816 95.7903C67.574 95.7903 66.0881 95.7239 64.467 95.7239C63.9267 95.7239 61.0903 95.7903 60.4146 95.7903C60.144 95.7903 59.3339 95.7903 59.3339 95.1163C59.3339 94.5087 59.8062 94.4406 60.4819 94.4406C60.8189 94.3742 61.2929 94.3742 61.2929 93.9692C61.2929 93.9011 61.2929 93.7666 61.2248 93.496L60.6164 91.8749C60.4138 91.3354 60.2793 91.3354 59.4684 91.3354L56.0244 91.3345ZM58.9952 89.6454C59.3331 89.6454 59.5356 89.579 59.5356 89.3764C59.5356 89.3084 59.4676 89.1058 59.3331 88.7688L57.7792 84.7837L56.2261 88.9033C56.0908 89.1739 56.0908 89.3764 56.0908 89.4428C56.0908 89.5789 56.0908 89.6454 56.4287 89.6454H58.9952ZM71.2877 92.011C71.2877 91.8068 71.2877 90.5244 72.3012 90.5244C73.2466 90.5244 73.6517 91.7404 73.8551 92.5506C74.1929 93.6986 74.1248 94.6432 75.8132 94.6432C77.3671 94.6432 78.1772 93.8322 78.1772 92.8195C78.1772 91.469 76.8939 90.795 74.9358 89.8479C73.2475 89.0386 71.2885 88.0259 71.2885 85.2568C71.2885 80.3935 76.9612 80.3935 77.8402 80.3935C78.9882 80.3935 80.2715 80.5279 82.0951 80.9347C82.4321 81.0011 82.5002 81.1355 82.5002 81.5406V83.4323C82.5002 83.9719 82.5002 84.7828 81.5547 84.7828C80.8791 84.7828 80.811 84.6484 80.1362 83.2978C79.8664 82.7566 79.3933 81.8793 78.178 81.8793C77.2998 81.8793 76.4897 82.4869 76.4897 83.4323C76.4897 84.5803 77.3007 84.9854 80.0017 86.0653C80.8799 86.472 83.1086 87.5519 83.1086 90.5236C83.1086 93.7658 80.4748 96.1298 76.2872 96.1298C75.8821 96.1298 73.8559 96.0618 72.0322 95.2508C71.5599 95.0482 71.2893 94.7776 71.2893 94.0347V92.011H71.2877Z" fill="#696969"/>
<path fill-rule="evenodd" clip-rule="evenodd" d="M97.2894 94.0354C97.2894 94.8464 97.0869 95.049 96.5465 95.3196C94.5884 96.1969 92.8984 96.1305 92.2244 96.1305C86.145 96.1305 83.5784 91.8067 83.5784 88.2283C83.5784 83.365 87.4291 80.3933 92.4933 80.3933C94.1144 80.3933 95.87 80.7984 96.4785 81.069C97.0197 81.2035 97.0197 81.4741 97.0861 81.9464L97.1541 83.4994C97.2222 83.702 97.2222 83.8381 97.2222 83.9045C97.2222 84.1751 97.2222 84.8516 96.3432 84.8516C95.6003 84.8516 95.1271 84.3104 94.5876 83.4994C93.8447 82.285 93.4396 81.88 92.358 81.88C90.1285 81.88 89.1838 84.7835 89.1838 87.9577C89.1838 93.1589 91.2781 94.6439 92.6286 94.6439C93.7766 94.6439 94.2497 93.8329 94.9926 92.4824C95.2616 91.8748 95.5322 91.1999 96.3432 91.1999C96.9508 91.1319 97.2886 91.7395 97.2886 92.2135L97.2894 94.0354ZM113.566 81.1354C113.701 80.6639 114.039 80.258 114.714 80.258C115.051 80.19 115.457 80.3244 115.862 80.527C116.065 80.6631 116.335 80.7976 117.417 80.7976H124.306C125.385 80.7976 125.385 80.7295 125.791 80.527C126.33 80.3244 126.67 80.19 127.075 80.19C127.614 80.19 127.952 80.527 127.952 80.9337V83.7011C127.952 84.6482 127.683 84.9172 127.007 84.9172C126.467 84.9172 126.196 84.5121 125.927 83.7011C125.522 82.7557 125.319 82.4868 124.237 82.4868H123.9C123.09 82.4868 123.09 82.5532 123.09 83.4322V91.942C123.09 94.0346 123.158 94.3741 124.103 94.4405C124.643 94.4405 125.251 94.5086 125.251 95.1162C125.251 95.7902 124.643 95.7902 124.372 95.7902C124.035 95.7902 123.292 95.7238 120.589 95.7238C119.104 95.7238 117.214 95.7902 116.875 95.7902C116.606 95.7902 115.997 95.7902 115.997 95.1162C115.997 94.5086 116.605 94.4405 117.145 94.4405C118.159 94.3741 118.159 94.1035 118.159 91.942V83.4322C118.159 82.6212 118.159 82.4868 117.551 82.4868C115.862 82.4868 115.796 82.6212 115.254 83.4986C114.511 84.5802 114.308 84.7146 113.566 84.7146C113.229 84.7146 112.823 84.4457 112.823 84.0406C112.823 83.8381 112.89 83.6356 112.89 83.433L113.566 81.1354ZM59.739 55.7421C59.739 55.7421 65.2091 56.0799 67.3033 56.4169C69.3295 56.7547 70.8826 57.4976 71.3557 57.7002C71.7608 57.9708 71.9633 57.9027 72.3012 57.9027C72.7062 57.9708 73.2466 57.9708 74.192 58.375C75.8804 59.1188 77.636 58.8482 78.3789 58.9826C78.784 59.1179 79.1218 59.3205 79.4596 59.3205C79.8647 59.4558 80.6068 59.3205 81.6203 59.3205C82.5674 59.3205 83.3095 59.3205 84.1869 59.523C84.7945 59.6583 85.2004 60.3331 87.024 60.4685C88.4426 60.671 88.3745 60.4012 89.4561 60.1987C91.9546 59.6583 93.1707 60.1306 95.8717 60.1987C98.5744 60.1987 101.275 60.2659 101.815 60.1306C101.815 60.1306 102.017 61.1441 101.478 62.9669C101.343 63.4393 101.478 64.1822 101.343 64.9251C101.209 65.668 101.343 66.0058 101.343 66.4109C101.343 66.9513 102.086 68.1673 102.491 69.1127C102.965 70.0582 103.707 73.4349 103.842 74.7854C103.976 76.2032 104.247 76.8116 104.721 77.5545C105.464 78.5672 105.598 79.716 105.735 80.3908C105.735 80.3908 105.127 79.9185 104.653 79.7832C104.113 79.6479 103.639 79.5807 103.437 79.4462C103.032 79.1756 102.56 79.0412 102.289 79.0412C101.478 78.9731 100.6 78.7033 99.6543 78.2982C99.3173 78.1629 98.7088 77.8932 98.1012 77.6906C97.4272 77.5553 97.2903 77.6234 96.2112 77.4881C95.1977 77.2856 91.4159 76.1376 90.9419 75.9351C90.4704 75.7998 89.6595 75.4627 89.1863 75.53C88.8493 75.53 88.309 75.7997 87.7678 75.7325C86.4853 75.5972 86.6198 75.3274 84.3911 75.3274C82.4329 75.3274 81.0824 75.598 78.3806 75.9351C75.6795 76.2048 73.8559 76.0023 71.965 76.1376C70.0741 76.2729 65.6166 76.5427 65.6166 76.5427C65.6166 76.5427 65.8192 74.0442 64.7384 69.7212C63.9947 66.6823 63.2526 64.183 61.9693 60.7391C61.1567 58.4431 59.739 55.7421 59.739 55.7421ZM86.6189 63.3737H86.2819V63.3056C87.2274 63.1703 87.4299 63.1703 87.9695 62.9678C88.6451 62.698 89.1191 62.4274 89.388 62.2921C89.9957 61.887 90.536 61.8198 90.8066 61.7517C91.4823 61.5492 92.6303 61.2122 93.3051 61.0088C94.0489 60.7382 94.2522 60.5357 94.2522 60.5357C92.6975 60.4004 91.2806 60.1306 89.3889 60.5357C88.309 60.7382 88.3754 61.0088 87.0249 60.8735C85.2012 60.671 84.7289 59.9953 84.1213 59.86C83.2422 59.6575 82.5682 59.6575 81.6211 59.6575C80.5412 59.6575 79.7983 59.7928 79.3932 59.7247C79.1226 59.6575 78.7176 59.4549 78.3125 59.3869C77.5696 59.1843 75.814 59.4549 74.1256 58.712C73.2474 58.307 72.3701 58.307 72.0322 58.307C72.0322 58.307 72.7071 58.7801 73.113 59.0499C73.5853 59.2524 74.1265 59.523 74.5988 59.7247C75.6123 60.1298 76.625 60.6029 77.0981 61.008C77.6385 61.5475 78.9218 62.2904 79.5974 62.561L79.5294 62.6291C79.5294 62.6291 79.4613 62.561 79.2588 62.561C79.2588 62.8989 79.2588 63.5746 79.3268 63.7763C79.3268 64.0469 79.2588 64.5192 79.3949 64.9242C79.3949 65.0595 79.5974 65.9377 79.6647 66.0722C79.7327 66.3428 79.8 66.6798 79.8672 67.0177C79.9344 67.3555 80.137 67.7606 80.3395 68.0984C80.5429 68.706 81.4875 69.7868 82.501 70.3271C82.501 70.3271 81.622 69.9893 81.2169 70.2591C80.8118 70.5297 80.0017 70.7322 79.5294 71.07C79.0562 71.3398 78.9218 71.7449 78.6512 71.8129C78.4486 71.881 78.3133 71.881 77.9082 72.0836C77.5704 72.2861 76.0174 73.366 75.5442 73.5013C75.0711 73.7038 75.2064 73.7038 74.8685 73.9744C74.5307 74.3114 74.3282 74.4467 74.1256 74.7846C73.8559 75.0544 73.8559 75.1897 73.4508 75.3922C73.0457 75.662 73.113 75.662 73.113 75.662C74.5988 75.662 76.1527 75.73 78.2461 75.5267C80.9479 75.1888 82.2985 74.9191 84.2566 74.9191C86.4861 74.9191 86.3492 75.1888 87.7014 75.3241C88.2409 75.3922 88.7149 75.1216 89.1199 75.0535C89.5233 75.0535 90.4704 75.3914 90.9419 75.5267C91.4151 75.7292 95.0615 76.8772 96.075 77.0797C96.9541 77.1478 97.4936 77.1478 97.4936 77.1478C96.886 76.8099 96.2776 76.1343 95.6036 75.7292C94.996 75.3914 94.7926 75.1888 93.3059 74.3787C92.0235 73.6358 91.4159 73.3652 90.673 72.8248C90.3343 72.6223 90.0654 72.2853 89.9292 72.15C89.7267 72.0827 89.5242 71.9474 89.1199 71.9474C88.5123 71.8121 87.7014 71.407 87.2282 71.0692C86.5542 70.5969 86.0122 70.7314 86.0122 70.7314C86.4172 70.6633 87.0257 69.5834 87.2282 68.7724C87.2282 68.5026 87.3627 68.0295 87.1601 67.4891C87.0257 66.9488 86.6206 65.5983 86.6206 65.1932C86.6189 64.7242 86.6189 63.5762 86.6189 63.3737ZM67.9101 71.8835C68.5858 71.4784 69.6665 70.87 70.4767 70.2624C71.2868 69.5875 71.6919 69.6548 72.5701 69.0472C73.4483 68.4396 73.9206 68.0345 74.8661 67.4261C75.7443 66.8185 76.9595 66.21 76.9595 66.21C76.9595 66.21 75.609 64.8595 73.3122 63.7787C72.434 63.3064 70.3405 62.5635 69.8002 62.2929C69.2598 62.0232 68.7194 61.4828 68.3144 61.2803C67.9101 61.0096 67.2353 60.8744 66.4251 60.6718C65.6814 60.4693 65.4116 60.1995 64.9393 59.9289C64.3989 59.5911 64.0611 59.4566 63.5207 59.3213C62.917 59.1681 62.3089 59.033 61.6971 58.9162C61.9677 59.5238 62.2375 60.1314 62.44 60.7399C63.7233 64.1838 64.4662 66.6831 65.2091 69.6548C65.5469 71.0053 65.7495 72.1541 65.8839 73.1668C65.8848 73.1668 67.2353 72.2213 67.9101 71.8835ZM104.517 77.9621C104.381 77.8268 104.449 77.8268 104.314 77.6915C103.841 77.0166 103.571 76.341 103.435 74.9896C103.301 73.5719 102.558 70.1952 102.085 69.2489C101.68 68.3034 100.937 67.0874 100.937 66.5478C100.869 66.1428 100.801 65.8722 100.937 65.062C101.005 64.3191 100.937 63.5762 101.071 63.1031C101.071 63.1031 100.598 63.5762 100.126 63.7107C99.6526 63.846 99.0442 63.846 98.3021 64.0485C97.6281 64.3191 96.681 64.7234 96.1406 64.994C95.6011 65.1965 94.7901 65.6688 94.385 65.9394C93.98 66.2092 93.506 66.1419 93.169 66.2772C92.832 66.4798 92.2916 66.9521 91.684 67.1555C91.1428 67.358 90.0629 67.8984 90.0629 67.8984C90.0629 67.8984 91.5479 68.7766 91.9529 69.3161C92.358 69.8565 92.4925 69.8565 92.832 69.9918C93.169 70.1943 93.506 70.5322 93.8455 70.7347C94.1144 70.9372 94.7909 71.3423 95.2624 71.6801C95.7355 72.018 97.56 72.8954 97.9651 73.0979C98.5727 73.3677 99.045 73.7055 99.3837 73.9089C99.7207 74.1786 100.532 74.5837 100.734 74.719C100.937 74.7871 101.477 75.2594 102.017 75.7325C102.287 76.0023 102.49 76.5427 102.828 76.7452C103.233 76.9477 103.435 77.2856 103.707 77.4881C104.044 77.7595 104.517 77.9621 104.517 77.9621ZM59.2658 55.4723C59.3339 55.337 59.4011 55.2017 59.4011 54.9992C59.4011 54.4588 58.9952 54.0537 58.4548 54.0537C57.9825 54.0537 57.5094 54.4588 57.5094 54.9992C57.5094 55.4042 57.7792 55.7421 58.1842 55.8774L70.0035 96.5356L71.0835 96.1969L59.2658 55.4723Z" fill="#696969"/>
<path fill-rule="evenodd" clip-rule="evenodd" d="M82.77 65.6699L82.7019 65.738C82.7019 65.738 82.5674 65.6699 82.4994 65.5354C82.4994 65.5354 82.2968 65.5354 82.2968 65.3329C82.2968 65.3329 82.1624 65.1976 82.0943 65.2648C82.0943 65.2648 81.9598 65.0623 82.2288 64.8597C82.2288 64.8597 82.1623 64.6572 82.3649 64.6572C82.3649 64.6572 82.4313 64.4547 82.7019 64.4547C82.7019 64.4547 82.7019 64.3194 83.0389 64.3866C83.0389 64.3866 82.9725 64.1841 82.5674 64.1841C82.5674 64.1841 82.0262 64.116 82.2288 63.779C82.2288 63.779 82.2968 64.0496 82.4994 63.9143C82.4994 63.9143 82.7019 63.9824 82.9044 64.1168C82.9044 64.1168 83.107 64.1849 83.107 64.1168L82.8364 63.9815C82.8364 63.9815 82.4994 63.8462 82.4994 63.6437C82.4994 63.6437 82.2288 63.3059 82.4994 63.3739C82.4994 63.3739 82.77 63.3739 82.9725 63.4412C82.9725 63.4412 83.3776 63.3739 83.3776 63.1714C83.3776 63.1714 83.6465 63.3739 83.7146 63.5765L83.849 63.5084C83.849 63.5084 83.9171 63.9807 84.0516 64.0488L84.186 64.2513C84.186 64.2513 84.0516 64.3194 84.0516 64.3866C84.0516 64.4547 84.3222 64.7917 84.3222 64.7917C84.3222 64.7917 84.3222 64.8597 84.186 64.7917C84.186 64.7917 84.0516 65.264 84.3886 65.6699C84.3886 65.6699 84.3886 65.8052 83.9171 65.8052C83.9171 65.8052 83.781 65.8052 83.7146 65.6699C83.7146 65.6699 83.7146 65.738 83.5784 65.8052C83.5784 65.8052 83.512 65.6027 83.0389 65.8733C83.0389 65.8724 82.9044 65.6699 82.77 65.6699Z" fill="#696969"/>
<path fill-rule="evenodd" clip-rule="evenodd" d="M84.1869 66.0074C84.1869 66.0074 84.0524 66.0755 84.0524 66.2099L83.8499 66.1427C83.8499 66.1427 83.8499 66.278 83.7154 66.278L83.6474 66.1427C83.6474 66.1427 83.4448 66.0746 83.2423 66.1427C83.2423 66.1427 83.1078 66.1427 83.1078 66.278C83.1078 66.278 82.9053 66.2099 82.9053 66.1427L82.7708 66.2099C82.7708 66.2099 82.6347 66.1427 82.5683 65.9402C82.5683 65.9402 82.5002 65.8721 82.4321 65.9402C82.4321 65.9402 82.2977 65.8049 82.2977 65.7376C82.2977 65.7376 82.1632 65.8049 82.2977 66.0074C82.2977 66.0074 81.8926 66.2099 81.2842 66.2099C81.2842 66.2099 81.2161 66.0746 81.0816 65.9402C81.0816 65.9402 80.8791 65.8049 80.811 65.9402L81.0152 66.0755H80.7446C80.7446 66.0755 80.7446 66.2108 80.811 66.278C80.811 66.278 80.811 66.3461 81.1497 66.3461C81.1497 66.3461 81.2161 66.4133 81.1497 66.4814C81.1497 66.4814 80.9472 66.3461 81.0816 66.6839C81.0816 66.6839 81.2842 66.752 81.3522 66.6839V66.5486H81.4867C81.4867 66.5486 81.5548 66.6839 81.6212 66.8856C81.6212 66.8856 81.7573 66.8184 81.8237 66.5486C81.8237 66.5486 82.0262 66.5486 82.0943 66.7511C82.0943 66.7511 82.0943 66.4805 82.3649 66.6158L82.2968 66.6839C82.2968 66.6839 82.4313 66.8192 82.4994 66.6158C82.4994 66.6158 82.6339 66.5486 82.6339 66.7511C82.6339 66.7511 82.77 66.6831 82.77 66.6158C82.77 66.6158 83.1751 66.7511 82.9725 66.8856C82.9725 66.8856 83.107 67.0209 83.1751 66.8856C83.1751 66.8856 83.5785 67.3587 84.0524 67.6966C84.0524 67.6966 84.255 67.8991 84.1869 68.2369C84.1869 68.2369 84.0524 68.7093 84.592 69.1824C84.592 69.1824 84.7945 69.3177 85.1996 69.3177C85.1996 69.3177 84.997 69.5202 84.7281 69.6555C84.7281 69.6555 84.592 69.7236 84.66 70.1287C84.66 70.1287 84.4575 70.1967 84.255 70.0614C84.255 70.0614 83.9844 69.9261 83.9844 70.1967C83.9844 70.1967 84.1869 70.1287 84.255 70.1967C84.255 70.1967 83.9844 70.264 84.1205 70.6018C84.1205 70.6018 84.323 70.669 84.592 70.3312L84.66 70.3993C84.66 70.3993 84.323 70.4665 84.8626 70.9388C84.8626 70.9388 84.7945 70.4665 84.9971 70.4665C84.9971 70.4665 85.1996 70.5346 85.1996 70.8043C85.1996 70.8043 85.3357 70.5337 85.4021 70.4665C85.4021 70.4665 85.0651 70.1287 85.4702 70.1967C85.4702 70.1967 85.5383 70.1287 85.4021 69.9942C85.4021 69.9942 85.6047 69.927 85.6727 70.0623C85.6727 70.0623 85.6047 69.927 85.6727 69.8597L85.9433 69.9278C85.9433 69.9278 85.6047 69.7244 86.1442 69.5219C86.1442 69.5219 85.8753 69.3866 86.1442 69.3866C86.1442 69.3866 86.2123 69.3866 86.2123 69.1168C86.2123 69.1168 85.4013 69.5219 85.3349 68.5764C85.3349 68.5764 85.8064 68.4411 85.9425 68.9143C85.9425 68.9143 86.077 68.8462 85.9425 68.5092C85.9425 68.5092 86.3459 68.5764 85.9425 67.5638C85.9425 67.5638 85.9425 67.4957 86.1434 67.4285C86.1434 67.4285 86.5501 67.1579 85.8744 66.8881C85.8744 66.8881 86.1434 67.2932 85.8064 67.3612C85.8064 67.3612 85.0635 66.3485 85.5374 65.4703C85.5374 65.4703 85.74 64.998 85.6719 64.5249C85.6038 64.1198 85.1324 63.5794 84.5239 63.9173C84.5239 63.9173 84.9954 64.0526 84.929 64.4577C84.8609 64.7274 84.5239 64.998 84.7264 65.7409C84.7929 66.146 84.9954 66.5519 85.266 66.9562C85.266 66.9562 85.4685 67.1587 85.5366 67.3612C85.5366 67.3612 85.4005 67.2932 85.266 67.2932C85.266 67.2932 84.7929 67.1579 85.266 67.6982C85.266 67.6982 84.929 67.3604 85.6711 67.5629C85.6711 67.5629 86.2106 68.3058 85.7391 68.4411C85.7391 68.4411 85.4005 68.4411 85.1979 68.1033C85.1979 68.1033 84.7929 67.5629 84.6584 67.3604C84.66 67.3579 84.1205 66.8184 84.1869 66.0074Z" fill="#696969"/>
<path fill-rule="evenodd" clip-rule="evenodd" d="M83.918 68.0339C83.918 68.0339 83.5129 67.696 83.4449 67.628C83.4449 67.628 83.2423 67.4927 83.0398 67.628C83.0398 67.628 82.7709 67.7633 82.9053 68.2364C82.9053 68.2364 82.8373 68.2364 82.7028 68.1011C82.7028 68.1011 82.4322 67.8986 82.2297 67.8305C82.2297 67.8305 81.8927 67.5607 81.8246 67.4254C81.8246 67.4254 81.5557 67.2229 81.3531 67.4254C81.3531 67.4254 81.4876 67.4927 81.4876 67.628C81.4876 67.628 81.6221 67.7633 81.8246 67.696V67.8313C81.8246 67.8313 81.217 67.6288 81.4195 68.0347C81.4195 68.0347 81.5556 67.9666 81.6901 68.1019C81.6901 68.1019 81.8246 68.17 81.8927 68.0347C81.8927 68.0347 82.0952 68.17 81.8246 68.3725C81.8246 68.3725 82.0271 68.5078 82.2297 68.2372C82.2297 68.2372 82.4322 68.3045 82.5003 68.6423C82.5003 68.6423 82.7028 68.5742 82.8373 68.9129C82.8373 68.9129 82.9734 68.7104 82.9734 69.0482C82.9734 69.0482 83.1759 69.1835 83.3104 69.0482C83.3104 69.0482 83.3785 69.318 83.7819 69.2507C83.7819 69.2507 83.039 68.6431 84.0525 68.7112C84.0525 68.7095 83.8499 68.3717 83.918 68.0339ZM81.3514 62.9688C81.3514 62.9688 81.6885 63.1041 81.3514 63.3739C81.3514 63.3739 81.1489 63.5764 81.554 64.2521C81.554 64.2521 81.8229 64.7925 81.7565 65.0631C81.7565 65.0631 81.8229 65.3328 82.0255 65.5354C82.0255 65.5354 81.891 65.6707 81.9591 65.8051C81.9591 65.8051 81.6885 65.7379 81.4859 65.5354C81.4859 65.5354 81.1489 65.5354 81.0144 65.4001C81.0144 65.4001 81.2153 65.4001 81.2153 65.2648C81.2153 65.2648 81.1489 65.0622 80.9464 65.0622C80.9464 65.0622 81.2834 65.1295 81.0144 64.5219C81.0144 64.5219 81.2834 64.3865 80.9464 63.7789C80.9464 63.7789 80.5413 63.9815 80.4732 63.3739C80.4732 63.3739 80.5413 63.4411 80.6758 63.4411C80.6758 63.4411 80.7438 63.4411 80.7438 63.5764C80.7438 63.5764 81.0144 63.5764 80.7438 63.3739C80.7438 63.3739 80.6077 63.4411 80.6077 63.2386C80.6077 63.2386 80.6077 63.036 80.406 63.036C80.406 63.036 80.6077 62.8335 80.9464 63.2386C80.9464 63.2386 81.1489 63.1713 80.8102 62.8335C80.8102 62.8335 81.0809 62.8335 81.2834 63.1713C81.2834 63.1713 81.4179 63.1033 81.3514 62.9688Z" fill="#696969"/>
</g>
<defs>
<clipPath id="clip0_836_75">
<rect width="160" height="160" fill="white"/>
</clipPath>
</defs>
</svg>
