<svg width="1405" height="245" viewBox="0 0 1405 245" fill="none" xmlns="http://www.w3.org/2000/svg">
<g clip-path="url(#clip0_618_398)">
<g opacity="0.15">
<mask id="path-1-outside-1_618_398" maskUnits="userSpaceOnUse" x="13" y="38.8984" width="1385" height="168" fill="black">
<rect fill="white" x="13" y="38.8984" width="1385" height="168"/>
<path d="M14.1298 202.898V42.785H48.3763V202.898H14.1298ZM117.759 202.898V42.785H152.005V202.898H117.759ZM30.1411 106.386H133.325V132.626H30.1411V106.386ZM251.574 205.122C239.714 205.122 228.743 203.121 218.662 199.118C208.729 195.115 200.056 189.482 192.643 182.217C185.379 174.804 179.671 166.058 175.52 155.976C171.517 145.747 169.516 134.48 169.516 122.175C169.516 105.867 173 91.6344 179.968 79.4777C186.936 67.1726 196.572 57.6103 208.877 50.7907C221.33 43.971 235.489 40.5612 251.352 40.5612C267.511 40.5612 281.744 43.971 294.049 50.7907C306.354 57.6103 315.99 67.1726 322.958 79.4777C330.074 91.7827 333.632 106.089 333.632 122.397C333.632 134.554 331.557 145.747 327.406 155.976C323.403 166.058 317.695 174.804 310.282 182.217C303.018 189.482 294.345 195.115 284.264 199.118C274.331 203.121 263.434 205.122 251.574 205.122ZM251.352 177.992C260.692 177.992 268.92 175.62 276.036 170.876C283.152 166.132 288.711 159.609 292.714 151.306C296.865 142.856 298.941 133.071 298.941 121.952C298.941 110.981 296.939 101.419 292.937 93.2652C288.934 85.1113 283.374 78.8105 276.258 74.3629C269.142 69.9153 260.84 67.6915 251.352 67.6915C242.012 67.6915 233.784 69.9153 226.667 74.3629C219.551 78.8105 213.992 85.1113 209.989 93.2652C206.134 101.271 204.207 110.833 204.207 121.952C204.207 133.219 206.209 143.078 210.211 151.529C214.214 159.831 219.774 166.354 226.89 171.098C234.006 175.694 242.16 177.992 251.352 177.992ZM351.171 202.898V42.785H385.417V202.898H351.171ZM367.182 202.898V176.658H462.36V202.898H367.182ZM547.136 205.122C535.275 205.122 524.305 203.121 514.224 199.118C504.291 195.115 495.618 189.482 488.205 182.217C480.941 174.804 475.233 166.058 471.082 155.976C467.079 145.747 465.078 134.48 465.078 122.175C465.078 105.867 468.562 91.6344 475.529 79.4777C482.497 67.1726 492.134 57.6103 504.439 50.7907C516.892 43.971 531.05 40.5612 546.913 40.5612C563.073 40.5612 577.305 43.971 589.61 50.7907C601.915 57.6103 611.552 67.1726 618.52 79.4777C625.636 91.7827 629.194 106.089 629.194 122.397C629.194 134.554 627.118 145.747 622.967 155.976C618.964 166.058 613.257 174.804 605.844 182.217C598.58 189.482 589.907 195.115 579.826 199.118C569.893 203.121 558.996 205.122 547.136 205.122ZM546.913 177.992C556.253 177.992 564.481 175.62 571.598 170.876C578.714 166.132 584.273 159.609 588.276 151.306C592.427 142.856 594.503 133.071 594.503 121.952C594.503 110.981 592.501 101.419 588.498 93.2652C584.496 85.1113 578.936 78.8105 571.82 74.3629C564.704 69.9153 556.402 67.6915 546.913 67.6915C537.573 67.6915 529.345 69.9153 522.229 74.3629C515.113 78.8105 509.554 85.1113 505.551 93.2652C501.696 101.271 499.769 110.833 499.769 121.952C499.769 133.219 501.77 143.078 505.773 151.529C509.776 159.831 515.335 166.354 522.452 171.098C529.568 175.694 537.722 177.992 546.913 177.992ZM683.079 202.898L740.453 42.785H769.807L717.103 202.898H683.079ZM800.496 202.898L748.014 42.785H778.702L836.076 202.898H800.496ZM713.323 140.854H803.164V167.54H713.323V140.854ZM852.387 202.898V42.785H886.633V202.898H852.387ZM868.398 202.898V176.658H963.576V202.898H868.398ZM983.337 202.898V42.785H1017.58V202.898H983.337ZM999.348 202.898V176.658H1102.53V202.898H999.348ZM999.348 133.961V108.165H1094.75V133.961H999.348ZM999.348 69.0258V42.785H1099.86V69.0258H999.348ZM1119.91 202.898V42.785H1191.52C1203.08 42.785 1213.16 44.7864 1221.76 48.7892C1230.36 52.6438 1237.03 58.1292 1241.78 65.2453C1246.52 72.3615 1248.89 80.6637 1248.89 90.1519C1248.89 99.4918 1246.52 107.72 1241.78 114.836C1237.03 121.804 1230.36 127.289 1221.76 131.292C1213.16 135.147 1203.08 137.074 1191.52 137.074H1147.04V111.945H1190.63C1198.78 111.945 1205.01 110.092 1209.31 106.386C1213.76 102.531 1215.98 97.1939 1215.98 90.3743C1215.98 83.4064 1213.83 78.1434 1209.53 74.5853C1205.23 70.879 1198.93 69.0258 1190.63 69.0258H1154.16V202.898H1119.91ZM1210.2 202.898L1145.93 119.728H1182.18L1256.45 202.898H1210.2ZM1310.17 202.898V69.0258H1257.91V42.785H1396.68V69.0258H1344.42V202.898H1310.17Z"/>
</mask>
<path d="M14.1298 202.898H13.1298V203.898H14.1298V202.898ZM14.1298 42.785V41.785H13.1298V42.785H14.1298ZM48.3763 42.785H49.3763V41.785H48.3763V42.785ZM48.3763 202.898V203.898H49.3763V202.898H48.3763ZM117.759 202.898H116.759V203.898H117.759V202.898ZM117.759 42.785V41.785H116.759V42.785H117.759ZM152.005 42.785H153.005V41.785H152.005V42.785ZM152.005 202.898V203.898H153.005V202.898H152.005ZM30.1411 106.386V105.386H29.1411V106.386H30.1411ZM133.325 106.386H134.325V105.386H133.325V106.386ZM133.325 132.626V133.626H134.325V132.626H133.325ZM30.1411 132.626H29.1411V133.626H30.1411V132.626ZM15.1298 202.898V42.785H13.1298V202.898H15.1298ZM14.1298 43.785H48.3763V41.785H14.1298V43.785ZM47.3763 42.785V202.898H49.3763V42.785H47.3763ZM48.3763 201.898H14.1298V203.898H48.3763V201.898ZM118.759 202.898V42.785H116.759V202.898H118.759ZM117.759 43.785H152.005V41.785H117.759V43.785ZM151.005 42.785V202.898H153.005V42.785H151.005ZM152.005 201.898H117.759V203.898H152.005V201.898ZM30.1411 107.386H133.325V105.386H30.1411V107.386ZM132.325 106.386V132.626H134.325V106.386H132.325ZM133.325 131.626H30.1411V133.626H133.325V131.626ZM31.1411 132.626V106.386H29.1411V132.626H31.1411ZM218.662 199.118L218.288 200.046L218.293 200.047L218.662 199.118ZM192.643 182.217L191.929 182.917L191.936 182.924L191.943 182.931L192.643 182.217ZM175.52 155.976L174.589 156.341L174.592 156.349L174.595 156.357L175.52 155.976ZM179.968 79.4777L180.835 79.9749L180.838 79.9704L179.968 79.4777ZM208.877 50.7907L208.397 49.9135L208.392 49.916L208.877 50.7907ZM294.049 50.7907L293.564 51.6653L294.049 50.7907ZM322.958 79.4777L322.088 79.9704L322.092 79.9783L322.958 79.4777ZM327.406 155.976L326.479 155.6L326.476 155.607L327.406 155.976ZM310.282 182.217L310.989 182.924L310.282 182.217ZM284.264 199.118L283.895 198.189L283.89 198.19L284.264 199.118ZM276.036 170.876L275.481 170.044L276.036 170.876ZM292.714 151.306L291.817 150.865L291.814 150.872L292.714 151.306ZM276.258 74.3629L275.728 75.2109L276.258 74.3629ZM226.667 74.3629L227.197 75.2109L226.667 74.3629ZM209.989 93.2652L209.091 92.8245L209.088 92.8314L209.989 93.2652ZM210.211 151.529L209.308 151.957L209.311 151.963L210.211 151.529ZM226.89 171.098L226.335 171.93L226.341 171.934L226.347 171.938L226.89 171.098ZM251.574 204.122C239.828 204.122 228.984 202.141 219.031 198.189L218.293 200.047C228.502 204.101 239.599 206.122 251.574 206.122V204.122ZM219.036 198.19C209.22 194.235 200.659 188.673 193.343 181.503L191.943 182.931C199.453 190.29 208.237 195.995 218.288 200.046L219.036 198.19ZM193.358 181.517C186.188 174.201 180.549 165.564 176.445 155.596L174.595 156.357C178.793 166.551 184.57 175.408 191.929 182.917L193.358 181.517ZM176.451 155.612C172.499 145.512 170.516 134.37 170.516 122.175H168.516C168.516 134.589 170.535 145.982 174.589 156.341L176.451 155.612ZM170.516 122.175C170.516 106.012 173.967 91.9571 180.835 79.9749L179.1 78.9804C172.032 91.3117 168.516 105.721 168.516 122.175H170.516ZM180.838 79.9704C187.715 67.8249 197.219 58.3951 209.362 51.6653L208.392 49.916C195.925 56.8255 186.156 66.5204 179.098 78.9849L180.838 79.9704ZM209.357 51.6678C221.647 44.9379 235.636 41.5612 251.352 41.5612V39.5612C235.341 39.5612 221.014 43.0042 208.397 49.9136L209.357 51.6678ZM251.352 41.5612C267.367 41.5612 281.428 44.9394 293.564 51.6653L294.533 49.916C282.059 43.0026 267.655 39.5612 251.352 39.5612V41.5612ZM293.564 51.6653C305.707 58.3951 315.21 67.8249 322.088 79.9704L323.828 78.9849C316.77 66.5204 307 56.8255 294.533 49.916L293.564 51.6653ZM322.092 79.9783C329.108 92.1099 332.632 106.239 332.632 122.397H334.632C334.632 105.94 331.04 91.4554 323.824 78.977L322.092 79.9783ZM332.632 122.397C332.632 134.438 330.577 145.502 326.479 155.6L328.332 156.352C332.536 145.992 334.632 134.67 334.632 122.397H332.632ZM326.476 155.607C322.522 165.566 316.888 174.197 309.575 181.51L310.989 182.924C318.502 175.412 324.284 166.549 328.335 156.345L326.476 155.607ZM309.575 181.51C302.412 188.673 293.857 194.233 283.895 198.189L284.633 200.047C294.834 195.997 303.623 190.29 310.989 182.924L309.575 181.51ZM283.89 198.19C274.088 202.141 263.32 204.122 251.574 204.122V206.122C263.549 206.122 274.574 204.101 284.638 200.046L283.89 198.19ZM251.352 178.992C260.87 178.992 269.295 176.571 276.59 171.708L275.481 170.044C268.544 174.668 260.513 176.992 251.352 176.992V178.992ZM276.59 171.708C283.867 166.857 289.541 160.191 293.615 151.741L291.814 150.872C287.882 159.026 282.437 165.407 275.481 170.044L276.59 171.708ZM293.612 151.747C297.841 143.137 299.941 133.197 299.941 121.952H297.941C297.941 132.946 295.889 142.575 291.817 150.865L293.612 151.747ZM299.941 121.952C299.941 110.86 297.917 101.141 293.834 92.8245L292.039 93.7059C295.962 101.697 297.941 111.103 297.941 121.952H299.941ZM293.834 92.8245C289.756 84.5175 284.075 78.0695 276.788 73.5149L275.728 75.2109C282.673 79.5515 288.111 85.705 292.039 93.7059L293.834 92.8245ZM276.788 73.5149C269.493 68.9555 261.002 66.6915 251.352 66.6915V68.6915C260.678 68.6915 268.791 70.8752 275.728 75.2109L276.788 73.5149ZM251.352 66.6915C241.846 66.6915 233.43 68.957 226.137 73.5149L227.197 75.2109C234.137 70.8736 242.177 68.6915 251.352 68.6915V66.6915ZM226.137 73.5149C218.85 78.0695 213.169 84.5175 209.091 92.8245L210.887 93.7059C214.814 85.705 220.252 79.5515 227.197 75.2109L226.137 73.5149ZM209.088 92.8314C205.154 101.002 203.207 110.72 203.207 121.952H205.207C205.207 110.947 207.115 101.54 210.89 93.699L209.088 92.8314ZM203.207 121.952C203.207 133.338 205.23 143.348 209.308 151.957L211.115 151.101C207.187 142.809 205.207 133.101 205.207 121.952H203.207ZM209.311 151.963C213.385 160.413 219.059 167.079 226.335 171.93L227.445 170.266C220.489 165.629 215.044 159.248 211.112 151.094L209.311 151.963ZM226.347 171.938C233.639 176.647 241.985 178.992 251.352 178.992V176.992C242.335 176.992 234.373 174.741 227.432 170.258L226.347 171.938ZM351.171 202.898H350.171V203.898H351.171V202.898ZM351.171 42.785V41.785H350.171V42.785H351.171ZM385.417 42.785H386.417V41.785H385.417V42.785ZM385.417 202.898V203.898H386.417V202.898H385.417ZM367.182 202.898H366.182V203.898H367.182V202.898ZM367.182 176.658V175.658H366.182V176.658H367.182ZM462.36 176.658H463.36V175.658H462.36V176.658ZM462.36 202.898V203.898H463.36V202.898H462.36ZM352.171 202.898V42.785H350.171V202.898H352.171ZM351.171 43.785H385.417V41.785H351.171V43.785ZM384.417 42.785V202.898H386.417V42.785H384.417ZM385.417 201.898H351.171V203.898H385.417V201.898ZM368.182 202.898V176.658H366.182V202.898H368.182ZM367.182 177.658H462.36V175.658H367.182V177.658ZM461.36 176.658V202.898H463.36V176.658H461.36ZM462.36 201.898H367.182V203.898H462.36V201.898ZM514.224 199.118L513.85 200.046L513.854 200.047L514.224 199.118ZM488.205 182.217L487.491 182.917L487.498 182.924L487.505 182.931L488.205 182.217ZM471.082 155.976L470.151 156.341L470.154 156.349L470.157 156.357L471.082 155.976ZM475.529 79.4777L476.397 79.9749L476.4 79.9704L475.529 79.4777ZM504.439 50.7907L503.958 49.9135L503.954 49.916L504.439 50.7907ZM589.61 50.7907L589.126 51.6653L589.61 50.7907ZM618.52 79.4777L617.649 79.9704L617.654 79.9783L618.52 79.4777ZM622.967 155.976L622.041 155.6L622.038 155.607L622.967 155.976ZM605.844 182.217L606.551 182.924L605.844 182.217ZM579.826 199.118L579.457 198.189L579.452 198.19L579.826 199.118ZM571.597 170.876L571.043 170.044L571.597 170.876ZM588.276 151.306L587.378 150.865L587.375 150.872L588.276 151.306ZM571.82 74.3629L571.29 75.2109L571.82 74.3629ZM522.229 74.3629L522.759 75.2109L522.229 74.3629ZM505.551 93.2652L504.653 92.8245L504.65 92.8314L505.551 93.2652ZM505.773 151.529L504.869 151.957L504.872 151.963L505.773 151.529ZM522.452 171.098L521.897 171.93L521.903 171.934L521.909 171.938L522.452 171.098ZM547.136 204.122C535.39 204.122 524.546 202.141 514.593 198.189L513.854 200.047C524.064 204.101 535.161 206.122 547.136 206.122V204.122ZM514.597 198.19C504.782 194.235 496.221 188.673 488.905 181.503L487.505 182.931C495.014 190.29 503.799 195.995 513.85 200.046L514.597 198.19ZM488.919 181.517C481.749 174.201 476.111 165.564 472.007 155.596L470.157 156.357C474.355 166.551 480.132 175.408 487.491 182.917L488.919 181.517ZM472.013 155.612C468.061 145.512 466.078 134.37 466.078 122.175H464.078C464.078 134.589 466.097 145.982 470.151 156.341L472.013 155.612ZM466.078 122.175C466.078 106.012 469.529 91.9571 476.397 79.9749L474.662 78.9804C467.594 91.3117 464.078 105.721 464.078 122.175H466.078ZM476.4 79.9704C483.277 67.8249 492.781 58.3951 504.924 51.6653L503.954 49.916C491.487 56.8255 481.717 66.5204 474.659 78.9849L476.4 79.9704ZM504.919 51.6678C517.208 44.9379 531.198 41.5612 546.913 41.5612V39.5612C530.902 39.5612 516.576 43.0042 503.958 49.9136L504.919 51.6678ZM546.913 41.5612C562.929 41.5612 576.99 44.9394 589.126 51.6653L590.095 49.916C577.621 43.0026 563.217 39.5612 546.913 39.5612V41.5612ZM589.126 51.6653C601.268 58.3951 610.772 67.8249 617.649 79.9704L619.39 78.9849C612.332 66.5204 602.562 56.8255 590.095 49.916L589.126 51.6653ZM617.654 79.9783C624.67 92.1099 628.194 106.239 628.194 122.397H630.194C630.194 105.94 626.602 91.4554 619.385 78.977L617.654 79.9783ZM628.194 122.397C628.194 134.438 626.139 145.502 622.041 155.6L623.894 156.352C628.098 145.992 630.194 134.67 630.194 122.397H628.194ZM622.038 155.607C618.083 165.566 612.45 174.197 605.137 181.51L606.551 182.924C614.063 175.412 619.845 166.549 623.897 156.345L622.038 155.607ZM605.137 181.51C597.974 188.673 589.418 194.233 579.457 198.189L580.195 200.047C590.395 195.997 599.185 190.29 606.551 182.924L605.137 181.51ZM579.452 198.19C569.65 202.141 558.882 204.122 547.136 204.122V206.122C559.11 206.122 570.135 204.101 580.199 200.046L579.452 198.19ZM546.913 178.992C556.432 178.992 564.857 176.571 572.152 171.708L571.043 170.044C564.106 174.668 556.075 176.992 546.913 176.992V178.992ZM572.152 171.708C579.429 166.857 585.102 160.191 589.177 151.741L587.375 150.872C583.444 159.026 577.999 165.407 571.043 170.044L572.152 171.708ZM589.174 151.747C593.403 143.137 595.503 133.197 595.503 121.952H593.503C593.503 132.946 591.451 142.575 587.378 150.865L589.174 151.747ZM595.503 121.952C595.503 110.86 593.479 101.141 589.396 92.8245L587.601 93.7059C591.524 101.697 593.503 111.103 593.503 121.952H595.503ZM589.396 92.8245C585.318 84.5175 579.637 78.0695 572.35 73.5149L571.29 75.2109C578.235 79.5515 583.673 85.705 587.601 93.7059L589.396 92.8245ZM572.35 73.5149C565.055 68.9555 556.564 66.6915 546.913 66.6915V68.6915C556.239 68.6915 564.353 70.8752 571.29 75.2109L572.35 73.5149ZM546.913 66.6915C537.408 66.6915 528.992 68.957 521.699 73.5149L522.759 75.2109C529.699 70.8736 537.739 68.6915 546.913 68.6915V66.6915ZM521.699 73.5149C514.412 78.0695 508.731 84.5175 504.653 92.8245L506.448 93.7059C510.376 85.705 515.814 79.5515 522.759 75.2109L521.699 73.5149ZM504.65 92.8314C500.716 101.002 498.769 110.72 498.769 121.952H500.769C500.769 110.947 502.677 101.54 506.452 93.699L504.65 92.8314ZM498.769 121.952C498.769 133.338 500.791 143.348 504.869 151.957L506.677 151.101C502.749 142.809 500.769 133.101 500.769 121.952H498.769ZM504.872 151.963C508.947 160.413 514.62 167.079 521.897 171.93L523.006 170.266C516.05 165.629 510.605 159.248 506.674 151.094L504.872 151.963ZM521.909 171.938C529.201 176.647 537.546 178.992 546.913 178.992V176.992C537.897 176.992 529.935 174.741 522.994 170.258L521.909 171.938ZM683.079 202.898L682.138 202.561L681.659 203.898H683.079V202.898ZM740.453 42.785V41.785H739.749L739.512 42.4477L740.453 42.785ZM769.807 42.785L770.757 43.0976L771.189 41.785H769.807V42.785ZM717.103 202.898V203.898H717.827L718.053 203.211L717.103 202.898ZM800.496 202.898L799.545 203.21L799.771 203.898H800.496V202.898ZM748.014 42.785V41.785H746.634L747.064 43.0965L748.014 42.785ZM778.702 42.785L779.644 42.4477L779.406 41.785H778.702V42.785ZM836.076 202.898V203.898H837.497L837.018 202.561L836.076 202.898ZM713.323 140.854V139.854H712.323V140.854H713.323ZM803.164 140.854H804.164V139.854H803.164V140.854ZM803.164 167.54V168.54H804.164V167.54H803.164ZM713.323 167.54H712.323V168.54H713.323V167.54ZM684.021 203.236L741.394 43.1223L739.512 42.4477L682.138 202.561L684.021 203.236ZM740.453 43.785H769.807V41.785H740.453V43.785ZM768.857 42.4723L716.153 202.586L718.053 203.211L770.757 43.0976L768.857 42.4723ZM717.103 201.898H683.079V203.898H717.103V201.898ZM801.446 202.587L748.964 42.4735L747.064 43.0965L799.545 203.21L801.446 202.587ZM748.014 43.785H778.702V41.785H748.014V43.785ZM777.761 43.1223L835.135 203.236L837.018 202.561L779.644 42.4477L777.761 43.1223ZM836.076 201.898H800.496V203.898H836.076V201.898ZM713.323 141.854H803.164V139.854H713.323V141.854ZM802.164 140.854V167.54H804.164V140.854H802.164ZM803.164 166.54H713.323V168.54H803.164V166.54ZM714.323 167.54V140.854H712.323V167.54H714.323ZM852.387 202.898H851.387V203.898H852.387V202.898ZM852.387 42.785V41.785H851.387V42.785H852.387ZM886.633 42.785H887.633V41.785H886.633V42.785ZM886.633 202.898V203.898H887.633V202.898H886.633ZM868.398 202.898H867.398V203.898H868.398V202.898ZM868.398 176.658V175.658H867.398V176.658H868.398ZM963.576 176.658H964.576V175.658H963.576V176.658ZM963.576 202.898V203.898H964.576V202.898H963.576ZM853.387 202.898V42.785H851.387V202.898H853.387ZM852.387 43.785H886.633V41.785H852.387V43.785ZM885.633 42.785V202.898H887.633V42.785H885.633ZM886.633 201.898H852.387V203.898H886.633V201.898ZM869.398 202.898V176.658H867.398V202.898H869.398ZM868.398 177.658H963.576V175.658H868.398V177.658ZM962.576 176.658V202.898H964.576V176.658H962.576ZM963.576 201.898H868.398V203.898H963.576V201.898ZM983.337 202.898H982.337V203.898H983.337V202.898ZM983.337 42.785V41.785H982.337V42.785H983.337ZM1017.58 42.785H1018.58V41.785H1017.58V42.785ZM1017.58 202.898V203.898H1018.58V202.898H1017.58ZM999.348 202.898H998.348V203.898H999.348V202.898ZM999.348 176.658V175.658H998.348V176.658H999.348ZM1102.53 176.658H1103.53V175.658H1102.53V176.658ZM1102.53 202.898V203.898H1103.53V202.898H1102.53ZM999.348 133.961H998.348V134.961H999.348V133.961ZM999.348 108.165V107.165H998.348V108.165H999.348ZM1094.75 108.165H1095.75V107.165H1094.75V108.165ZM1094.75 133.961V134.961H1095.75V133.961H1094.75ZM999.348 69.0258H998.348V70.0258H999.348V69.0258ZM999.348 42.785V41.785H998.348V42.785H999.348ZM1099.86 42.785H1100.86V41.785H1099.86V42.785ZM1099.86 69.0258V70.0258H1100.86V69.0258H1099.86ZM984.337 202.898V42.785H982.337V202.898H984.337ZM983.337 43.785H1017.58V41.785H983.337V43.785ZM1016.58 42.785V202.898H1018.58V42.785H1016.58ZM1017.58 201.898H983.337V203.898H1017.58V201.898ZM1000.35 202.898V176.658H998.348V202.898H1000.35ZM999.348 177.658H1102.53V175.658H999.348V177.658ZM1101.53 176.658V202.898H1103.53V176.658H1101.53ZM1102.53 201.898H999.348V203.898H1102.53V201.898ZM1000.35 133.961V108.165H998.348V133.961H1000.35ZM999.348 109.165H1094.75V107.165H999.348V109.165ZM1093.75 108.165V133.961H1095.75V108.165H1093.75ZM1094.75 132.961H999.348V134.961H1094.75V132.961ZM1000.35 69.0258V42.785H998.348V69.0258H1000.35ZM999.348 43.785H1099.86V41.785H999.348V43.785ZM1098.86 42.785V69.0258H1100.86V42.785H1098.86ZM1099.86 68.0258H999.348V70.0258H1099.86V68.0258ZM1119.91 202.898H1118.91V203.898H1119.91V202.898ZM1119.91 42.785V41.785H1118.91V42.785H1119.91ZM1221.76 48.7892L1221.34 49.6958L1221.35 49.6988L1221.35 49.7017L1221.76 48.7892ZM1241.78 65.2453L1240.94 65.8L1241.78 65.2453ZM1241.78 114.836L1242.6 115.399L1242.61 115.391L1241.78 114.836ZM1221.76 131.292L1222.17 132.205L1222.18 132.202L1222.18 132.199L1221.76 131.292ZM1147.04 137.074H1146.04V138.074H1147.04V137.074ZM1147.04 111.945V110.945H1146.04V111.945H1147.04ZM1209.31 106.386L1209.96 107.143L1209.96 107.141L1209.31 106.386ZM1209.53 74.5853L1208.88 75.3427L1208.89 75.3493L1208.89 75.3557L1209.53 74.5853ZM1154.16 69.0258V68.0258H1153.16V69.0258H1154.16ZM1154.16 202.898V203.898H1155.16V202.898H1154.16ZM1210.2 202.898L1209.41 203.51L1209.71 203.898H1210.2V202.898ZM1145.93 119.728V118.728H1143.89L1145.14 120.34L1145.93 119.728ZM1182.18 119.728L1182.93 119.062L1182.63 118.728H1182.18V119.728ZM1256.45 202.898V203.898H1258.69L1257.2 202.232L1256.45 202.898ZM1120.91 202.898V42.785H1118.91V202.898H1120.91ZM1119.91 43.785H1191.52V41.785H1119.91V43.785ZM1191.52 43.785C1202.97 43.785 1212.9 45.7665 1221.34 49.6958L1222.18 47.8827C1213.43 43.8063 1203.2 41.785 1191.52 41.785V43.785ZM1221.35 49.7017C1229.8 53.4874 1236.32 58.8563 1240.94 65.8L1242.61 64.6906C1237.75 57.402 1230.92 51.8002 1222.17 47.8767L1221.35 49.7017ZM1240.94 65.8C1245.57 72.7342 1247.89 80.8387 1247.89 90.1519H1249.89C1249.89 80.4887 1247.47 71.9888 1242.61 64.6906L1240.94 65.8ZM1247.89 90.1519C1247.89 99.3134 1245.57 107.345 1240.94 114.281L1242.61 115.391C1247.47 108.095 1249.89 99.6703 1249.89 90.1519H1247.89ZM1240.95 114.273C1236.32 121.074 1229.8 126.449 1221.34 130.386L1222.18 132.199C1230.93 128.13 1237.75 122.534 1242.6 115.399L1240.95 114.273ZM1221.35 130.38C1212.91 134.165 1202.97 136.074 1191.52 136.074V138.074C1203.19 138.074 1213.42 136.128 1222.17 132.205L1221.35 130.38ZM1191.52 136.074H1147.04V138.074H1191.52V136.074ZM1148.04 137.074V111.945H1146.04V137.074H1148.04ZM1147.04 112.945H1190.63V110.945H1147.04V112.945ZM1190.63 112.945C1198.92 112.945 1205.42 111.062 1209.96 107.143L1208.66 105.628C1204.6 109.122 1198.65 110.945 1190.63 110.945V112.945ZM1209.96 107.141C1214.67 103.066 1216.98 97.4329 1216.98 90.3743H1214.98C1214.98 96.9549 1212.85 101.996 1208.65 105.63L1209.96 107.141ZM1216.98 90.3743C1216.98 83.1891 1214.75 77.609 1210.17 73.8149L1208.89 75.3557C1212.91 78.6777 1214.98 83.6236 1214.98 90.3743H1216.98ZM1210.18 73.8279C1205.64 69.9065 1199.06 68.0258 1190.63 68.0258V70.0258C1198.8 70.0258 1204.83 71.8515 1208.88 75.3427L1210.18 73.8279ZM1190.63 68.0258H1154.16V70.0258H1190.63V68.0258ZM1153.16 69.0258V202.898H1155.16V69.0258H1153.16ZM1154.16 201.898H1119.91V203.898H1154.16V201.898ZM1210.99 202.287L1146.72 119.117L1145.14 120.34L1209.41 203.51L1210.99 202.287ZM1145.93 120.728H1182.18V118.728H1145.93V120.728ZM1181.43 120.394L1255.71 203.565L1257.2 202.232L1182.93 119.062L1181.43 120.394ZM1256.45 201.898H1210.2V203.898H1256.45V201.898ZM1310.17 202.898H1309.17V203.898H1310.17V202.898ZM1310.17 69.0258H1311.17V68.0258H1310.17V69.0258ZM1257.92 69.0258H1256.92V70.0258H1257.92V69.0258ZM1257.92 42.785V41.785H1256.92V42.785H1257.92ZM1396.68 42.785H1397.68V41.785H1396.68V42.785ZM1396.68 69.0258V70.0258H1397.68V69.0258H1396.68ZM1344.42 69.0258V68.0258H1343.42V69.0258H1344.42ZM1344.42 202.898V203.898H1345.42V202.898H1344.42ZM1311.17 202.898V69.0258H1309.17V202.898H1311.17ZM1310.17 68.0258H1257.92V70.0258H1310.17V68.0258ZM1258.92 69.0258V42.785H1256.92V69.0258H1258.92ZM1257.92 43.785H1396.68V41.785H1257.92V43.785ZM1395.68 42.785V69.0258H1397.68V42.785H1395.68ZM1396.68 68.0258H1344.42V70.0258H1396.68V68.0258ZM1343.42 69.0258V202.898H1345.42V69.0258H1343.42ZM1344.42 201.898H1310.17V203.898H1344.42V201.898Z" fill="#171717" mask="url(#path-1-outside-1_618_398)"/>
</g>
</g>
<defs>
<clipPath id="clip0_618_398">
<rect width="1405" height="245" fill="white"/>
</clipPath>
</defs>
</svg>
