<svg width="160" height="160" viewBox="0 0 160 160" fill="none" xmlns="http://www.w3.org/2000/svg">
<g clip-path="url(#clip0_836_82)">
<path fill-rule="evenodd" clip-rule="evenodd" d="M63.6353 127.961H64.3458V127.723L63.6353 126.303L62.9247 127.723V127.961H63.6353V128.435H62.6873C62.6873 128.908 62.2134 130.33 62.2134 130.33C62.2134 130.566 62.4508 130.566 62.4508 130.803H62.9239C62.9239 131.039 62.6873 131.039 62.6873 131.039H60.7915V130.803H61.2654C61.2654 130.566 61.5028 130.566 61.5028 130.566L63.8718 125.118V124.881C64.1084 124.881 64.1084 124.881 64.1084 125.118L65.7669 130.093C66.0034 130.566 66.24 130.566 66.24 130.803H66.714C66.714 131.039 66.714 131.039 66.4766 131.039H64.345V130.803H64.8189C64.8189 130.566 65.0555 130.566 65.0555 130.33L64.5824 128.671C64.345 128.435 64.3458 128.435 63.6353 128.435V127.961ZM55.1072 125.118H56.0543C57.0022 125.354 57.0022 125.354 57.0022 126.066C57.0022 126.303 57.0022 126.303 56.7656 126.303C56.5291 126.303 56.2917 125.354 55.1072 125.354C53.9227 125.354 52.7382 126.54 52.7382 128.198C52.7382 129.618 53.6861 130.804 55.1072 130.804C55.8177 130.804 56.2917 130.567 56.5282 130.094C56.7648 129.856 56.7648 129.619 57.0014 129.619V129.856C57.0014 130.33 56.7648 130.567 56.7648 130.567C56.7648 130.804 56.0543 131.04 55.1063 131.04C53.4479 131.04 51.7894 130.093 51.7894 128.198C51.7902 126.54 52.9747 125.118 55.1072 125.118ZM75.9526 125.828C75.9526 125.592 75.716 125.592 75.2421 125.592C75.0055 125.592 75.0055 125.592 75.0055 125.355C75.0055 125.118 75.0055 125.118 75.2421 125.118H77.1379C77.1379 125.118 77.3745 125.118 77.3745 125.355C77.3745 125.355 77.1379 125.592 76.9014 125.592C76.4274 125.592 76.4274 125.592 76.4274 126.303V131.04C76.4274 131.04 76.4274 131.277 76.1908 131.277C75.9543 131.277 75.9543 131.04 75.7177 131.04L71.9276 126.303H71.691V130.093C71.691 130.566 71.9276 130.566 72.1642 130.566C72.6381 130.803 72.8747 130.803 72.8747 130.803V131.039H70.5057C70.5057 131.039 70.2683 131.039 70.2683 130.803L70.9788 130.566C71.2154 130.566 71.2154 130.566 71.2154 130.33L71.4528 126.776V126.303C71.4528 125.592 71.2154 125.592 70.9788 125.592C70.5049 125.592 70.2683 125.592 70.2683 125.355L70.5057 125.118H71.6902C71.9268 125.118 72.1633 125.355 72.1633 125.355L75.9534 129.856L75.9526 125.828ZM83.7701 127.961H84.4799V127.723L84.0067 126.303H83.7701L83.0604 127.723V127.961H83.7701V128.435H83.0604C82.8239 128.908 82.3491 130.33 82.3491 130.33C82.3491 130.566 82.5856 130.566 82.5856 130.566C82.8239 130.803 83.0604 130.803 83.0604 130.803C83.0604 131.039 82.8239 131.039 82.8239 131.039H80.9288V130.803C80.9288 130.803 81.1654 130.803 81.402 130.566C81.6385 130.566 81.6385 130.566 81.6385 130.33L84.0075 124.881C84.2441 124.881 84.2441 124.881 84.2441 125.118L85.9026 130.093C86.1391 130.566 86.3757 130.566 86.3757 130.566C86.6123 130.803 86.8505 130.803 86.8505 130.803C86.8505 131.039 86.8505 131.039 86.6123 131.039H84.4799V130.803C84.4799 130.803 84.7181 130.803 84.9546 130.566C84.9546 130.566 85.1912 130.566 85.1912 130.33V130.093L84.7181 128.671C84.7181 128.435 84.4807 128.435 83.7701 128.435V127.961ZM92.2974 127.723V129.855C92.2974 130.33 92.7705 130.804 93.4827 130.804C94.1924 130.804 95.8517 130.094 95.8517 128.198C95.8517 126.302 94.1933 125.354 93.0096 125.354C92.2982 125.354 92.2982 125.591 92.2982 125.827L92.2974 127.723H91.3511V125.592H90.878L90.6398 125.355C90.6398 125.118 90.878 125.118 90.878 125.118H93.247C95.142 125.118 96.7988 126.067 96.7988 128.435C96.7988 129.856 95.6152 131.041 93.9567 131.041H90.878C90.878 131.041 90.6398 131.041 90.6398 130.804H91.1146C91.3511 130.568 91.3511 130.568 91.3511 130.095V127.725H92.2974V127.723ZM103.432 127.961H104.142V127.723L103.432 126.303L102.721 127.723V127.961H103.432V128.435H102.721C102.484 128.908 102.011 130.33 102.011 130.33C102.011 130.566 102.247 130.566 102.247 130.566C102.484 130.803 102.721 130.803 102.721 130.803C102.721 131.039 102.484 131.039 102.484 131.039H100.588V130.803C100.588 130.803 100.826 130.803 101.063 130.566C101.063 130.566 101.299 130.566 101.299 130.33L103.668 124.881C103.905 124.881 103.905 124.881 103.905 125.118L105.564 130.093C105.8 130.566 106.037 130.566 106.037 130.566C106.273 130.803 106.51 130.803 106.51 130.803C106.51 131.039 106.51 131.039 106.273 131.039H104.141V130.803C104.141 130.803 104.377 130.803 104.614 130.566C104.614 130.566 104.85 130.566 104.85 130.33V130.093L104.377 128.671C104.141 128.435 104.141 128.435 103.43 128.435V127.961H103.432ZM67.1879 84.1365C67.1879 83.8999 66.9514 83.4268 66.4774 83.4268C64.1084 84.1365 62.2134 84.3739 60.7923 84.1365C57.4762 83.6634 56.5282 84.1365 55.5811 84.6096C55.1072 84.8462 54.8706 84.3731 55.3446 84.1365C58.6607 81.7675 62.9247 82.0049 64.5832 82.2415C66.2408 82.478 70.0309 82.7146 71.9268 82.478C73.8218 82.0049 74.0584 82.0049 74.7698 82.0049C75.4803 82.0049 75.9543 82.0049 75.9543 82.478C75.9543 82.9512 75.4803 82.7146 74.2958 83.1894C73.5852 83.426 71.9268 84.3731 71.4536 86.5047L66.2417 108.299C66.0051 108.772 66.0051 109.957 66.0051 110.668C66.0051 111.617 66.4791 111.617 67.1896 111.617C69.0846 111.853 69.3212 112.09 69.3212 112.564C69.3212 112.8 69.0846 113.037 68.6115 113.037C66.953 113.037 64.3475 112.8 62.215 112.8C60.0826 112.8 58.8981 113.037 57.951 113.037C57.4778 113.037 57.2404 112.8 57.2404 112.564C57.2404 112.091 57.4778 111.854 58.4249 111.854C59.372 111.617 60.5565 111.143 60.7939 109.722L67.1879 84.1365Z" fill="#696969"/>
<path fill-rule="evenodd" clip-rule="evenodd" d="M71.452 100.955C72.3999 100.955 72.8731 101.904 73.347 102.614C73.821 103.323 74.5315 104.272 75.716 104.272C76.6631 104.272 76.9005 103.323 76.9005 102.85C76.9005 101.192 75.9526 99.2966 75.0055 97.6398C74.0576 95.9813 73.1105 94.5594 73.1105 93.1375C73.1105 91.0059 76.19 88.1638 79.033 88.1638C80.4541 88.1638 81.8751 88.8735 81.8751 90.5328C81.8751 91.2441 81.402 91.9547 80.4541 91.9547C79.9809 91.9547 79.7435 91.7181 79.2696 91.245C78.559 90.5336 78.085 89.3499 77.1379 89.3499C76.4274 89.3499 75.9534 89.8231 75.9534 90.7702C75.9534 91.9555 77.1379 93.614 78.085 95.0342C79.033 96.6927 79.9801 98.3512 79.9801 99.7731C79.9801 102.852 76.6631 105.459 73.347 105.459C71.926 105.459 70.2675 104.51 70.2675 102.852C70.2675 101.904 70.5041 100.955 71.452 100.955ZM101.3 99.2966C99.6418 101.43 96.5615 105.219 93.4828 105.457C91.5877 105.694 91.1137 104.746 91.1137 102.85C90.6389 97.4032 98.4565 89.8222 102.957 89.3483C103.906 89.3483 104.142 89.5848 104.852 89.5848C105.801 88.1629 105.801 88.1629 106.747 88.1629C108.169 88.1629 109.354 88.3995 109.354 88.8727C109.354 89.8214 104.379 100.718 104.379 101.902C104.379 102.139 104.142 102.849 105.089 102.849C106.037 103.086 108.642 99.534 108.642 99.534C108.879 99.534 108.879 99.7706 109.117 100.007C109.117 100.48 106.273 105.217 102.01 105.456C100.826 105.456 100.588 105.217 100.352 104.507C100.352 102.848 102.483 98.821 102.483 98.3478C102.483 98.1113 102.483 98.1113 102.247 98.1113C102.247 98.1129 102.011 98.5869 101.3 99.2966L100.589 98.8235C101.3 98.1138 101.538 97.4032 102.011 96.9284C103.669 94.5594 104.38 92.4278 104.38 91.7181C104.616 90.7693 104.143 90.2962 103.196 90.2962C99.8792 90.5328 94.9055 97.6406 95.1421 100.719C95.1421 101.431 95.6152 101.668 96.5623 101.668C97.7476 101.668 99.1695 100.246 100.59 98.5877L101.3 99.2966ZM91.5877 81.5316C92.0608 81.5316 92.5348 81.7681 92.5348 82.2413C92.5348 82.7144 91.8251 83.6632 91.5877 84.3729L87.5602 95.9805C86.3749 99.534 85.6652 101.191 85.6652 101.666C85.6652 101.903 85.9018 102.376 86.3749 102.376C86.8497 102.376 88.0334 101.191 88.9821 100.007C89.6918 99.2958 89.9292 98.8218 89.9292 98.8218C90.1658 98.8218 90.1658 99.0584 90.1658 99.2949C90.1658 99.5332 89.2187 101.19 88.0342 102.375C86.3757 104.034 84.7189 105.456 83.297 105.456C82.3483 105.456 81.8751 105.217 81.8751 103.797C81.8751 102.848 81.8751 101.902 82.5848 100.244L87.5602 85.7939C87.7968 85.0842 87.7968 84.6086 87.7968 84.372C87.7968 83.6623 87.3237 83.1884 85.6652 82.9501C85.1921 82.9501 84.9555 82.9501 84.9555 82.7136C84.9555 82.2404 85.1921 81.7665 86.1392 82.0039C88.7439 82.2413 89.9292 82.0047 91.5877 81.5316ZM114.566 92.901L111.25 102.614C111.014 103.087 110.775 103.562 110.775 104.272C110.775 104.745 111.014 105.457 112.197 105.457C113.146 105.457 113.619 104.746 114.566 102.85C119.542 94.5594 121.437 90.0588 124.042 90.0588C124.516 90.0588 124.99 90.2954 124.99 90.7685C124.99 91.2433 124.753 91.7173 123.806 93.3757L119.305 102.614C118.594 104.035 118.356 105.694 120.252 105.694C124.99 105.694 128.306 100.719 128.306 100.008C128.306 99.7714 128.07 99.5348 127.833 99.5348C127.597 99.7714 127.36 100.482 126.648 100.955C126.411 101.43 124.99 102.85 124.279 102.85C124.042 102.85 123.569 102.614 123.569 102.377C123.569 101.904 123.806 101.43 124.516 100.008L127.597 93.8489C128.306 92.1904 128.544 91.2433 128.544 90.532C128.544 88.6369 126.885 87.9264 125.465 87.9264C121.438 87.9264 119.068 94.322 115.516 100.008V99.7714C116.936 95.9813 118.595 92.427 118.595 90.0588C118.595 88.8735 118.122 88.1638 116.7 88.1638C114.094 88.1638 112.91 90.7693 111.253 92.6644C110.304 93.8497 110.541 94.0863 110.541 94.3229H110.778C111.016 94.5594 111.253 93.8497 112.2 92.6644C113.385 91.4807 113.858 90.7693 114.332 90.7693C115.039 90.7693 115.039 91.7173 114.566 92.901ZM146.545 75.1351H149.388C150.336 75.1351 150.81 75.1351 151.995 74.8977C152.705 74.6603 152.942 75.1351 152.942 75.3716C152.942 75.6082 152.942 75.8456 152.469 76.7927L143.229 100.008C142.993 100.718 142.756 101.903 142.756 102.377C142.756 102.851 142.993 103.087 143.229 103.087C143.941 103.087 144.888 102.14 146.073 100.718C147.02 99.7706 146.783 99.7706 147.02 99.7706C147.258 99.7706 147.257 100.007 147.257 100.007C147.257 100.717 144.178 105.456 140.151 105.693C139.202 105.693 138.965 105.457 138.729 104.744C138.729 103.797 138.965 103.086 138.965 102.613C139.202 101.666 139.914 99.7706 140.387 99.0592V98.8226C139.914 99.2958 139.438 100.008 138.965 100.481L138.492 99.534C140.861 97.1642 143.229 92.6636 143.229 90.5311C143.229 89.8214 142.52 89.3474 141.809 89.3474C138.019 89.3474 133.043 97.4016 133.28 100.244C133.28 101.666 134.229 102.139 134.939 101.902C136.124 101.429 137.308 100.481 138.492 99.534L138.965 100.481C136.834 102.613 134.228 105.692 131.386 105.692C129.491 105.692 128.779 103.322 128.779 102.375C128.779 97.8747 130.91 94.5578 132.569 92.8993C137.069 88.6352 140.386 88.1621 141.096 88.1621C142.281 88.1621 143.228 88.3987 143.703 89.1109L147.967 78.6869C148.204 78.2138 148.441 77.5024 148.441 77.0285C148.441 76.5545 148.204 76.3179 147.729 76.0813C146.309 76.0813 145.836 76.0813 145.836 75.6074C145.835 75.1351 146.072 75.1351 146.545 75.1351ZM53.6853 33.4434L51.0797 43.6291C57.9493 43.3926 60.5557 38.418 60.5557 36.049C60.3183 32.2589 56.2917 29.6525 52.5016 29.6525C44.9215 29.8899 39.4729 32.4955 37.5779 35.8116C37.1039 37.2327 38.5258 37.47 38.2884 39.1285C38.051 40.5496 37.1039 41.4975 35.9194 41.4975C34.9715 41.4975 33.5504 40.5496 33.5504 38.6554C34.2609 33.2068 46.1051 27.5217 56.5291 28.9428C62.2142 29.6533 64.8198 31.5492 65.0563 35.3393C65.2937 38.4188 63.1613 44.1039 52.265 44.8153H50.8431L49.1855 52.1589C48.9481 53.1068 48.9481 53.58 48.9481 54.0539C48.9481 55.0019 49.4212 55.2384 49.8952 55.2384C52.9748 55.4758 52.5016 55.7124 52.5016 56.1864C52.5016 56.4238 52.265 56.6603 51.3171 56.6603C50.1326 56.6603 48.7107 56.4229 46.3425 56.4229C44.4475 56.4229 41.1306 56.6603 40.42 56.6603C39.9461 56.6603 39.7095 56.6603 39.7095 56.1864C39.7095 55.7124 39.7095 55.7124 40.42 55.4758C41.368 55.2384 43.2622 55.4758 43.4996 53.8173C44.4475 49.7907 48.2376 34.1556 48.2376 34.1556C48.2376 33.919 48.4741 33.919 48.7107 33.919C49.4212 33.6825 52.2642 33.4459 53.2113 33.2085C53.6853 33.206 53.6853 33.4434 53.6853 33.4434ZM116.934 39.3651C118.592 39.3651 120.487 40.0756 120.487 41.7341C120.487 42.682 120.014 43.3926 118.829 43.3926C117.882 43.3926 117.409 42.9186 116.697 41.9715C116.461 41.261 116.461 40.5504 115.514 40.5504C114.328 40.5504 113.144 43.8674 112.67 45.051C111.723 47.42 111.249 50.0256 111.249 51.2101C111.249 52.8686 111.959 53.3426 112.906 53.3426C113.618 53.3426 114.565 53.3425 115.514 52.3946C116.223 51.6841 116.697 50.7361 116.934 50.7361C117.172 50.7361 117.172 51.2101 117.172 51.2101C117.172 51.6841 114.328 57.1326 110.775 57.1326C108.169 57.1326 107.223 54.7636 107.223 52.3946C107.223 46.4713 111.013 39.3651 116.934 39.3651ZM88.0342 29.4159C88.983 29.4159 89.9292 29.8899 89.9292 31.311C89.9292 33.206 88.2708 34.8645 86.6123 34.8645C85.9026 34.8645 84.9555 34.3905 84.9555 32.7329C84.9555 30.6004 86.8505 29.4159 88.0342 29.4159ZM134.227 57.3684C123.093 57.6058 119.778 54.7628 119.778 51.2093C119.541 45.0502 124.988 39.3651 129.015 39.3651C131.385 39.3651 132.569 40.7862 132.332 42.9186C132.096 47.6566 125.463 48.6037 122.856 49.0777C123.093 48.6037 123.093 48.3671 123.093 48.3671C129.252 46.9461 132.096 40.0765 129.015 40.0765C126.646 40.0765 124.278 45.2876 123.331 47.8932C120.724 55.4733 136.122 54.2888 136.359 54.2888C143.703 54.2888 148.677 50.0248 148.204 48.3671C148.204 48.1297 147.729 47.4192 146.309 47.1826C144.887 46.9461 144.414 44.8136 145.836 43.8665C146.072 43.6291 147.729 42.9186 148.441 44.3405C151.283 50.0248 145.36 57.3684 134.227 57.3684ZM81.8751 52.6304C81.6386 53.3409 81.402 54.5254 82.5848 54.2888C83.0596 54.2888 84.0067 53.3417 84.7181 52.6304C85.4278 51.6824 85.6652 51.2093 85.9018 51.2093C86.1383 51.2093 86.3749 51.2093 86.3749 51.4467C86.3749 52.6312 81.8743 57.1318 78.3208 57.1318C77.3729 57.1318 76.8997 56.8944 76.8997 55.9473C76.8997 55.4733 77.3729 54.5262 77.8477 53.5783L82.5848 44.1023C82.8231 43.3917 83.0596 42.9178 83.0596 42.9178C83.0596 42.4438 82.5848 42.2072 82.3483 42.2072C81.4012 42.2072 80.6914 42.9178 79.9801 43.6283C79.0321 44.5762 78.7956 44.8128 78.559 44.8128L78.3216 44.5754C78.3216 43.6275 83.5336 39.3643 85.9018 39.3643C87.0871 39.3643 87.3237 39.8382 87.3237 40.7853C87.3237 41.4959 87.0871 42.4438 86.8505 42.9169L81.8751 52.6304ZM63.3979 46.9452C63.8718 46.7087 65.0563 42.9178 66.7148 42.6812C66.9514 42.6812 67.4253 43.1552 67.4253 43.3917C67.4253 44.1023 67.4254 44.3397 67.188 45.5233C64.1084 54.9994 64.1084 54.762 64.1084 55.4725C64.1084 55.9465 63.8718 57.131 65.7669 57.131C66.7148 57.131 67.4254 54.5254 70.5049 48.6029C71.2154 47.4184 73.5844 42.2072 74.5324 42.2072C75.0063 42.2072 75.2429 42.4438 75.2429 43.1552C75.2429 44.1023 75.4803 44.8136 76.1908 44.8136C77.6119 44.8136 78.0859 43.6291 78.0859 42.2081C78.0859 41.2601 77.8493 39.3651 76.1908 39.3651C73.5853 39.3651 72.1634 43.6291 69.0838 49.7882V49.5508C70.0318 46.2347 70.5049 44.1023 70.5049 41.2601C70.7423 40.0756 70.0309 39.3651 69.0838 39.3651C66.4782 39.3651 62.9247 45.2876 62.9247 46.7087C62.9239 46.9452 63.1605 46.9452 63.3979 46.9452ZM92.2974 44.3397L88.7439 54.0523C88.5073 54.5262 88.5073 55.0002 88.5073 55.7107C88.5073 56.1847 88.5073 56.8952 89.9292 56.8952C90.878 56.8952 91.1146 56.1847 92.2983 54.2897C97.2737 45.999 98.9305 41.261 101.538 41.261C102.011 41.261 102.485 41.7349 102.485 42.2089C102.485 42.6829 102.248 43.1568 101.538 44.8145L97.0371 54.0531C96.3257 55.4742 96.0883 56.8952 97.7468 56.8952C102.484 56.8952 105.801 52.1572 105.801 51.4475C105.801 50.9735 105.564 50.9735 105.564 50.9735C105.09 51.2101 105.09 51.9215 104.379 52.3946C103.906 52.8686 102.721 54.2897 102.01 54.2897C101.537 54.2897 101.3 54.0531 101.3 53.8157C101.3 53.3426 101.3 52.8686 102.01 51.2101L105.327 45.2884C106.037 43.63 106.037 42.6829 106.037 41.9715C106.037 40.0765 104.615 39.3659 103.195 39.3659C99.167 39.3659 96.5606 45.7624 93.2454 51.4475V51.2101C94.6673 47.42 96.3241 43.8665 96.3241 41.4975C96.3241 40.0765 95.8509 39.6025 94.429 39.6025C91.8235 39.6025 90.6389 42.2081 88.9821 44.1031C88.0334 45.2876 88.2708 45.5242 88.2708 45.5242C88.2708 45.7616 88.2708 45.7616 88.5073 45.7616C88.7439 45.7616 88.9821 45.2876 89.9292 44.1031C91.1146 42.9186 91.3511 42.2081 92.0608 42.2081C92.5348 42.2081 92.7714 43.1552 92.2974 44.3397ZM19.3372 79.8731C18.3893 79.8731 16.9682 80.1097 16.0203 80.1097C15.3097 80.1097 14.8358 80.1097 14.8358 79.6357C14.8358 79.1626 15.3097 79.1626 16.0203 78.9252C17.4413 78.6878 18.3893 77.5041 18.8632 75.1351C20.7583 64.0006 22.8907 57.1318 22.8907 56.4213C22.8907 55.7107 22.4167 55.4733 19.8112 55.2368C19.338 55.2368 19.1006 55.2368 19.1006 55.0002C19.1006 54.5262 19.338 54.2897 19.8112 54.2897H37.1039C37.8144 54.2897 38.0518 54.5271 38.0518 55.0002C38.0518 55.4733 38.0518 55.7107 37.8153 55.9481L37.3413 59.0277C37.1039 59.7382 37.1039 60.2122 36.8673 60.2122C36.1568 60.2122 36.1568 59.9756 35.9194 59.2642C35.9194 56.6587 34.9715 55.4742 32.1293 55.4742H29.0498C28.3393 55.4742 28.1019 55.4742 28.1019 56.1847L25.9702 64.9494V65.6599C25.9702 65.8973 26.2068 65.8973 27.8653 65.8973C32.8399 65.8973 33.5504 64.9494 34.4983 62.8177C34.7357 62.1072 34.7357 61.8698 35.2089 61.8698C35.4454 61.8698 35.4454 62.1072 35.4454 62.3438C35.4454 62.8177 34.9715 64.7128 34.7349 65.8973C34.4975 67.0818 34.2609 67.7923 34.2609 69.45C34.0235 70.1605 33.787 71.1084 33.313 71.1084C32.839 71.1084 32.839 70.871 32.839 70.3979V68.9768C32.839 67.0818 31.6545 66.8444 29.5229 66.8444H26.4434C25.9702 66.8444 25.7328 66.6078 25.7328 66.8444L23.6004 75.609C23.3638 76.3196 23.1273 77.2675 23.1273 77.7406C23.1273 78.4512 23.6004 78.9252 25.0223 78.9252H27.3913C34.0244 78.9252 34.2609 76.3196 35.2089 74.4245C35.4454 74.188 35.4454 73.714 35.9194 73.714C36.3934 73.714 36.3934 74.188 36.3934 74.4245V75.609L35.4454 79.6365C35.4454 79.8739 35.4454 80.1105 34.7349 80.1105L19.3372 79.8731ZM93.7193 74.1871C92.0609 76.0822 88.9821 80.1088 85.9018 80.3454C84.0067 80.582 83.5328 79.3983 83.5328 77.7398C83.0596 72.2921 90.8772 64.4746 95.3778 64.2372C96.3249 64.2372 96.5615 64.4737 97.2728 64.4737C97.9825 63.0526 98.2199 62.8161 98.9296 63.0527C100.588 63.0527 101.773 63.0527 101.773 63.7632C101.773 64.7111 96.798 75.3708 96.798 76.7919C96.798 76.7919 96.5615 77.7398 97.5094 77.7398C98.4565 77.7398 100.826 74.4237 101.063 74.4237C101.299 74.4237 101.299 74.6603 101.299 74.8977C101.536 75.1351 98.6922 80.1088 94.429 80.3454C93.2454 80.3454 92.7706 80.1088 92.7706 79.3983C92.7706 77.7398 94.9038 73.4758 94.9038 73.0026H94.6673C94.6681 73.0035 94.4299 73.4766 93.7193 74.1871L93.0096 73.4766C93.4828 72.7661 93.9567 72.2921 94.4299 71.8181C96.0883 69.4491 96.7989 67.3175 96.7989 66.607C97.0371 65.4225 96.5623 64.9485 95.6152 65.1859C92.0617 65.4225 87.3245 72.5295 87.5611 75.3716C87.5611 76.3196 88.0342 76.5561 88.983 76.5561C89.9301 76.3196 91.5877 75.1351 93.0096 73.4766L93.7193 74.1871ZM60.0809 77.0301C60.0809 74.6611 62.6873 69.9239 63.3979 67.5541C63.3979 67.3175 63.1605 66.3696 62.2134 66.3696C61.7394 66.3696 61.0289 66.607 60.0809 67.7907C58.6599 69.4491 58.4233 69.9231 58.1859 69.9231C58.1859 69.9231 57.9485 69.9231 57.9485 69.6857C57.9485 68.7378 62.6865 62.8161 65.5295 62.8161C66.9506 62.8161 67.6611 63.5258 67.6611 64.7111C67.6611 65.1851 67.4237 66.1322 67.1871 66.8427L64.5816 73.7123C64.3442 74.4229 64.1076 74.6603 64.1076 75.6074C64.1076 76.5545 64.5816 77.2659 65.7661 77.2659C68.609 77.2659 72.1617 69.4483 72.8731 67.7898L74.2941 63.9998C74.7681 63.0526 74.7681 62.8161 76.6631 62.8161C77.8477 62.8161 78.0842 63.0527 78.0842 63.5258C78.0842 63.7632 77.8476 64.4737 77.6103 65.4208L74.7681 72.5278C74.2941 73.7123 74.2941 74.8968 74.2941 75.8448C74.2941 76.7919 74.7681 77.2659 75.9526 77.2659C76.9005 77.2659 78.5582 76.0814 79.0321 75.3708C80.928 73.0018 82.8231 70.6328 82.8231 67.7907C82.8231 66.1322 81.8743 65.4217 81.8743 64.2372C81.8743 63.0527 82.584 62.5787 83.5328 62.5787C84.4799 62.5787 85.1912 63.2892 85.1912 64.7103C85.1912 69.2109 78.0842 80.3446 72.6365 80.3446C71.6886 80.3446 70.0301 79.3975 70.0301 77.739C70.0301 76.0814 70.7406 73.9489 71.2146 72.7644C69.3196 75.37 66.714 80.3446 63.1605 80.3446C60.5557 80.3462 60.0809 77.5041 60.0809 77.0301ZM103.432 70.1597C103.905 70.1597 105.089 66.3696 106.747 66.133C106.985 66.133 107.459 66.3696 107.459 66.8436C107.459 67.3175 107.459 67.7915 107.222 68.976C104.378 78.4512 104.142 78.2146 104.142 78.6878C104.142 79.1617 103.905 80.3462 105.8 80.3462C106.747 80.3462 107.459 77.9772 110.537 72.0555C111.249 70.6336 113.618 65.4225 114.801 65.4225C115.038 65.4225 115.276 65.8965 115.276 66.3704C115.276 67.5549 115.513 68.2655 116.223 68.2655C117.645 68.2655 118.118 67.081 118.118 65.6599C118.118 64.7119 117.882 62.8177 116.223 62.8177C113.618 62.8177 112.196 67.0818 109.354 73.0035H109.118C110.065 69.6865 110.538 67.3175 110.775 64.712C110.775 63.2909 110.065 62.8169 109.118 62.8169C106.748 62.8169 102.957 68.7386 102.957 70.1597C102.957 70.1597 103.195 70.3971 103.432 70.1597Z" fill="#696969"/>
<path fill-rule="evenodd" clip-rule="evenodd" d="M56.0543 49.7882C56.5283 49.7882 57.9493 50.0247 58.8973 49.7882C59.8452 49.7882 60.3183 49.7882 61.5037 49.5508C62.2142 49.5508 62.4516 49.7882 62.4516 50.0247C62.4516 50.2613 62.2142 50.7353 61.9776 51.4458L52.739 74.8976C52.5025 75.3716 52.0285 76.7927 52.0285 77.2667C52.0285 77.5032 52.2659 77.9772 52.739 77.9772C53.4496 77.7398 54.1601 76.7927 55.582 75.3716C56.2925 74.6611 56.2925 74.4237 56.2925 74.4237C56.5299 74.4237 56.5299 74.6603 56.5299 74.8976C56.5299 75.6082 53.4504 80.3454 49.4229 80.3454C48.7124 80.3454 48.2392 80.3454 48.2392 79.3983C48.2392 78.4503 48.2392 77.9772 48.4758 77.2667C48.7124 76.3187 49.4229 74.4237 49.6603 73.7131C49.4229 74.1871 48.7124 74.6611 48.2392 75.3716L47.7653 74.4237C50.3717 71.8181 52.5033 67.5541 52.5033 65.4216C52.5033 64.7111 51.7927 64.2371 51.3188 64.2371C47.2913 64.2371 42.5533 72.0547 42.5533 75.1342C42.5533 76.3187 43.5012 76.7919 44.4483 76.5553C45.3954 76.3187 46.8173 75.3708 47.7644 74.1863L48.2384 75.1342C46.3434 77.5032 43.5004 80.3454 40.8948 80.3454C38.7632 80.3454 38.2893 77.9764 38.2893 77.0293C38.0519 72.7652 40.4209 69.4491 42.0793 67.7906C46.3434 63.29 49.6595 63.0526 50.37 62.8161C51.7911 62.8161 52.5016 63.2892 53.2122 63.7632L57.2396 53.34C57.477 52.8661 57.7136 52.1555 57.7136 51.919C57.7136 51.445 57.477 50.971 57.0031 50.971C55.582 50.971 55.3454 50.7336 55.3454 50.4971C55.3438 50.0247 55.3438 50.0247 56.0543 49.7882ZM133.279 49.7882H135.886C136.833 49.7882 137.306 49.7882 138.491 49.5508C139.201 49.5508 139.438 49.7882 139.438 50.0247C139.438 50.2613 139.438 50.7353 139.202 51.4458L129.728 74.6602C129.491 75.3708 129.253 76.7919 129.253 77.0293C129.253 77.5032 129.491 77.7398 129.728 77.7398C130.675 77.7398 131.386 76.7919 132.806 75.3708L133.518 74.4228C133.754 74.4228 133.754 74.6594 133.754 74.8968C133.754 75.3708 130.674 80.3445 126.647 80.3445C125.937 80.3445 125.464 80.108 125.464 79.3974C125.225 78.4495 125.464 77.9764 125.7 77.2658C125.7 76.3179 126.647 74.4229 126.884 73.7123C126.411 73.9497 125.937 74.6602 125.464 75.1342L124.989 74.1863C127.596 71.8173 129.728 67.3167 129.728 65.1842C129.728 64.4737 129.016 63.9997 128.542 63.9997C124.515 64.2371 119.778 72.0547 119.778 74.8968C119.778 76.3179 120.725 76.7919 121.436 76.5553C122.62 76.3187 123.806 75.1342 124.989 74.1863L125.463 75.1342C123.568 77.2658 120.724 80.3454 117.882 80.3454C115.987 80.3454 115.513 77.9764 115.513 77.0293C115.276 72.5286 117.408 69.4491 119.303 67.5532C123.567 63.2892 126.882 62.8161 127.593 62.8161C129.014 62.8161 129.725 63.2892 130.436 63.7632L134.463 53.34C134.7 52.8661 134.936 52.1555 134.936 51.6816C134.936 51.2076 134.7 50.971 134.226 50.971C132.805 50.7336 132.568 50.7336 132.568 50.2605C132.569 50.0247 132.569 49.7882 133.279 49.7882Z" fill="#696969"/>
<path fill-rule="evenodd" clip-rule="evenodd" d="M8.4401 113.037C19.3372 118.723 34.0235 120.854 65.2929 115.88C89.9292 111.853 127.358 107.59 151.756 120.618C152.467 120.854 151.994 121.803 151.283 121.327C125.937 109.958 101.3 113.985 85.4286 116.827C41.1305 124.171 17.6787 120.38 7.72956 113.748C6.54506 112.8 7.01903 112.326 8.4401 113.037Z" fill="#383838"/>
<path fill-rule="evenodd" clip-rule="evenodd" d="M49.1847 99.7715L46.1051 101.43L48.0002 98.8227C48.0002 98.8227 48.2376 99.2959 48.4741 99.5341C48.7107 99.7715 49.1847 99.7715 49.1847 99.7715ZM45.6312 99.7715L45.8686 97.6399C45.8686 97.6399 46.1051 97.6399 46.3425 97.4033L46.8157 97.1651C46.8157 97.1651 46.8157 97.4033 47.0531 97.6399C47.2896 97.6399 47.527 97.8764 47.527 97.8764C47.527 97.8764 47.0531 98.5861 46.8165 98.8235C46.3434 99.2967 45.8694 100.009 45.632 100.009L45.6312 99.7715ZM43.2622 101.192C43.2622 100.482 43.0256 98.3496 43.0256 98.3496H43.2622L43.7361 97.8764C43.7361 97.8764 43.7361 98.113 43.9735 98.113H44.4475C44.4475 98.113 44.4475 99.0601 44.2101 99.7715C43.9735 100.245 43.4996 101.192 43.2622 101.192ZM40.42 99.7715C40.42 99.7715 40.894 99.5349 41.1306 99.5349C41.6045 99.2967 41.8411 98.8235 41.8411 98.8235C41.8411 98.8235 42.0785 99.5349 42.0785 100.009C42.3151 100.719 42.3151 101.904 42.3151 101.904L40.42 99.7715ZM18.1527 113.037L18.8632 112.327C19.0998 111.854 19.0998 111.142 19.0998 111.142V103.799C19.0998 103.799 19.0998 103.088 18.8632 102.614C18.6258 102.377 18.3893 101.904 18.1527 101.904L17.4422 102.614C17.2056 103.087 17.2056 103.799 17.2056 103.799V111.142C17.2056 111.142 17.2056 111.853 17.4422 112.327L18.1527 113.037ZM21.4688 113.273C21.4688 113.273 21.9428 113.037 22.1793 112.564C22.4167 112.327 22.6533 111.617 22.6533 111.617V103.799C22.6533 103.799 22.4167 103.088 22.1793 102.614C21.9428 102.377 21.7054 101.904 21.4688 101.904C21.4688 101.904 20.9948 102.377 20.9948 102.614C20.5209 103.087 20.5209 103.799 20.5209 103.799V111.617C20.5209 111.617 20.5209 112.326 20.9948 112.564C20.9948 113.037 21.4688 113.273 21.4688 113.273ZM14.8366 112.09C15.3106 112.09 15.3106 111.853 15.5471 111.617C15.7845 111.142 15.7845 110.431 15.7845 110.431V103.799C15.7845 103.799 15.7845 103.088 15.5471 102.614L14.8366 101.904C14.5992 102.14 14.126 102.377 13.6521 102.377C13.1781 102.377 12.705 102.14 12.4676 101.667C11.9936 101.667 11.5196 101.193 11.5196 100.719C11.5196 100.482 11.757 100.245 11.9936 100.009C11.757 99.7723 11.5196 99.5357 11.5196 99.0601C11.5196 98.587 11.757 98.113 12.4676 98.113C12.231 97.8764 12.231 97.6399 12.231 97.6399C12.231 97.1651 12.705 96.6911 13.1781 96.6911V96.218C13.1781 95.7448 13.8886 95.2709 14.5992 95.2709H15.0732C15.0732 94.7961 15.5471 94.3221 16.2577 94.3221C16.7316 94.3221 17.2056 94.5587 17.4422 95.0318C17.6796 94.7952 17.6796 94.7952 17.9161 94.7952V94.5587C17.9161 93.849 18.3901 93.6116 19.1006 93.6116C19.5746 93.6116 20.0486 93.8481 20.2851 94.3213H21.4696C21.4696 94.0847 21.9436 93.6116 22.6541 93.6116C23.1281 93.6116 23.6012 94.0847 23.6012 94.5587H24.0752C24.3118 94.0855 24.7857 93.849 25.2597 93.849C25.9702 93.849 26.4442 94.3221 26.4442 94.7961C26.4442 95.0326 26.2076 95.5074 25.9711 95.5074C26.2076 95.744 26.2076 95.744 26.2076 95.9806C26.4442 95.744 26.6808 95.744 26.9182 95.744C27.6287 95.744 28.1027 96.2171 28.1027 96.9277C28.1027 97.4025 27.6287 97.8764 27.1547 97.8764V98.113H27.3913C28.1019 98.113 28.5758 98.5861 28.5758 98.8227C28.5758 99.2959 28.3384 99.5341 27.8653 99.7715C28.1027 99.7715 28.1027 100.008 28.1027 100.245C28.1027 100.718 27.6287 100.954 27.1547 101.192C27.1547 101.667 26.4442 102.377 25.4963 102.377C25.2589 102.377 25.0223 102.14 24.7857 102.14C24.5492 102.14 24.3118 102.377 24.0752 102.614C23.8378 103.087 23.8378 103.799 23.8378 103.799V111.617C23.8378 111.617 23.8378 112.564 24.3118 113.037C24.3118 113.037 24.5492 113.748 25.0223 113.748C30.944 114.221 35.208 113.273 39.2355 112.326C39.4721 111.853 41.3671 110.195 41.6045 108.299C41.8419 107.113 42.0785 105.693 41.8419 104.982C41.6045 104.509 41.3679 104.509 41.1314 104.035C41.1314 103.562 41.3688 103.323 41.3688 103.086C41.1314 102.139 40.1843 101.666 40.1843 101.666C39.9477 101.666 39.2372 102.375 38.7632 102.375C38.5258 102.375 38.0527 102.139 37.8153 101.666C37.5779 101.902 37.3413 102.139 36.8673 102.139C35.9194 102.139 35.2089 101.429 35.2089 100.717H33.7878C33.5504 100.953 33.3138 101.19 32.8399 101.19C31.8919 101.428 31.1814 100.717 31.1814 100.006C30.7074 99.7698 30.4709 99.5332 30.4709 99.0576C30.4709 98.5845 30.7083 98.3479 30.9448 98.1105C30.7083 97.8739 30.4709 97.4008 30.7083 96.9252C30.9448 96.2155 31.1822 96.2155 31.4188 95.9781C30.7083 95.7415 30.2343 95.2684 30.2343 94.5562C30.2343 93.8465 30.7083 93.3725 31.6554 93.1343L31.8919 92.4246C31.6554 92.188 31.6554 91.9514 31.418 91.7149C31.418 91.2417 31.8919 90.5295 32.6025 90.5295C32.839 90.5295 33.0756 90.5295 33.313 90.7661C33.5496 90.5295 33.787 90.293 34.0235 90.293C33.787 90.0564 33.787 89.5833 33.787 89.3459C33.787 88.6345 34.2609 87.924 35.208 87.924H35.9186C36.3925 87.924 36.6291 87.4508 36.8665 87.4508C37.3405 87.4508 37.8144 87.6874 38.051 87.6874C37.8144 87.6874 37.8144 87.4508 37.8144 87.4508C37.8144 86.7395 38.525 86.0289 39.2355 86.0289C39.2355 85.3192 39.7095 84.8436 40.42 84.607C40.6566 84.607 40.894 84.8436 41.1306 85.0818C41.3679 84.3705 42.0785 83.8965 42.5516 83.8965C43.4996 83.8965 43.9727 84.3696 44.2101 85.0818C44.4475 84.3705 45.158 83.8965 45.8686 83.8965C46.5791 83.8965 47.2896 84.3696 47.527 85.0818C48.2376 85.0818 48.7115 85.555 48.7115 86.2655V86.5021H48.9489C49.6595 86.5021 50.37 86.9752 50.37 87.6874C50.37 87.924 50.37 88.1605 50.1326 88.3971C50.6066 88.3971 50.8431 88.6337 50.8431 88.8702H51.5537C52.5016 88.6337 53.2121 89.5816 53.4487 90.2921C53.4487 90.7653 53.2113 91.0018 52.9747 91.2409C53.4487 91.4775 53.6853 91.714 53.6853 92.188C53.6853 92.4246 53.6853 92.6611 53.4487 92.6611C54.1593 92.6611 54.6332 93.1343 54.8698 93.8465C54.8698 93.8465 54.8698 94.083 54.6332 94.083C55.3438 94.3196 55.5812 94.7928 55.5812 95.2684C55.5812 95.9781 55.3446 96.452 54.6332 96.452C55.1072 96.6886 55.1072 97.1618 55.3438 97.6374C55.3438 98.3471 54.8698 98.8211 54.1593 99.0576V99.5324C54.3967 100.48 53.4487 101.189 52.5008 101.189C52.2642 101.189 51.7902 101.189 51.5528 100.953C51.3163 101.427 50.8423 101.664 50.3683 101.664C49.8944 101.664 49.4204 101.427 49.4204 100.953C48.2367 101.664 46.5783 102.375 46.3417 102.611C46.1043 102.848 45.3938 103.796 45.3938 104.743C45.3938 105.454 45.8677 105.928 45.8677 106.165C45.8677 107.348 45.3938 107.112 45.3938 108.296C45.3938 109.48 46.3417 110.428 46.8148 110.665C48.4733 110.665 50.6049 110.429 52.5008 110.665C55.8169 111.375 55.1064 112.797 54.3958 113.034C49.8944 114.693 25.258 119.193 8.67667 111.139C7.49217 110.43 7.49217 109.719 9.38721 110.43C11.2822 111.139 12.9407 111.615 14.5984 112.088L14.8366 112.09Z" fill="#696969"/>
</g>
<defs>
<clipPath id="clip0_836_82">
<rect width="160" height="160" fill="white"/>
</clipPath>
</defs>
</svg>
