<?xml version="1.0" encoding="UTF-8"?><svg id="Layer_2" xmlns="http://www.w3.org/2000/svg" viewBox="0 0 559.58 559.61"><defs><style>.cls-1{fill:#fefefe;}.cls-1,.cls-2{stroke-width:0px;}.cls-2{fill:#4294d7;}</style></defs><g id="Logo_04:_600_x_600_px"><path class="cls-2" d="M273.73.06C122.87,3.15-3.79,128.32.09,287.15c3.65,149.54,126.06,272.12,279.24,272.47,156.59.2,280.44-127.5,280.25-280.23C559.39,125.09,432.06-3.19,273.73.06Z"/><path class="cls-1" d="M515.69,279.72c.65,129.56-104.64,233.68-231.19,236.02-132.79,2.46-239.64-105.02-240.6-234.05-.98-131.54,106.97-238.39,236.65-237.86,130.19.53,235.85,107,235.15,235.89ZM275.14,56.47c-119.25,1.81-219.4,100.61-217.51,225.85,1.85,122.27,103.4,221.5,227.84,218.51,120.12-2.89,220.18-102.57,216.66-228.99-3.37-121.07-104.5-218.56-226.99-215.37Z"/><path class="cls-1" d="M391.97,278.89c0,38.48-.01,76.96.04,115.44,0,1.78-.43,2.27-2.24,2.26-27.55-.06-55.1-.06-82.65,0-1.92,0-2.54-.38-2.53-2.45.08-24.61.05-49.21.05-73.82,0-3.49,0-2.15-6.82-2.67-11.68-.88-23.42-1.07-35.1-.05-7.51.66-7.51-.95-7.51,2.98,0,24.54-.02,49.08.04,73.62,0,1.9-.52,2.38-2.4,2.38-27.62-.06-55.23-.06-82.85,0-1.67,0-2.19-.32-2.19-2.12.05-77.03.05-154.05,0-231.08,0-1.68.34-2.19,2.12-2.18,27.75.06,55.49.06,83.24,0,1.14,0,2.06.92,2.06,2.06-.05,24.67-.04,49.34-.04,74.02q0,2.58,2.52,2.58c14.86,0,29.71-.03,44.57.04,1.91,0,2.39-.54,2.39-2.41-.06-24.61-.02-49.21-.09-73.82,0-2.01.52-2.49,2.5-2.48,27.55.07,55.1.06,82.65,0,1.77,0,2.27.41,2.27,2.24-.06,38.48-.04,76.96-.04,115.44ZM176.79,239.02c0,22.44.02,44.89-.04,67.33,0,1.86.46,2.42,2.37,2.41,41.09-.08,82.18-.09,123.27-.06,1.8,0,2.29-.48,2.29-2.28-.06-18.58-.07-37.16,0-55.75,0-1.83-.52-2.28-2.3-2.28-17.67.06-35.33.04-53,.04q-2.95,0-2.95-2.85c0-24.6-.02-49.2.03-73.8,0-1.72-.34-2.33-2.23-2.32-21.72.07-43.45.07-65.17,0-1.98,0-2.32.62-2.32,2.44.06,22.38.04,44.75.04,67.13Z"/></g></svg>