<svg width="129" height="23" viewBox="0 0 129 23" fill="none" xmlns="http://www.w3.org/2000/svg">
<path d="M1.54159 19V4.00074H3.74981V19H1.54159ZM11.4786 19V4.00074H13.6868V19H11.4786ZM2.62487 10.2713H12.4577V12.1045H2.62487V10.2713ZM22.2165 19.2083C21.1471 19.2083 20.168 19.0208 19.2792 18.6459C18.3903 18.257 17.6195 17.7153 16.9668 17.0209C16.314 16.3265 15.8002 15.5071 15.4252 14.5627C15.0641 13.6183 14.8835 12.5767 14.8835 11.4379C14.8835 9.93795 15.196 8.61163 15.821 7.45891C16.446 6.30619 17.307 5.4104 18.4042 4.77154C19.5153 4.11879 20.7791 3.79242 22.1957 3.79242C23.64 3.79242 24.9108 4.11879 26.008 4.77154C27.1052 5.4104 27.9662 6.30619 28.5912 7.45891C29.23 8.61163 29.5495 9.94489 29.5495 11.4587C29.5495 12.5837 29.362 13.6253 28.987 14.5836C28.6259 15.528 28.119 16.3474 27.4662 17.0418C26.8135 17.7223 26.0358 18.257 25.133 18.6459C24.2442 19.0208 23.272 19.2083 22.2165 19.2083ZM22.1957 17.3334C23.1956 17.3334 24.0775 17.0834 24.8414 16.5835C25.6052 16.0696 26.2024 15.3682 26.633 14.4794C27.0774 13.5905 27.2996 12.5698 27.2996 11.417C27.2996 10.2782 27.0843 9.27826 26.6538 8.41719C26.2233 7.54224 25.6261 6.86866 24.8622 6.39646C24.0984 5.91037 23.2095 5.66733 22.1957 5.66733C21.1818 5.66733 20.293 5.91037 19.5291 6.39646C18.7792 6.86866 18.1889 7.53529 17.7584 8.39636C17.3417 9.25743 17.1334 10.2643 17.1334 11.417C17.1334 12.5837 17.3487 13.6114 17.7792 14.5002C18.2098 15.3891 18.8 16.0835 19.55 16.5835C20.3138 17.0834 21.1957 17.3334 22.1957 17.3334ZM30.7377 19V4.00074H32.946V19H30.7377ZM31.821 19V17.1876H40.4872V19H31.821ZM47.0794 19.2083C46.01 19.2083 45.0309 19.0208 44.142 18.6459C43.2532 18.257 42.4824 17.7153 41.8296 17.0209C41.1769 16.3265 40.663 15.5071 40.288 14.5627C39.9269 13.6183 39.7464 12.5767 39.7464 11.4379C39.7464 9.93795 40.0589 8.61163 40.6839 7.45891C41.3088 6.30619 42.1699 5.4104 43.2671 4.77154C44.3781 4.11879 45.6419 3.79242 47.0585 3.79242C48.5029 3.79242 49.7737 4.11879 50.8708 4.77154C51.968 5.4104 52.8291 6.30619 53.4541 7.45891C54.0929 8.61163 54.4123 9.94489 54.4123 11.4587C54.4123 12.5837 54.2248 13.6253 53.8499 14.5836C53.4888 15.528 52.9819 16.3474 52.3291 17.0418C51.6764 17.7223 50.8986 18.257 49.9959 18.6459C49.107 19.0208 48.1349 19.2083 47.0794 19.2083ZM47.0585 17.3334C48.0585 17.3334 48.9404 17.0834 49.7042 16.5835C50.4681 16.0696 51.0653 15.3682 51.4958 14.4794C51.9402 13.5905 52.1624 12.5698 52.1624 11.417C52.1624 10.2782 51.9472 9.27826 51.5166 8.41719C51.0861 7.54224 50.4889 6.86866 49.7251 6.39646C48.9612 5.91037 48.0724 5.66733 47.0585 5.66733C46.0447 5.66733 45.1559 5.91037 44.392 6.39646C43.642 6.86866 43.0518 7.53529 42.6213 8.39636C42.2046 9.25743 41.9963 10.2643 41.9963 11.417C41.9963 12.5837 42.2116 13.6114 42.6421 14.5002C43.0726 15.3891 43.6629 16.0835 44.4128 16.5835C45.1767 17.0834 46.0586 17.3334 47.0585 17.3334ZM57.5852 19L63.2307 4.00074H65.1473L59.7518 19H57.5852ZM69.1888 19L63.7932 4.00074H65.814L71.4803 19H69.1888ZM60.4392 13.0211H68.4805V14.8544H60.4392V13.0211ZM72.4479 19V4.00074H74.6561V19H72.4479ZM73.5312 19V17.1876H82.1974V19H73.5312ZM83.4654 19V4.00074H85.6736V19H83.4654ZM84.5487 19V17.1876H93.8816V19H84.5487ZM84.5487 12.1462V10.3338H93.1316V12.1462H84.5487ZM84.5487 5.81315V4.00074H93.6941V5.81315H84.5487ZM94.9097 19V4.00074H100.826C101.909 4.00074 102.833 4.18129 103.597 4.54238C104.361 4.88959 104.951 5.38262 105.367 6.02148C105.784 6.64645 105.992 7.38947 105.992 8.25053C105.992 9.1116 105.784 9.86156 105.367 10.5004C104.951 11.1393 104.361 11.6393 103.597 12.0003C102.833 12.3614 101.909 12.542 100.826 12.542H96.5763V10.7504H100.764C101.764 10.7504 102.52 10.5351 103.034 10.1046C103.562 9.66019 103.826 9.0491 103.826 8.27137C103.826 7.49363 103.569 6.88949 103.055 6.45896C102.541 6.02842 101.777 5.81315 100.764 5.81315H97.1179V19H94.9097ZM103.576 19L96.2638 11.4379H98.9511L106.742 19H103.576ZM110.949 19V5.81315H105.887V4.00074H118.22V5.81315H113.157V19H110.949Z" fill="white"/>
<path d="M125.795 0C124.028 0 122.59 1.43702 122.59 3.20445C122.59 4.97118 124.028 6.40892 125.795 6.40892C127.562 6.40892 128.999 4.97118 128.999 3.20445C128.999 1.43702 127.562 0 125.795 0ZM125.795 5.69498C124.421 5.69498 123.304 4.57775 123.304 3.20447C123.304 1.83059 124.421 0.713381 125.795 0.713381C127.168 0.713381 128.285 1.83061 128.285 3.20447C128.285 4.57775 127.168 5.69498 125.795 5.69498Z" fill="white"/>
<path d="M126.845 3.7849C126.64 4.13621 126.259 4.35414 125.851 4.35414C125.218 4.35414 124.701 3.8381 124.701 3.20441C124.701 2.5702 125.218 2.05399 125.851 2.05399C126.259 2.05399 126.64 2.27272 126.845 2.62333L126.871 2.66915H127.644L127.597 2.54481C127.463 2.18875 127.227 1.88602 126.915 1.66994C126.602 1.45331 126.234 1.33838 125.851 1.33838C124.822 1.33838 123.986 2.17572 123.986 3.20441C123.986 4.23317 124.822 5.06973 125.851 5.06973C126.234 5.06973 126.602 4.95519 126.915 4.73822C127.227 4.52209 127.463 4.21946 127.597 3.86341L127.644 3.73899H126.871L126.845 3.7849Z" fill="white"/>
</svg>
